%TF.GenerationSoftware,KiCad,Pcbnew,9.0.6*%
%TF.CreationDate,2025-11-25T14:35:56-05:00*%
%TF.ProjectId,Badge_NFC,42616467-655f-44e4-9643-2e6b69636164,rev?*%
%TF.SameCoordinates,Original*%
%TF.FileFunction,Copper,L2,Bot*%
%TF.FilePolarity,Positive*%
%FSLAX46Y46*%
G04 Gerber Fmt 4.6, Leading zero omitted, Abs format (unit mm)*
G04 Created by KiCad (PCBNEW 9.0.6) date 2025-11-25 14:35:56*
%MOMM*%
%LPD*%
G01*
G04 APERTURE LIST*
%TA.AperFunction,NonConductor*%
%ADD10C,0.000000*%
%TD*%
%TA.AperFunction,ComponentPad*%
%ADD11C,0.600000*%
%TD*%
%TA.AperFunction,ViaPad*%
%ADD12C,0.600000*%
%TD*%
%TA.AperFunction,Conductor*%
%ADD13C,0.200000*%
%TD*%
G04 APERTURE END LIST*
D10*
%TA.AperFunction,NonConductor*%
G36*
X99102133Y-96676680D02*
G01*
X99424390Y-96715218D01*
X99748236Y-96776607D01*
X100072033Y-96861303D01*
X108409618Y-99358784D01*
X108545209Y-99401404D01*
X108676065Y-99446539D01*
X108802199Y-99494183D01*
X108923620Y-99544325D01*
X109040339Y-99596960D01*
X109152368Y-99652077D01*
X109259716Y-99709669D01*
X109362396Y-99769729D01*
X109460417Y-99832247D01*
X109553790Y-99897215D01*
X109642527Y-99964627D01*
X109726637Y-100034472D01*
X109806133Y-100106743D01*
X109881024Y-100181433D01*
X109951322Y-100258532D01*
X110017038Y-100338033D01*
X109782735Y-100573250D01*
X109665841Y-100691109D01*
X109549463Y-100809498D01*
X109440393Y-100921422D01*
X109394176Y-100792292D01*
X109337155Y-100666220D01*
X109269534Y-100543516D01*
X109191518Y-100424485D01*
X109103313Y-100309435D01*
X109005123Y-100198673D01*
X108897154Y-100092506D01*
X108779610Y-99991242D01*
X108652697Y-99895188D01*
X108516619Y-99804651D01*
X108371581Y-99719938D01*
X108217790Y-99641357D01*
X108055448Y-99569213D01*
X107884763Y-99503816D01*
X107705938Y-99445472D01*
X107519178Y-99394487D01*
X99602840Y-97441010D01*
X99453939Y-97407129D01*
X99305101Y-97378618D01*
X99156520Y-97355410D01*
X99008392Y-97337442D01*
X98860910Y-97324648D01*
X98714269Y-97316964D01*
X98568665Y-97314324D01*
X98424290Y-97316665D01*
X98281341Y-97323921D01*
X98140012Y-97336027D01*
X98000497Y-97352918D01*
X97862991Y-97374530D01*
X97727689Y-97400799D01*
X97594784Y-97431658D01*
X97464473Y-97467043D01*
X97336949Y-97506891D01*
X97212407Y-97551134D01*
X97091042Y-97599710D01*
X96973048Y-97652552D01*
X96858620Y-97709597D01*
X96747953Y-97770779D01*
X96641240Y-97836034D01*
X96538678Y-97905297D01*
X96440460Y-97978502D01*
X96346780Y-98055586D01*
X96257835Y-98136483D01*
X96173817Y-98221129D01*
X96094923Y-98309458D01*
X96021346Y-98401406D01*
X95953281Y-98496908D01*
X95890923Y-98595900D01*
X95834466Y-98698316D01*
X93039254Y-104166874D01*
X92989748Y-104271679D01*
X92947955Y-104376382D01*
X92913785Y-104480846D01*
X92887146Y-104584939D01*
X92867946Y-104688525D01*
X92856094Y-104791471D01*
X92851500Y-104893642D01*
X92854071Y-104994904D01*
X92863717Y-105095122D01*
X92880346Y-105194163D01*
X92903866Y-105291892D01*
X92934188Y-105388175D01*
X92971218Y-105482877D01*
X93014867Y-105575865D01*
X93065042Y-105667004D01*
X93121653Y-105756159D01*
X93184608Y-105843197D01*
X93253815Y-105927983D01*
X93329184Y-106010382D01*
X93410624Y-106090262D01*
X93498042Y-106167487D01*
X93591348Y-106241922D01*
X93690451Y-106313435D01*
X93795258Y-106381890D01*
X93905679Y-106447154D01*
X94021623Y-106509091D01*
X94142998Y-106567568D01*
X94269713Y-106622451D01*
X94401677Y-106673604D01*
X94538798Y-106720895D01*
X94680985Y-106764188D01*
X94828146Y-106803349D01*
X102721955Y-108752526D01*
X102871941Y-108786743D01*
X103021781Y-108815585D01*
X103171284Y-108839116D01*
X103320260Y-108857396D01*
X103468520Y-108870488D01*
X103615873Y-108878453D01*
X103762130Y-108881355D01*
X103907099Y-108879255D01*
X104050593Y-108872216D01*
X104192419Y-108860298D01*
X104332388Y-108843565D01*
X104470311Y-108822078D01*
X104605997Y-108795900D01*
X104739256Y-108765093D01*
X104869898Y-108729718D01*
X104997733Y-108689838D01*
X105122572Y-108645515D01*
X105244223Y-108596811D01*
X105362497Y-108543789D01*
X105477204Y-108486509D01*
X105588154Y-108425034D01*
X105695157Y-108359427D01*
X105798023Y-108289749D01*
X105896561Y-108216063D01*
X105990583Y-108138430D01*
X106079897Y-108056913D01*
X106164314Y-107971574D01*
X106243643Y-107882474D01*
X106317696Y-107789677D01*
X106386280Y-107693243D01*
X106449208Y-107593236D01*
X106506288Y-107489717D01*
X107836633Y-104890080D01*
X109157176Y-102287967D01*
X109391506Y-102058423D01*
X109625167Y-101828129D01*
X109642851Y-101816350D01*
X109663083Y-101800729D01*
X109685407Y-101781841D01*
X109709367Y-101760261D01*
X109734507Y-101736564D01*
X109760372Y-101711324D01*
X109812450Y-101658515D01*
X109861956Y-101606432D01*
X109905242Y-101559672D01*
X109958565Y-101500510D01*
X110005721Y-101452767D01*
X110193199Y-101267336D01*
X110380188Y-101081361D01*
X110385389Y-101101357D01*
X110390896Y-101121194D01*
X110402132Y-101160745D01*
X110407518Y-101180640D01*
X110412518Y-101200734D01*
X110416960Y-101221119D01*
X110418918Y-101231449D01*
X110420672Y-101241885D01*
X110429349Y-101307664D01*
X110434733Y-101373195D01*
X110436868Y-101438466D01*
X110435797Y-101503465D01*
X110431565Y-101568178D01*
X110424216Y-101632594D01*
X110413792Y-101696698D01*
X110400339Y-101760479D01*
X110383899Y-101823924D01*
X110364516Y-101887020D01*
X110342235Y-101949755D01*
X110317098Y-102012115D01*
X110289150Y-102074088D01*
X110258435Y-102135662D01*
X110224997Y-102196823D01*
X110188878Y-102257559D01*
X108358492Y-105215197D01*
X106518224Y-108169791D01*
X106407898Y-108331937D01*
X106286796Y-108483394D01*
X106154811Y-108624283D01*
X106011837Y-108754727D01*
X105857768Y-108874848D01*
X105692497Y-108984768D01*
X105515917Y-109084609D01*
X105327923Y-109174493D01*
X105128406Y-109254542D01*
X104917262Y-109324877D01*
X104694383Y-109385622D01*
X104459663Y-109436898D01*
X104212996Y-109478827D01*
X103954274Y-109511531D01*
X103683392Y-109535132D01*
X103400242Y-109549752D01*
X103295254Y-109532223D01*
X103176555Y-109514370D01*
X102908248Y-109473892D01*
X102763755Y-109449369D01*
X102615777Y-109420723D01*
X102466871Y-109387005D01*
X102392869Y-109367946D01*
X102319595Y-109347264D01*
X98082106Y-108084439D01*
X93850963Y-106811088D01*
X93696822Y-106761534D01*
X93548399Y-106707688D01*
X93405781Y-106649706D01*
X93269057Y-106587744D01*
X93138313Y-106521958D01*
X93013637Y-106452502D01*
X92895116Y-106379533D01*
X92782838Y-106303206D01*
X92676890Y-106223677D01*
X92577359Y-106141101D01*
X92484334Y-106055635D01*
X92397902Y-105967433D01*
X92318149Y-105876651D01*
X92245164Y-105783445D01*
X92179034Y-105687971D01*
X92119846Y-105590384D01*
X92067688Y-105490840D01*
X92022648Y-105389494D01*
X91984812Y-105286502D01*
X91954268Y-105182020D01*
X91931104Y-105076203D01*
X91915408Y-104969206D01*
X91907265Y-104861187D01*
X91906765Y-104752299D01*
X91913994Y-104642699D01*
X91929041Y-104532543D01*
X91951991Y-104421985D01*
X91982934Y-104311182D01*
X92021956Y-104200289D01*
X92069144Y-104089462D01*
X92124587Y-103978857D01*
X92188371Y-103868628D01*
X95802272Y-98048750D01*
X95875624Y-97938037D01*
X95954898Y-97831507D01*
X96130395Y-97631216D01*
X96327125Y-97448333D01*
X96543452Y-97283309D01*
X96777738Y-97136599D01*
X97028348Y-97008657D01*
X97293642Y-96899936D01*
X97571986Y-96810891D01*
X97861741Y-96741975D01*
X98161270Y-96693643D01*
X98468936Y-96666347D01*
X98783103Y-96660541D01*
X99102133Y-96676680D01*
G37*
%TD.AperFunction*%
%TA.AperFunction,NonConductor*%
G36*
X100591272Y-103384494D02*
G01*
X100595709Y-103387465D01*
X100586834Y-103381548D01*
X100591272Y-103384494D01*
G37*
%TD.AperFunction*%
%TA.AperFunction,NonConductor*%
G36*
X102026438Y-100257214D02*
G01*
X102153367Y-100268243D01*
X102277854Y-100287742D01*
X102399081Y-100315550D01*
X102516230Y-100351507D01*
X102628485Y-100395455D01*
X102682521Y-100420375D01*
X102735027Y-100447233D01*
X102785900Y-100476009D01*
X102835039Y-100506682D01*
X102882341Y-100539233D01*
X102927704Y-100573642D01*
X102971025Y-100609889D01*
X103012204Y-100647954D01*
X103051137Y-100687816D01*
X103087722Y-100729457D01*
X103514257Y-101244570D01*
X103937990Y-101760829D01*
X104778379Y-102796200D01*
X104579674Y-102794962D01*
X104561915Y-102775920D01*
X104552920Y-102766423D01*
X104543752Y-102756963D01*
X104534341Y-102747558D01*
X104524616Y-102738225D01*
X104514504Y-102728980D01*
X104503935Y-102719841D01*
X103405723Y-101801076D01*
X102302327Y-100885408D01*
X102218307Y-100821988D01*
X102128784Y-100765678D01*
X102034396Y-100716549D01*
X101935787Y-100674677D01*
X101833596Y-100640134D01*
X101728465Y-100612995D01*
X101621034Y-100593332D01*
X101511945Y-100581219D01*
X101401839Y-100576730D01*
X101291357Y-100579939D01*
X101181138Y-100590918D01*
X101071826Y-100609742D01*
X100964060Y-100636484D01*
X100858482Y-100671217D01*
X100755732Y-100714016D01*
X100656452Y-100764953D01*
X99978982Y-101150326D01*
X99304756Y-101538550D01*
X98633819Y-101929585D01*
X97966217Y-102323394D01*
X97918387Y-102353109D01*
X97873409Y-102383765D01*
X97831281Y-102415311D01*
X97792004Y-102447696D01*
X97755576Y-102480869D01*
X97721998Y-102514779D01*
X97691267Y-102549376D01*
X97663385Y-102584608D01*
X97638349Y-102620426D01*
X97616160Y-102656777D01*
X97596817Y-102693612D01*
X97580319Y-102730878D01*
X97566665Y-102768526D01*
X97555855Y-102806505D01*
X97547889Y-102844764D01*
X97542765Y-102883251D01*
X97540483Y-102921916D01*
X97541043Y-102960709D01*
X97544443Y-102999578D01*
X97550684Y-103038473D01*
X97559763Y-103077342D01*
X97571682Y-103116135D01*
X97586439Y-103154801D01*
X97604033Y-103193289D01*
X97624465Y-103231549D01*
X97647732Y-103269529D01*
X97673835Y-103307178D01*
X97702773Y-103344447D01*
X97734546Y-103381283D01*
X97769152Y-103417636D01*
X97806592Y-103453456D01*
X97846864Y-103488691D01*
X100031651Y-105311154D01*
X100077358Y-105347372D01*
X100124632Y-105381321D01*
X100173474Y-105412984D01*
X100223888Y-105442345D01*
X100275878Y-105469386D01*
X100329445Y-105494091D01*
X100384594Y-105516443D01*
X100441326Y-105536424D01*
X100499645Y-105554020D01*
X100559555Y-105569212D01*
X100621057Y-105581984D01*
X100684155Y-105592319D01*
X100748852Y-105600200D01*
X100815150Y-105605610D01*
X100883054Y-105608534D01*
X100952565Y-105608953D01*
X101676013Y-105427824D01*
X102360142Y-105041634D01*
X103039635Y-104651326D01*
X103714742Y-104257258D01*
X104385716Y-103859787D01*
X104424430Y-103835711D01*
X104461116Y-103810908D01*
X104495788Y-103785413D01*
X104528461Y-103759261D01*
X104559150Y-103732486D01*
X104587870Y-103705124D01*
X104614636Y-103677210D01*
X104639463Y-103648777D01*
X104662366Y-103619862D01*
X104683359Y-103590499D01*
X104702457Y-103560722D01*
X104719676Y-103530568D01*
X104735031Y-103500069D01*
X104748535Y-103469263D01*
X104760205Y-103438182D01*
X104770055Y-103406863D01*
X104770127Y-103406863D01*
X104809097Y-103412747D01*
X104853454Y-103418003D01*
X104902949Y-103422655D01*
X104957334Y-103426722D01*
X105016359Y-103430226D01*
X105079776Y-103433190D01*
X105218785Y-103437578D01*
X105235388Y-103481344D01*
X105252237Y-103525012D01*
X105260901Y-103546752D01*
X105269806Y-103568397D01*
X105279011Y-103589925D01*
X105288574Y-103611311D01*
X105277032Y-103678116D01*
X105261605Y-103742924D01*
X105242208Y-103805707D01*
X105218757Y-103866437D01*
X105191165Y-103925087D01*
X105159348Y-103981629D01*
X105123221Y-104036036D01*
X105082699Y-104088279D01*
X105037695Y-104138331D01*
X104988126Y-104186164D01*
X104933907Y-104231750D01*
X104874951Y-104275062D01*
X104811174Y-104316072D01*
X104742491Y-104354753D01*
X104668816Y-104391076D01*
X104590064Y-104425014D01*
X102836917Y-105125785D01*
X101076598Y-105817632D01*
X101013833Y-105840698D01*
X100950428Y-105861327D01*
X100886481Y-105879542D01*
X100822089Y-105895362D01*
X100757349Y-105908809D01*
X100692360Y-105919904D01*
X100562024Y-105935124D01*
X100431859Y-105941190D01*
X100302648Y-105938273D01*
X100175172Y-105926541D01*
X100050209Y-105906163D01*
X99928543Y-105877309D01*
X99810953Y-105840148D01*
X99753930Y-105818505D01*
X99698220Y-105794849D01*
X99643918Y-105769201D01*
X99591124Y-105741582D01*
X99539935Y-105712013D01*
X99490448Y-105680515D01*
X99442760Y-105647110D01*
X99396970Y-105611818D01*
X99353175Y-105574661D01*
X99311473Y-105535660D01*
X99271961Y-105494836D01*
X99234736Y-105452211D01*
X98248014Y-104255004D01*
X97269392Y-103054546D01*
X97235395Y-103010228D01*
X97204839Y-102965486D01*
X97177699Y-102920388D01*
X97153950Y-102875002D01*
X97133568Y-102829395D01*
X97116529Y-102783634D01*
X97102808Y-102737788D01*
X97092380Y-102691923D01*
X97085221Y-102646109D01*
X97081307Y-102600411D01*
X97080612Y-102554898D01*
X97083112Y-102509637D01*
X97088782Y-102464697D01*
X97097599Y-102420144D01*
X97109537Y-102376046D01*
X97124572Y-102332471D01*
X97142679Y-102289486D01*
X97163835Y-102247159D01*
X97188013Y-102205558D01*
X97215190Y-102164750D01*
X97245341Y-102124803D01*
X97278442Y-102085785D01*
X97314468Y-102047762D01*
X97353394Y-102010803D01*
X97395196Y-101974976D01*
X97439850Y-101940347D01*
X97487330Y-101906985D01*
X97537613Y-101874957D01*
X97590673Y-101844331D01*
X97646486Y-101815174D01*
X97705028Y-101787554D01*
X97766274Y-101761538D01*
X99509428Y-101065491D01*
X101259343Y-100377829D01*
X101321193Y-100355071D01*
X101383762Y-100334691D01*
X101446945Y-100316667D01*
X101510642Y-100300980D01*
X101639168Y-100276536D01*
X101768521Y-100261201D01*
X101897883Y-100254813D01*
X102026438Y-100257214D01*
G37*
%TD.AperFunction*%
%TA.AperFunction,NonConductor*%
G36*
X90491992Y-115924822D02*
G01*
X90658233Y-115996436D01*
X90740311Y-116034562D01*
X90820878Y-116074483D01*
X90899319Y-116116387D01*
X90975022Y-116160462D01*
X91047374Y-116206895D01*
X91115763Y-116255873D01*
X91133344Y-116270121D01*
X91066696Y-116241049D01*
X90634896Y-116018774D01*
X90453432Y-115909343D01*
X90491992Y-115924822D01*
G37*
%TD.AperFunction*%
%TA.AperFunction,NonConductor*%
G36*
X88396918Y-113839362D02*
G01*
X88454180Y-113941318D01*
X88540193Y-114085001D01*
X88762120Y-114440891D01*
X88989986Y-114793712D01*
X89083425Y-114933559D01*
X89151081Y-115030145D01*
X88804219Y-114844879D01*
X88132311Y-114498660D01*
X87457513Y-114155639D01*
X87101983Y-113979970D01*
X84042921Y-106551952D01*
X84050994Y-106431928D01*
X84061464Y-106313641D01*
X84074331Y-106197031D01*
X84089597Y-106082043D01*
X84107261Y-105968619D01*
X84127326Y-105856702D01*
X84149791Y-105746234D01*
X84174658Y-105637158D01*
X88396918Y-113839362D01*
G37*
%TD.AperFunction*%
%TA.AperFunction,NonConductor*%
G36*
X104220682Y-99508479D02*
G01*
X104330512Y-99513032D01*
X104438386Y-99521160D01*
X104544197Y-99532787D01*
X104647837Y-99547835D01*
X104749199Y-99566228D01*
X104848175Y-99587890D01*
X104944659Y-99612742D01*
X105038542Y-99640709D01*
X105129719Y-99671713D01*
X105218080Y-99705678D01*
X105303520Y-99742527D01*
X105385930Y-99782183D01*
X105465203Y-99824569D01*
X105541232Y-99869609D01*
X105613910Y-99917225D01*
X105683129Y-99967341D01*
X105748783Y-100019879D01*
X105810763Y-100074764D01*
X105868962Y-100131917D01*
X105923273Y-100191263D01*
X105973589Y-100252725D01*
X106019802Y-100316225D01*
X106061805Y-100381687D01*
X106099491Y-100449034D01*
X106132753Y-100518189D01*
X106161482Y-100589076D01*
X106185572Y-100661617D01*
X106204916Y-100735735D01*
X106219405Y-100811354D01*
X106228934Y-100888398D01*
X106233393Y-100966788D01*
X106277108Y-102792999D01*
X105742598Y-102794445D01*
X105559736Y-101818011D01*
X105380305Y-100841242D01*
X105356721Y-100739914D01*
X105323047Y-100640756D01*
X105279606Y-100544210D01*
X105226721Y-100450719D01*
X105164716Y-100360727D01*
X105093914Y-100274676D01*
X105014638Y-100193009D01*
X104927210Y-100116169D01*
X104831955Y-100044599D01*
X104729196Y-99978742D01*
X104619255Y-99919040D01*
X104502455Y-99865937D01*
X104379121Y-99819875D01*
X104249575Y-99781297D01*
X104114140Y-99750646D01*
X103973139Y-99728366D01*
X103899835Y-99720111D01*
X103825927Y-99713507D01*
X103676588Y-99704854D01*
X103525689Y-99701607D01*
X103373800Y-99702973D01*
X103221488Y-99708152D01*
X103069323Y-99716350D01*
X102767703Y-99738615D01*
X100588706Y-99927543D01*
X98411436Y-100126635D01*
X98180262Y-100147098D01*
X97948936Y-100169664D01*
X97834169Y-100183343D01*
X97720507Y-100199478D01*
X97608330Y-100218713D01*
X97498020Y-100241689D01*
X97411392Y-100263048D01*
X97327834Y-100286646D01*
X97247358Y-100312450D01*
X97169974Y-100340423D01*
X97095693Y-100370532D01*
X97024524Y-100402742D01*
X96956478Y-100437019D01*
X96891566Y-100473328D01*
X96829799Y-100511635D01*
X96771185Y-100551905D01*
X96715737Y-100594104D01*
X96663463Y-100638197D01*
X96614376Y-100684150D01*
X96568484Y-100731927D01*
X96525799Y-100781496D01*
X96486331Y-100832820D01*
X96450091Y-100885867D01*
X96417088Y-100940600D01*
X96387333Y-100996986D01*
X96360837Y-101054990D01*
X96337609Y-101114578D01*
X96317661Y-101175714D01*
X96301003Y-101238366D01*
X96287645Y-101302497D01*
X96277598Y-101368074D01*
X96270872Y-101435062D01*
X96267477Y-101503427D01*
X96267424Y-101573134D01*
X96270723Y-101644148D01*
X96277385Y-101716436D01*
X96287420Y-101789962D01*
X96300839Y-101864692D01*
X96471750Y-102732116D01*
X96636921Y-103600108D01*
X96952675Y-105337432D01*
X96965946Y-105401211D01*
X96982957Y-105463802D01*
X97003637Y-105525149D01*
X97027918Y-105585197D01*
X97055733Y-105643890D01*
X97087011Y-105701171D01*
X97159688Y-105811274D01*
X97245399Y-105915058D01*
X97343596Y-106012077D01*
X97453731Y-106101880D01*
X97575256Y-106184021D01*
X97707622Y-106258050D01*
X97850280Y-106323520D01*
X98002683Y-106379983D01*
X98164282Y-106426990D01*
X98334529Y-106464093D01*
X98512875Y-106490844D01*
X98698771Y-106506795D01*
X98891670Y-106511498D01*
X98995722Y-106508930D01*
X99066829Y-106506112D01*
X99104652Y-106503849D01*
X99143035Y-106500836D01*
X104350702Y-106032915D01*
X104507202Y-106015616D01*
X104658207Y-105992245D01*
X104803380Y-105962889D01*
X104873674Y-105945993D01*
X104942383Y-105927633D01*
X105009465Y-105907819D01*
X105074877Y-105886564D01*
X105138578Y-105863877D01*
X105200524Y-105839769D01*
X105260675Y-105814251D01*
X105318987Y-105787334D01*
X105375418Y-105759029D01*
X105429926Y-105729346D01*
X105482469Y-105698297D01*
X105533004Y-105665892D01*
X105581490Y-105632142D01*
X105627883Y-105597058D01*
X105672142Y-105560651D01*
X105714225Y-105522930D01*
X105754088Y-105483909D01*
X105791691Y-105443596D01*
X105826990Y-105402003D01*
X105859943Y-105359141D01*
X105890508Y-105315021D01*
X105918643Y-105269653D01*
X105944306Y-105223048D01*
X105967453Y-105175217D01*
X105988044Y-105126171D01*
X106006036Y-105075921D01*
X106019520Y-105031187D01*
X106030877Y-104985923D01*
X106040208Y-104940192D01*
X106047617Y-104894055D01*
X106053206Y-104847576D01*
X106057078Y-104800817D01*
X106059334Y-104753840D01*
X106060077Y-104706708D01*
X106059410Y-104659483D01*
X106057434Y-104612228D01*
X106054254Y-104565005D01*
X106049970Y-104517877D01*
X106038503Y-104424154D01*
X106023854Y-104331561D01*
X105984208Y-104108254D01*
X105943357Y-103885047D01*
X105860644Y-103438714D01*
X105956390Y-103437394D01*
X106053400Y-103435791D01*
X106053432Y-103435756D01*
X106292553Y-103438302D01*
X106332625Y-105113173D01*
X106331680Y-105193237D01*
X106325646Y-105271842D01*
X106314617Y-105348920D01*
X106298690Y-105424402D01*
X106277959Y-105498219D01*
X106252518Y-105570301D01*
X106222464Y-105640581D01*
X106187891Y-105708988D01*
X106148894Y-105775454D01*
X106105569Y-105839910D01*
X106058010Y-105902287D01*
X106006312Y-105962516D01*
X105950572Y-106020529D01*
X105890883Y-106076255D01*
X105827341Y-106129627D01*
X105760040Y-106180575D01*
X105614545Y-106274923D01*
X105455159Y-106358749D01*
X105282642Y-106431501D01*
X105097754Y-106492627D01*
X104901257Y-106541575D01*
X104693911Y-106577794D01*
X104476477Y-106600732D01*
X104249715Y-106609837D01*
X101262197Y-106689223D01*
X98250634Y-106689669D01*
X98136009Y-106688132D01*
X98023456Y-106683032D01*
X97913073Y-106674437D01*
X97804960Y-106662415D01*
X97699216Y-106647035D01*
X97595940Y-106628365D01*
X97495230Y-106606473D01*
X97397186Y-106581427D01*
X97301907Y-106553296D01*
X97209491Y-106522148D01*
X97120038Y-106488051D01*
X97033646Y-106451073D01*
X96950414Y-106411284D01*
X96870442Y-106368750D01*
X96793829Y-106323540D01*
X96720673Y-106275723D01*
X96651073Y-106225367D01*
X96585128Y-106172540D01*
X96522938Y-106117311D01*
X96464601Y-106059747D01*
X96410216Y-105999917D01*
X96359883Y-105937889D01*
X96313699Y-105873731D01*
X96271765Y-105807512D01*
X96234179Y-105739301D01*
X96201040Y-105669164D01*
X96172447Y-105597171D01*
X96148499Y-105523390D01*
X96129294Y-105447889D01*
X96114933Y-105370736D01*
X96105514Y-105292000D01*
X96101135Y-105211749D01*
X96049099Y-103113371D01*
X96003383Y-101014941D01*
X96004564Y-100948156D01*
X96010259Y-100882006D01*
X96020366Y-100816572D01*
X96034783Y-100751935D01*
X96053408Y-100688176D01*
X96076141Y-100625377D01*
X96102879Y-100563619D01*
X96133522Y-100502984D01*
X96167967Y-100443551D01*
X96206112Y-100385403D01*
X96247857Y-100328622D01*
X96293100Y-100273287D01*
X96393672Y-100167284D01*
X96507015Y-100068046D01*
X96632318Y-99976221D01*
X96768768Y-99892459D01*
X96915552Y-99817412D01*
X97071857Y-99751728D01*
X97236871Y-99696059D01*
X97409782Y-99651053D01*
X97589776Y-99617361D01*
X97776041Y-99595633D01*
X97939033Y-99584225D01*
X98102624Y-99576253D01*
X98266681Y-99571045D01*
X98431076Y-99567930D01*
X99089412Y-99562956D01*
X104109003Y-99507579D01*
X104220682Y-99508479D01*
G37*
%TD.AperFunction*%
%TA.AperFunction,NonConductor*%
G36*
X98715472Y-98125659D02*
G01*
X98982922Y-98160674D01*
X106337163Y-99385888D01*
X106555117Y-99428973D01*
X106763839Y-99483899D01*
X106864530Y-99515696D01*
X106962663Y-99550324D01*
X107058156Y-99587742D01*
X107150925Y-99627907D01*
X107240887Y-99670775D01*
X107327959Y-99716304D01*
X107412059Y-99764452D01*
X107493103Y-99815176D01*
X107571007Y-99868432D01*
X107645690Y-99924179D01*
X107717068Y-99982374D01*
X107785057Y-100042973D01*
X107849575Y-100105935D01*
X107910538Y-100171216D01*
X107967864Y-100238773D01*
X108021470Y-100308565D01*
X108071272Y-100380547D01*
X108117187Y-100454679D01*
X108159133Y-100530916D01*
X108197026Y-100609216D01*
X108230783Y-100689537D01*
X108260321Y-100771835D01*
X108285557Y-100856068D01*
X108306408Y-100942193D01*
X108322790Y-101030168D01*
X108334622Y-101119950D01*
X108341819Y-101211496D01*
X108344299Y-101304763D01*
X108189118Y-101795479D01*
X108093703Y-102091941D01*
X107989849Y-102402437D01*
X107977504Y-102438277D01*
X107870573Y-102545842D01*
X107817099Y-102599618D01*
X107763902Y-102653664D01*
X107623498Y-102797749D01*
X107299090Y-102795281D01*
X106935238Y-102793690D01*
X107032017Y-101980469D01*
X107083177Y-101574052D01*
X107137590Y-101167868D01*
X107146422Y-101085893D01*
X107150096Y-101004682D01*
X107148691Y-100924325D01*
X107142287Y-100844911D01*
X107130964Y-100766528D01*
X107114801Y-100689267D01*
X107093878Y-100613217D01*
X107068274Y-100538466D01*
X107038070Y-100465104D01*
X107003345Y-100393220D01*
X106964178Y-100322903D01*
X106920649Y-100254243D01*
X106872838Y-100187329D01*
X106820825Y-100122250D01*
X106764689Y-100059095D01*
X106704510Y-99997953D01*
X106640367Y-99938914D01*
X106572340Y-99882067D01*
X106500509Y-99827501D01*
X106424953Y-99775306D01*
X106345753Y-99725570D01*
X106262987Y-99678382D01*
X106087077Y-99592010D01*
X105897863Y-99516904D01*
X105695980Y-99453778D01*
X105482067Y-99403344D01*
X105256759Y-99366317D01*
X105107166Y-99348893D01*
X104956632Y-99334979D01*
X104805361Y-99323839D01*
X104653558Y-99314736D01*
X104045096Y-99283974D01*
X100284566Y-99063737D01*
X99141820Y-98994872D01*
X98570145Y-98966723D01*
X98284200Y-98956975D01*
X97998171Y-98951159D01*
X97899650Y-98951572D01*
X97801807Y-98955244D01*
X97704771Y-98962105D01*
X97608671Y-98972082D01*
X97513632Y-98985104D01*
X97419785Y-99001101D01*
X97327257Y-99019999D01*
X97236175Y-99041728D01*
X97146669Y-99066216D01*
X97058865Y-99093392D01*
X96972892Y-99123183D01*
X96888878Y-99155519D01*
X96806951Y-99190328D01*
X96727239Y-99227538D01*
X96649870Y-99267078D01*
X96574971Y-99308876D01*
X96502672Y-99352861D01*
X96433099Y-99398961D01*
X96366382Y-99447104D01*
X96302647Y-99497220D01*
X96242024Y-99549236D01*
X96184639Y-99603081D01*
X96130621Y-99658684D01*
X96080099Y-99715972D01*
X96033199Y-99774875D01*
X95990050Y-99835320D01*
X95950781Y-99897237D01*
X95915518Y-99960553D01*
X95884390Y-100025198D01*
X95857526Y-100091099D01*
X95835052Y-100158185D01*
X95817098Y-100226385D01*
X95772590Y-100439543D01*
X95734997Y-100653489D01*
X95702915Y-100868057D01*
X95674940Y-101083082D01*
X95576017Y-101944422D01*
X95391772Y-103482191D01*
X95298596Y-104250992D01*
X95198729Y-105019340D01*
X95189995Y-105101812D01*
X95186335Y-105183465D01*
X95187675Y-105264212D01*
X95193939Y-105343968D01*
X95205055Y-105422649D01*
X95220947Y-105500168D01*
X95241542Y-105576439D01*
X95266765Y-105651378D01*
X95296541Y-105724898D01*
X95330796Y-105796915D01*
X95369457Y-105867342D01*
X95412448Y-105936094D01*
X95459695Y-106003086D01*
X95511124Y-106068231D01*
X95566661Y-106131445D01*
X95626231Y-106192642D01*
X95689759Y-106251737D01*
X95757173Y-106308643D01*
X95828397Y-106363275D01*
X95903356Y-106415548D01*
X95981977Y-106465376D01*
X96064186Y-106512674D01*
X96239067Y-106599337D01*
X96427405Y-106674852D01*
X96628605Y-106738535D01*
X96842073Y-106789701D01*
X97067214Y-106827666D01*
X97213658Y-106845296D01*
X97361110Y-106859321D01*
X97509351Y-106870491D01*
X97658164Y-106879557D01*
X98254764Y-106909804D01*
X101443945Y-107096675D01*
X104063841Y-107248431D01*
X104190221Y-107247904D01*
X104314502Y-107243860D01*
X104436583Y-107236369D01*
X104556363Y-107225499D01*
X104673741Y-107211319D01*
X104788615Y-107193899D01*
X104900883Y-107173308D01*
X105010444Y-107149616D01*
X105117197Y-107122890D01*
X105221040Y-107093201D01*
X105321872Y-107060617D01*
X105419591Y-107025208D01*
X105514096Y-106987042D01*
X105605286Y-106946190D01*
X105693059Y-106902720D01*
X105777313Y-106856701D01*
X105857948Y-106808202D01*
X105934861Y-106757293D01*
X106007951Y-106704042D01*
X106077118Y-106648520D01*
X106142259Y-106590794D01*
X106203272Y-106530934D01*
X106260058Y-106469010D01*
X106312513Y-106405090D01*
X106360537Y-106339244D01*
X106404029Y-106271540D01*
X106442886Y-106202048D01*
X106477008Y-106130837D01*
X106506292Y-106057976D01*
X106530638Y-105983535D01*
X106549944Y-105907582D01*
X106564109Y-105830186D01*
X106632067Y-105337754D01*
X106692890Y-104844799D01*
X106808697Y-103858482D01*
X106808764Y-103858478D01*
X106857983Y-103440843D01*
X107258352Y-103439523D01*
X107633334Y-103435547D01*
X106524002Y-106649733D01*
X106487637Y-106745634D01*
X106445518Y-106838830D01*
X106397808Y-106929253D01*
X106344671Y-107016830D01*
X106286271Y-107101492D01*
X106222772Y-107183168D01*
X106081130Y-107337279D01*
X105921057Y-107478599D01*
X105743862Y-107606563D01*
X105550857Y-107720606D01*
X105343352Y-107820164D01*
X105122657Y-107904672D01*
X104890082Y-107973565D01*
X104646938Y-108026279D01*
X104394536Y-108062248D01*
X104134186Y-108080909D01*
X103867198Y-108081696D01*
X103594883Y-108064045D01*
X103318551Y-108027390D01*
X95987251Y-106807061D01*
X95855092Y-106782515D01*
X95726536Y-106753855D01*
X95601690Y-106721204D01*
X95480658Y-106684688D01*
X95363548Y-106644430D01*
X95250465Y-106600556D01*
X95141516Y-106553191D01*
X95036808Y-106502459D01*
X94936446Y-106448485D01*
X94840536Y-106391394D01*
X94749185Y-106331310D01*
X94662500Y-106268358D01*
X94580585Y-106202662D01*
X94503549Y-106134348D01*
X94431496Y-106063540D01*
X94364533Y-105990364D01*
X94302766Y-105914942D01*
X94246302Y-105837401D01*
X94195246Y-105757865D01*
X94149706Y-105676459D01*
X94109786Y-105593307D01*
X94075594Y-105508534D01*
X94047236Y-105422265D01*
X94024818Y-105334624D01*
X94008446Y-105245737D01*
X93998226Y-105155728D01*
X93994265Y-105064721D01*
X93996668Y-104972842D01*
X94005543Y-104880214D01*
X94020995Y-104786964D01*
X94043131Y-104693215D01*
X94072056Y-104599092D01*
X95818986Y-99521167D01*
X95854416Y-99428343D01*
X95895770Y-99337983D01*
X95942865Y-99250165D01*
X95995517Y-99164967D01*
X96053544Y-99082467D01*
X96116762Y-99002745D01*
X96258041Y-98851941D01*
X96417888Y-98713182D01*
X96594841Y-98587094D01*
X96787433Y-98474301D01*
X96994201Y-98375429D01*
X97213680Y-98291103D01*
X97444406Y-98221950D01*
X97684913Y-98168594D01*
X97933738Y-98131662D01*
X98189416Y-98111778D01*
X98450482Y-98109569D01*
X98715472Y-98125659D01*
G37*
%TD.AperFunction*%
%TA.AperFunction,NonConductor*%
G36*
X90226947Y-115772761D02*
G01*
X90453432Y-115909343D01*
X90168337Y-115794896D01*
X90138006Y-115752202D01*
X90105324Y-115711231D01*
X90070483Y-115671856D01*
X90041903Y-115642426D01*
X90226947Y-115772761D01*
G37*
%TD.AperFunction*%
%TA.AperFunction,NonConductor*%
G36*
X101100122Y-84475109D02*
G01*
X101191608Y-84479403D01*
X101282951Y-84486560D01*
X101374085Y-84496580D01*
X101464938Y-84509463D01*
X101555443Y-84525209D01*
X101645530Y-84543819D01*
X101735131Y-84565291D01*
X101824176Y-84589627D01*
X101912597Y-84616827D01*
X102000325Y-84646890D01*
X102087290Y-84679818D01*
X102173425Y-84715609D01*
X102258659Y-84754263D01*
X102342925Y-84795782D01*
X102426152Y-84840166D01*
X116563631Y-92673301D01*
X116733852Y-92775290D01*
X116895471Y-92887602D01*
X117048160Y-93009680D01*
X117191590Y-93140967D01*
X117325433Y-93280906D01*
X117449360Y-93428938D01*
X117563043Y-93584508D01*
X117666154Y-93747057D01*
X117758365Y-93916028D01*
X117839346Y-94090864D01*
X117908769Y-94271008D01*
X117966307Y-94455902D01*
X118011630Y-94644989D01*
X118044410Y-94837711D01*
X118064319Y-95033512D01*
X118071028Y-95231835D01*
X118071028Y-110692761D01*
X118069344Y-110792206D01*
X118064319Y-110891089D01*
X118055995Y-110989342D01*
X118044411Y-111086895D01*
X118029610Y-111183679D01*
X118011633Y-111279622D01*
X117990520Y-111374657D01*
X117966312Y-111468713D01*
X117939050Y-111561720D01*
X117908776Y-111653610D01*
X117875531Y-111744311D01*
X117839355Y-111833755D01*
X117800290Y-111921872D01*
X117758376Y-112008593D01*
X117713655Y-112093846D01*
X117666167Y-112177564D01*
X117615955Y-112259676D01*
X117563058Y-112340113D01*
X117507518Y-112418804D01*
X117449375Y-112495681D01*
X117388672Y-112570673D01*
X117325448Y-112643711D01*
X117259745Y-112714726D01*
X117191604Y-112783647D01*
X117121066Y-112850405D01*
X117048173Y-112914930D01*
X116972964Y-112977153D01*
X116895481Y-113037004D01*
X116815765Y-113094413D01*
X116733858Y-113149311D01*
X116649799Y-113201627D01*
X116563631Y-113251293D01*
X102426116Y-121084428D01*
X102342894Y-121128805D01*
X102258631Y-121170320D01*
X102173396Y-121208972D01*
X102087260Y-121244761D01*
X102000291Y-121277687D01*
X101912559Y-121307751D01*
X101824134Y-121334951D01*
X101735083Y-121359289D01*
X101645478Y-121380763D01*
X101555387Y-121399375D01*
X101464880Y-121415123D01*
X101374025Y-121428008D01*
X101282894Y-121438030D01*
X101191554Y-121445189D01*
X101100075Y-121449484D01*
X101008527Y-121450916D01*
X100916979Y-121449484D01*
X100825500Y-121445189D01*
X100734160Y-121438030D01*
X100643029Y-121428008D01*
X100552175Y-121415123D01*
X100461667Y-121399375D01*
X100371577Y-121380763D01*
X100281971Y-121359289D01*
X100192921Y-121334951D01*
X100104495Y-121307751D01*
X100016763Y-121277687D01*
X99929794Y-121244761D01*
X99843658Y-121208972D01*
X99758424Y-121170320D01*
X99674160Y-121128805D01*
X99590938Y-121084428D01*
X85453460Y-113251293D01*
X85283239Y-113149305D01*
X85121620Y-113036993D01*
X84968931Y-112914914D01*
X84825501Y-112783627D01*
X84691658Y-112643689D01*
X84567731Y-112495656D01*
X84454047Y-112340087D01*
X84350936Y-112177538D01*
X84258726Y-112008567D01*
X84177745Y-111833731D01*
X84108322Y-111653587D01*
X84050784Y-111468693D01*
X84005461Y-111279606D01*
X83972681Y-111086884D01*
X83952772Y-110891083D01*
X83946063Y-110692761D01*
X83946063Y-110692759D01*
X84189826Y-110692759D01*
X84191371Y-110783876D01*
X84195980Y-110874486D01*
X84203616Y-110964523D01*
X84214241Y-111053924D01*
X84227817Y-111142624D01*
X84244305Y-111230559D01*
X84263670Y-111317665D01*
X84285871Y-111403878D01*
X84310872Y-111489134D01*
X84338636Y-111573368D01*
X84369123Y-111656516D01*
X84402296Y-111738514D01*
X84438118Y-111819297D01*
X84476550Y-111898803D01*
X84517555Y-111976965D01*
X84561095Y-112053721D01*
X84607132Y-112129005D01*
X84655628Y-112202754D01*
X84706545Y-112274904D01*
X84759846Y-112345389D01*
X84815493Y-112414147D01*
X84873448Y-112481113D01*
X84933673Y-112546222D01*
X84996130Y-112609411D01*
X85060782Y-112670615D01*
X85127590Y-112729769D01*
X85196517Y-112786811D01*
X85267525Y-112841675D01*
X85340576Y-112894298D01*
X85415632Y-112944615D01*
X85492656Y-112992562D01*
X85571610Y-113038074D01*
X99709054Y-120871246D01*
X99784032Y-120911238D01*
X99860174Y-120948784D01*
X99937408Y-120983863D01*
X100015664Y-121016459D01*
X100094871Y-121046553D01*
X100174957Y-121074126D01*
X100255851Y-121099160D01*
X100337482Y-121121637D01*
X100419779Y-121141538D01*
X100502671Y-121158845D01*
X100586087Y-121173540D01*
X100669955Y-121185604D01*
X100754204Y-121195020D01*
X100838763Y-121201768D01*
X100923562Y-121205830D01*
X101008528Y-121207188D01*
X101093495Y-121205830D01*
X101178293Y-121201768D01*
X101262853Y-121195020D01*
X101347102Y-121185604D01*
X101430970Y-121173540D01*
X101514385Y-121158845D01*
X101597277Y-121141538D01*
X101679574Y-121121637D01*
X101761206Y-121099160D01*
X101842100Y-121074126D01*
X101922186Y-121046553D01*
X102001392Y-121016459D01*
X102079648Y-120983863D01*
X102156883Y-120948784D01*
X102233025Y-120911238D01*
X102308003Y-120871246D01*
X116445515Y-113038111D01*
X116601487Y-112944652D01*
X116749591Y-112841713D01*
X116889523Y-112729806D01*
X117020982Y-112609448D01*
X117143663Y-112481149D01*
X117257265Y-112345426D01*
X117361485Y-112202790D01*
X117456019Y-112053757D01*
X117540566Y-111898839D01*
X117614822Y-111738550D01*
X117678484Y-111573404D01*
X117731251Y-111403915D01*
X117772818Y-111230595D01*
X117802884Y-111053960D01*
X117821146Y-110874522D01*
X117827301Y-110692796D01*
X117827301Y-95231835D01*
X117825756Y-95140717D01*
X117821146Y-95050108D01*
X117813511Y-94960071D01*
X117802886Y-94870670D01*
X117789310Y-94781970D01*
X117772821Y-94694035D01*
X117753457Y-94606928D01*
X117731255Y-94520715D01*
X117706254Y-94435460D01*
X117678491Y-94351226D01*
X117648004Y-94268078D01*
X117614830Y-94186080D01*
X117579008Y-94105296D01*
X117540576Y-94025791D01*
X117499571Y-93947629D01*
X117456031Y-93870873D01*
X117409994Y-93795589D01*
X117361498Y-93721840D01*
X117310580Y-93649690D01*
X117257279Y-93579204D01*
X117201632Y-93510446D01*
X117143678Y-93443481D01*
X117083453Y-93378372D01*
X117020995Y-93315183D01*
X116956344Y-93253979D01*
X116889535Y-93194824D01*
X116820608Y-93137783D01*
X116749600Y-93082918D01*
X116676549Y-93030296D01*
X116601493Y-92979979D01*
X116524469Y-92932032D01*
X116445515Y-92886520D01*
X102308037Y-85053385D01*
X102233066Y-85013398D01*
X102156930Y-84975857D01*
X102079703Y-84940779D01*
X102001454Y-84908185D01*
X101922255Y-84878092D01*
X101842178Y-84850519D01*
X101761293Y-84825483D01*
X101679673Y-84803005D01*
X101597387Y-84783102D01*
X101514509Y-84765793D01*
X101431108Y-84751096D01*
X101347257Y-84739029D01*
X101263026Y-84729612D01*
X101178486Y-84722863D01*
X101093710Y-84718800D01*
X101008769Y-84717441D01*
X101008769Y-84717407D01*
X100923771Y-84718771D01*
X100838944Y-84722838D01*
X100754359Y-84729591D01*
X100670086Y-84739010D01*
X100586197Y-84751077D01*
X100502763Y-84765774D01*
X100419856Y-84783082D01*
X100337546Y-84802984D01*
X100255905Y-84825460D01*
X100175004Y-84850493D01*
X100094914Y-84878064D01*
X100015706Y-84908155D01*
X99937452Y-84940748D01*
X99860222Y-84975824D01*
X99784089Y-85013364D01*
X99709122Y-85053351D01*
X85571610Y-92886485D01*
X85415638Y-92979944D01*
X85267535Y-93082884D01*
X85127603Y-93194789D01*
X84996145Y-93315148D01*
X84873463Y-93443446D01*
X84759862Y-93579170D01*
X84655642Y-93721805D01*
X84561108Y-93870838D01*
X84476561Y-94025756D01*
X84402305Y-94186045D01*
X84338642Y-94351191D01*
X84285876Y-94520681D01*
X84244308Y-94694000D01*
X84214242Y-94870635D01*
X84195981Y-95050073D01*
X84189826Y-95231800D01*
X84189826Y-110692759D01*
X83946063Y-110692759D01*
X83946063Y-95231800D01*
X83947747Y-95132359D01*
X83952772Y-95033478D01*
X83961097Y-94935227D01*
X83972681Y-94837677D01*
X83987483Y-94740896D01*
X84005461Y-94644954D01*
X84026576Y-94549922D01*
X84050784Y-94455868D01*
X84078047Y-94362862D01*
X84108322Y-94270974D01*
X84141568Y-94180274D01*
X84177745Y-94090831D01*
X84216811Y-94002716D01*
X84258726Y-93915996D01*
X84303448Y-93830744D01*
X84350936Y-93747027D01*
X84401150Y-93664915D01*
X84454047Y-93584480D01*
X84509588Y-93505789D01*
X84567731Y-93428912D01*
X84628434Y-93353921D01*
X84691658Y-93280883D01*
X84757361Y-93209868D01*
X84825501Y-93140947D01*
X84896038Y-93074190D01*
X84968931Y-93009664D01*
X85044139Y-92947441D01*
X85121620Y-92887591D01*
X85201334Y-92830181D01*
X85283239Y-92775284D01*
X85367295Y-92722967D01*
X85453460Y-92673301D01*
X99590973Y-84840166D01*
X99674185Y-84795788D01*
X99758441Y-84754273D01*
X99843673Y-84715621D01*
X99929810Y-84679832D01*
X100016781Y-84646906D01*
X100104518Y-84616842D01*
X100192950Y-84589642D01*
X100282007Y-84565304D01*
X100371618Y-84543830D01*
X100461715Y-84525218D01*
X100552227Y-84509470D01*
X100643084Y-84496585D01*
X100734216Y-84486563D01*
X100825553Y-84479405D01*
X100917026Y-84475110D01*
X101008563Y-84473678D01*
X101100122Y-84475109D01*
G37*
%TD.AperFunction*%
%TA.AperFunction,NonConductor*%
G36*
X100999499Y-100909757D02*
G01*
X101079262Y-100931235D01*
X101239327Y-100973681D01*
X101317759Y-100996430D01*
X101356166Y-101008576D01*
X101393877Y-101021383D01*
X101430777Y-101034965D01*
X101466748Y-101049432D01*
X101501673Y-101064895D01*
X101535436Y-101081465D01*
X102133824Y-101394594D01*
X102728542Y-101711222D01*
X103911535Y-102350499D01*
X103949652Y-102372252D01*
X103985849Y-102395062D01*
X104020120Y-102418873D01*
X104052459Y-102443629D01*
X104082859Y-102469273D01*
X104111316Y-102495748D01*
X104137823Y-102522998D01*
X104162375Y-102550967D01*
X104184965Y-102579597D01*
X104205588Y-102608833D01*
X104224238Y-102638617D01*
X104240909Y-102668894D01*
X104255596Y-102699606D01*
X104268292Y-102730698D01*
X104278991Y-102762112D01*
X104287688Y-102793793D01*
X103894475Y-102793070D01*
X103895885Y-102789783D01*
X103897373Y-102786232D01*
X103898848Y-102782746D01*
X103899552Y-102781130D01*
X103900219Y-102779654D01*
X103894252Y-102728511D01*
X103885579Y-102679450D01*
X103874134Y-102632447D01*
X103859852Y-102587476D01*
X103851627Y-102565745D01*
X103842667Y-102544512D01*
X103832965Y-102523775D01*
X103822512Y-102503530D01*
X103811300Y-102483775D01*
X103799321Y-102464505D01*
X103786566Y-102445718D01*
X103773028Y-102427411D01*
X103758698Y-102409581D01*
X103743568Y-102392223D01*
X103727629Y-102375336D01*
X103710874Y-102358917D01*
X103693293Y-102342961D01*
X103674880Y-102327465D01*
X103655625Y-102312428D01*
X103635520Y-102297845D01*
X103592728Y-102270029D01*
X103546437Y-102243993D01*
X103496583Y-102219713D01*
X103443099Y-102197161D01*
X102264585Y-101736953D01*
X101080965Y-101283298D01*
X101038193Y-101267984D01*
X100995184Y-101254260D01*
X100951992Y-101242116D01*
X100908673Y-101231540D01*
X100821864Y-101215051D01*
X100735192Y-101204705D01*
X100649088Y-101200415D01*
X100563987Y-101202093D01*
X100480320Y-101209653D01*
X100398522Y-101223007D01*
X100319024Y-101242067D01*
X100280274Y-101253710D01*
X100242261Y-101266746D01*
X100205040Y-101281165D01*
X100168666Y-101296956D01*
X100133191Y-101314109D01*
X100098670Y-101332611D01*
X100065158Y-101352453D01*
X100032708Y-101373622D01*
X100001375Y-101396109D01*
X99971212Y-101419903D01*
X99942275Y-101444992D01*
X99914616Y-101471365D01*
X99888291Y-101499013D01*
X99863353Y-101527922D01*
X99531141Y-101935212D01*
X99201873Y-102343692D01*
X98875785Y-102753417D01*
X98553112Y-103164441D01*
X98531640Y-103193590D01*
X98512441Y-103222967D01*
X98495495Y-103252531D01*
X98480786Y-103282238D01*
X98468294Y-103312049D01*
X98458001Y-103341921D01*
X98449889Y-103371813D01*
X98443940Y-103401682D01*
X98440135Y-103431488D01*
X98438457Y-103461188D01*
X98438886Y-103490742D01*
X98441405Y-103520107D01*
X98445995Y-103549241D01*
X98452638Y-103578104D01*
X98461316Y-103606653D01*
X98472010Y-103634847D01*
X98484703Y-103662644D01*
X98499375Y-103690003D01*
X98516009Y-103716882D01*
X98534586Y-103743238D01*
X98555089Y-103769032D01*
X98577497Y-103794220D01*
X98601795Y-103818762D01*
X98627963Y-103842615D01*
X98655982Y-103865738D01*
X98685835Y-103888090D01*
X98717503Y-103909629D01*
X98750969Y-103930312D01*
X98786213Y-103950099D01*
X98823218Y-103968948D01*
X98861965Y-103986817D01*
X98902435Y-104003664D01*
X100070519Y-104459913D01*
X101244793Y-104908241D01*
X101288908Y-104924037D01*
X101333170Y-104938212D01*
X101377527Y-104950776D01*
X101421931Y-104961740D01*
X101466330Y-104971114D01*
X101510675Y-104978909D01*
X101599002Y-104989804D01*
X101686510Y-104994507D01*
X101772798Y-104993104D01*
X101857464Y-104985677D01*
X101899065Y-104979732D01*
X101940109Y-104972312D01*
X101980548Y-104963428D01*
X102020332Y-104953092D01*
X102059409Y-104941312D01*
X102097730Y-104928100D01*
X102135245Y-104913466D01*
X102171903Y-104897421D01*
X102207655Y-104879975D01*
X102242450Y-104861139D01*
X102276239Y-104840923D01*
X102308971Y-104819338D01*
X102340595Y-104796394D01*
X102371063Y-104772101D01*
X102400324Y-104746471D01*
X102428327Y-104719513D01*
X102455022Y-104691238D01*
X102480360Y-104661657D01*
X102480324Y-104661624D01*
X102734884Y-104347119D01*
X102987177Y-104031699D01*
X103487812Y-103399297D01*
X103768504Y-103392027D01*
X104035187Y-103384060D01*
X103584490Y-103799100D01*
X103129455Y-104211834D01*
X102670157Y-104622227D01*
X102206671Y-105030244D01*
X102144241Y-105079516D01*
X102075992Y-105123651D01*
X102002600Y-105162569D01*
X101924742Y-105196189D01*
X101843095Y-105224429D01*
X101758337Y-105247210D01*
X101671144Y-105264449D01*
X101582193Y-105276066D01*
X101492162Y-105281980D01*
X101401727Y-105282110D01*
X101311565Y-105276374D01*
X101222354Y-105264693D01*
X101134770Y-105246985D01*
X101049491Y-105223169D01*
X100967193Y-105193164D01*
X100888554Y-105156889D01*
X100250426Y-104825160D01*
X99616639Y-104489240D01*
X98987405Y-104149128D01*
X98362937Y-103804823D01*
X98327811Y-103784150D01*
X98294568Y-103762338D01*
X98263216Y-103739451D01*
X98233763Y-103715552D01*
X98206217Y-103690703D01*
X98180586Y-103664969D01*
X98156879Y-103638413D01*
X98135103Y-103611096D01*
X98115268Y-103583084D01*
X98097380Y-103554439D01*
X98081449Y-103525223D01*
X98067483Y-103495502D01*
X98055489Y-103465336D01*
X98045476Y-103434791D01*
X98037453Y-103403928D01*
X98031427Y-103372812D01*
X98027406Y-103341504D01*
X98025399Y-103310070D01*
X98025414Y-103278571D01*
X98027460Y-103247071D01*
X98031544Y-103215633D01*
X98037674Y-103184321D01*
X98045860Y-103153197D01*
X98056108Y-103122325D01*
X98068428Y-103091767D01*
X98082827Y-103061588D01*
X98099314Y-103031850D01*
X98117897Y-103002617D01*
X98138583Y-102973951D01*
X98161382Y-102945916D01*
X98186302Y-102918575D01*
X98213350Y-102891992D01*
X98687447Y-102455139D01*
X99166948Y-102021149D01*
X99650435Y-101589314D01*
X100136489Y-101158924D01*
X100172590Y-101128945D01*
X100210552Y-101101061D01*
X100250346Y-101075194D01*
X100291942Y-101051266D01*
X100335311Y-101029198D01*
X100380426Y-101008914D01*
X100427256Y-100990334D01*
X100475774Y-100973380D01*
X100525949Y-100957975D01*
X100577753Y-100944039D01*
X100631157Y-100931496D01*
X100686131Y-100920266D01*
X100742648Y-100910272D01*
X100800678Y-100901435D01*
X100921161Y-100886922D01*
X100999499Y-100909757D01*
G37*
%TD.AperFunction*%
%TA.AperFunction,NonConductor*%
G36*
X108763998Y-88378879D02*
G01*
X108794417Y-88425080D01*
X108829803Y-88470270D01*
X108914543Y-88557894D01*
X109016347Y-88642308D01*
X109133345Y-88724070D01*
X109263667Y-88803739D01*
X109405444Y-88881873D01*
X109715881Y-89035770D01*
X110391924Y-89349715D01*
X110561520Y-89432739D01*
X110727610Y-89518696D01*
X110888324Y-89608143D01*
X111041792Y-89701639D01*
X111153845Y-89760444D01*
X111254185Y-89811371D01*
X111433618Y-89898796D01*
X111607871Y-89982325D01*
X111701737Y-90028383D01*
X111804726Y-90080371D01*
X111822046Y-90093209D01*
X111846223Y-90109494D01*
X111911292Y-90150379D01*
X111992215Y-90198962D01*
X112081278Y-90251181D01*
X112364587Y-90415180D01*
X112386792Y-90458386D01*
X112409347Y-90498442D01*
X112432288Y-90535508D01*
X112455653Y-90569737D01*
X112479481Y-90601289D01*
X112503807Y-90630319D01*
X112528671Y-90656984D01*
X112554110Y-90681442D01*
X112580161Y-90703847D01*
X112606862Y-90724358D01*
X112634251Y-90743131D01*
X112662364Y-90760323D01*
X112720918Y-90790590D01*
X112782825Y-90816412D01*
X112848385Y-90839045D01*
X112917899Y-90859741D01*
X113069995Y-90900338D01*
X113241520Y-90948235D01*
X113335322Y-90978055D01*
X113434884Y-91013462D01*
X113468946Y-91100248D01*
X113502491Y-91175886D01*
X113536314Y-91242599D01*
X113571212Y-91302608D01*
X113607980Y-91358136D01*
X113647414Y-91411404D01*
X113690312Y-91464636D01*
X113737468Y-91520052D01*
X113847741Y-91646329D01*
X113984604Y-91808012D01*
X114064996Y-91907686D01*
X114154424Y-92022878D01*
X114253683Y-92155811D01*
X114363571Y-92308705D01*
X114628135Y-92729213D01*
X114756066Y-92930485D01*
X114878696Y-93120163D01*
X114994223Y-93294044D01*
X115100847Y-93447924D01*
X115196768Y-93577598D01*
X115240152Y-93632045D01*
X115280185Y-93678863D01*
X115312699Y-93736882D01*
X115345134Y-93792099D01*
X115377608Y-93844992D01*
X115410238Y-93896035D01*
X115476441Y-93994478D01*
X115544692Y-94091235D01*
X115691123Y-94294922D01*
X115771196Y-94409466D01*
X115857105Y-94537555D01*
X115941951Y-94719275D01*
X116021677Y-94879905D01*
X116097695Y-95024940D01*
X116171419Y-95159875D01*
X116317633Y-95421419D01*
X116392949Y-95559018D01*
X116471622Y-95708493D01*
X116515125Y-95809469D01*
X116557227Y-95900774D01*
X116640943Y-96072697D01*
X116684412Y-96162484D01*
X116730192Y-96260931D01*
X116779211Y-96372623D01*
X116832397Y-96502142D01*
X117061781Y-97045278D01*
X117220624Y-97413658D01*
X117415992Y-97850459D01*
X117484839Y-97987824D01*
X117544397Y-98104203D01*
X117595495Y-98201671D01*
X117638959Y-98282302D01*
X117675615Y-98348173D01*
X117706292Y-98401358D01*
X117731815Y-98443934D01*
X117753011Y-98477975D01*
X117785733Y-98528757D01*
X117798912Y-98549648D01*
X117811072Y-98570306D01*
X117823041Y-98592808D01*
X117835644Y-98619227D01*
X117849709Y-98651641D01*
X117866063Y-98692123D01*
X117865940Y-98701565D01*
X117866028Y-98710379D01*
X117866313Y-98718605D01*
X117866786Y-98726286D01*
X117867434Y-98733463D01*
X117868245Y-98740179D01*
X117870310Y-98752393D01*
X117872888Y-98763262D01*
X117875884Y-98773121D01*
X117879205Y-98782304D01*
X117882757Y-98791145D01*
X117890176Y-98809142D01*
X117893855Y-98818966D01*
X117897390Y-98829788D01*
X117900685Y-98841940D01*
X117903647Y-98855758D01*
X117906182Y-98871576D01*
X117907260Y-98880339D01*
X117908196Y-98889729D01*
X117892636Y-99106847D01*
X117875237Y-99430349D01*
X117868281Y-99598751D01*
X117863785Y-99753858D01*
X117862722Y-99882372D01*
X117866063Y-99970996D01*
X113943698Y-92367453D01*
X113811778Y-92131695D01*
X113665024Y-91903352D01*
X113503973Y-91682606D01*
X113329158Y-91469636D01*
X112940383Y-91067754D01*
X112502982Y-90699157D01*
X112021239Y-90365293D01*
X111499438Y-90067613D01*
X110941863Y-89807568D01*
X110352796Y-89586606D01*
X109736523Y-89406178D01*
X109097325Y-89267733D01*
X108439488Y-89172722D01*
X107767294Y-89122595D01*
X107085028Y-89118801D01*
X106396972Y-89162790D01*
X105707412Y-89256012D01*
X105020629Y-89399918D01*
X88371328Y-93559199D01*
X84236020Y-94630457D01*
X84229973Y-94610906D01*
X84227456Y-94586737D01*
X84228264Y-94558249D01*
X84232188Y-94525740D01*
X84248565Y-94449858D01*
X84274936Y-94361486D01*
X84309648Y-94263014D01*
X84351053Y-94156838D01*
X84447331Y-93930941D01*
X84647535Y-93491974D01*
X84725043Y-93317191D01*
X84752370Y-93249350D01*
X84769878Y-93197734D01*
X87555665Y-91666604D01*
X92693508Y-90854588D01*
X107241431Y-88512816D01*
X107714078Y-88433927D01*
X107867877Y-88409646D01*
X107998406Y-88393441D01*
X108129474Y-88383786D01*
X108284889Y-88379157D01*
X108488461Y-88378030D01*
X108763998Y-88378879D01*
G37*
%TD.AperFunction*%
%TA.AperFunction,NonConductor*%
G36*
X102020355Y-102088323D02*
G01*
X102050121Y-102089543D01*
X102079325Y-102091568D01*
X102107942Y-102094387D01*
X102135946Y-102097991D01*
X102163314Y-102102367D01*
X102190020Y-102107505D01*
X102216041Y-102113393D01*
X102241351Y-102120020D01*
X102265926Y-102127376D01*
X102289742Y-102135449D01*
X102312773Y-102144228D01*
X102334996Y-102153703D01*
X102356385Y-102163861D01*
X102376916Y-102174693D01*
X102396565Y-102186186D01*
X102415306Y-102198330D01*
X102433116Y-102211114D01*
X102449970Y-102224527D01*
X102465843Y-102238557D01*
X102480710Y-102253194D01*
X102494547Y-102268427D01*
X102507330Y-102284244D01*
X102519033Y-102300634D01*
X102529633Y-102317587D01*
X102539104Y-102335091D01*
X102547422Y-102353135D01*
X102554562Y-102371709D01*
X102560500Y-102390800D01*
X102565212Y-102410399D01*
X102568672Y-102430493D01*
X102570856Y-102451072D01*
X102576521Y-102537765D01*
X102580986Y-102624518D01*
X102588226Y-102798092D01*
X102417669Y-102800293D01*
X102278663Y-102802907D01*
X102208423Y-102621444D01*
X102172769Y-102530812D01*
X102136300Y-102440341D01*
X102118620Y-102401868D01*
X102098200Y-102366093D01*
X102075075Y-102333067D01*
X102049282Y-102302842D01*
X102020855Y-102275470D01*
X101989831Y-102251003D01*
X101956245Y-102229492D01*
X101920134Y-102210990D01*
X101881534Y-102195548D01*
X101840479Y-102183218D01*
X101797006Y-102174052D01*
X101751151Y-102168101D01*
X101702949Y-102165417D01*
X101652436Y-102166053D01*
X101599649Y-102170059D01*
X101544623Y-102177488D01*
X101197606Y-102236538D01*
X100851972Y-102299873D01*
X100507699Y-102366878D01*
X100164765Y-102436936D01*
X100140122Y-102442476D01*
X100116323Y-102448635D01*
X100093378Y-102455399D01*
X100071295Y-102462752D01*
X100050085Y-102470678D01*
X100029756Y-102479163D01*
X100010318Y-102488191D01*
X99991780Y-102497746D01*
X99974153Y-102507813D01*
X99957444Y-102518376D01*
X99941664Y-102529420D01*
X99926822Y-102540929D01*
X99912928Y-102552888D01*
X99899990Y-102565281D01*
X99888019Y-102578093D01*
X99877023Y-102591308D01*
X99867012Y-102604911D01*
X99857995Y-102618887D01*
X99849983Y-102633220D01*
X99842983Y-102647894D01*
X99837007Y-102662893D01*
X99832062Y-102678204D01*
X99828159Y-102693809D01*
X99825306Y-102709694D01*
X99823514Y-102725842D01*
X99822791Y-102742239D01*
X99823148Y-102758869D01*
X99824593Y-102775717D01*
X99827135Y-102792767D01*
X99830785Y-102810003D01*
X99835552Y-102827410D01*
X99841445Y-102844973D01*
X99927576Y-103075393D01*
X100016696Y-103305284D01*
X100108350Y-103534698D01*
X100202085Y-103763686D01*
X100218798Y-103799889D01*
X100237992Y-103833686D01*
X100259645Y-103865013D01*
X100283735Y-103893807D01*
X100310241Y-103920005D01*
X100339139Y-103943546D01*
X100370409Y-103964365D01*
X100404027Y-103982401D01*
X100439972Y-103997590D01*
X100478222Y-104009870D01*
X100518756Y-104019177D01*
X100561550Y-104025450D01*
X100606583Y-104028625D01*
X100653833Y-104028640D01*
X100703277Y-104025432D01*
X100754895Y-104018937D01*
X101119740Y-103958940D01*
X101482809Y-103893177D01*
X101844376Y-103823119D01*
X102204713Y-103750237D01*
X102222310Y-103746367D01*
X102239372Y-103742087D01*
X102255901Y-103737403D01*
X102271901Y-103732321D01*
X102287371Y-103726847D01*
X102302315Y-103720986D01*
X102316734Y-103714746D01*
X102330631Y-103708132D01*
X102344006Y-103701150D01*
X102356863Y-103693806D01*
X102369202Y-103686106D01*
X102381027Y-103678056D01*
X102392338Y-103669662D01*
X102403138Y-103660930D01*
X102413429Y-103651865D01*
X102423212Y-103642475D01*
X102432490Y-103632765D01*
X102441265Y-103622740D01*
X102449537Y-103612408D01*
X102457310Y-103601774D01*
X102464586Y-103590843D01*
X102471365Y-103579622D01*
X102477651Y-103568118D01*
X102483445Y-103556335D01*
X102488748Y-103544280D01*
X102493564Y-103531959D01*
X102497893Y-103519378D01*
X102501738Y-103506543D01*
X102505101Y-103493460D01*
X102507983Y-103480135D01*
X102512314Y-103452782D01*
X102511482Y-103448157D01*
X102510706Y-103443401D01*
X102509279Y-103433581D01*
X102506605Y-103413296D01*
X102506708Y-103413365D01*
X102604943Y-103413020D01*
X102606722Y-103569513D01*
X102607351Y-103647747D01*
X102607006Y-103725955D01*
X102606020Y-103745141D01*
X102603586Y-103763928D01*
X102599737Y-103782303D01*
X102594506Y-103800254D01*
X102587924Y-103817771D01*
X102580023Y-103834841D01*
X102570837Y-103851454D01*
X102560397Y-103867598D01*
X102548736Y-103883261D01*
X102535887Y-103898431D01*
X102506750Y-103927250D01*
X102473246Y-103953962D01*
X102435633Y-103978475D01*
X102394171Y-104000698D01*
X102349118Y-104020538D01*
X102300732Y-104037903D01*
X102249273Y-104052702D01*
X102194999Y-104064842D01*
X102138169Y-104074232D01*
X102079041Y-104080780D01*
X102017875Y-104084393D01*
X101910448Y-104086956D01*
X101802896Y-104087871D01*
X101587685Y-104088073D01*
X101157497Y-104111221D01*
X100775278Y-104111682D01*
X100393085Y-104110878D01*
X100357352Y-104110229D01*
X100322527Y-104108762D01*
X100288622Y-104106479D01*
X100255648Y-104103382D01*
X100223617Y-104099473D01*
X100192539Y-104094753D01*
X100162427Y-104089226D01*
X100133290Y-104082892D01*
X100105142Y-104075755D01*
X100077992Y-104067817D01*
X100051853Y-104059079D01*
X100026736Y-104049543D01*
X100002652Y-104039212D01*
X99979612Y-104028088D01*
X99957628Y-104016172D01*
X99936711Y-104003468D01*
X99916873Y-103989976D01*
X99898124Y-103975700D01*
X99880476Y-103960640D01*
X99863941Y-103944800D01*
X99848530Y-103928182D01*
X99834254Y-103910787D01*
X99821124Y-103892617D01*
X99809152Y-103873675D01*
X99798349Y-103853963D01*
X99788727Y-103833482D01*
X99780296Y-103812236D01*
X99773069Y-103790225D01*
X99767056Y-103767452D01*
X99762269Y-103743920D01*
X99758719Y-103719630D01*
X99756417Y-103694584D01*
X99739788Y-103401103D01*
X99728303Y-103107443D01*
X99721519Y-102813700D01*
X99718994Y-102519967D01*
X99719631Y-102498301D01*
X99721614Y-102477053D01*
X99724922Y-102456238D01*
X99729531Y-102435872D01*
X99735418Y-102415972D01*
X99742560Y-102396552D01*
X99750935Y-102377630D01*
X99760520Y-102359220D01*
X99771290Y-102341339D01*
X99783224Y-102324002D01*
X99796299Y-102307226D01*
X99810491Y-102291026D01*
X99825777Y-102275418D01*
X99842134Y-102260418D01*
X99877972Y-102232306D01*
X99917819Y-102206816D01*
X99961493Y-102184075D01*
X100008808Y-102164211D01*
X100059581Y-102147350D01*
X100113629Y-102133620D01*
X100170767Y-102123146D01*
X100230811Y-102116057D01*
X100293578Y-102112479D01*
X100717534Y-102102030D01*
X101141659Y-102094357D01*
X101565861Y-102089606D01*
X101990050Y-102087921D01*
X102020355Y-102088323D01*
G37*
%TD.AperFunction*%
%TA.AperFunction,NonConductor*%
G36*
X103609090Y-91504556D02*
G01*
X104131665Y-91551881D01*
X104645310Y-91634136D01*
X105146411Y-91750873D01*
X105631355Y-91901646D01*
X106096526Y-92086008D01*
X106538310Y-92303512D01*
X106749303Y-92424552D01*
X106953094Y-92553711D01*
X107149230Y-92690931D01*
X107337262Y-92836158D01*
X107516735Y-92989334D01*
X107687200Y-93150406D01*
X113088825Y-98530946D01*
X112403825Y-98528938D01*
X112065645Y-98530254D01*
X111806893Y-98533148D01*
X105839077Y-93654409D01*
X105480685Y-93389863D01*
X105095057Y-93156565D01*
X104685564Y-92954675D01*
X104255573Y-92784356D01*
X103808453Y-92645767D01*
X103347574Y-92539071D01*
X102876303Y-92464429D01*
X102398008Y-92422001D01*
X101916060Y-92411950D01*
X101433826Y-92434437D01*
X100954674Y-92489622D01*
X100481975Y-92577668D01*
X100019095Y-92698735D01*
X99569404Y-92852984D01*
X99136271Y-93040578D01*
X98723063Y-93261677D01*
X87586897Y-99846380D01*
X87392721Y-99966980D01*
X87209445Y-100092713D01*
X87037113Y-100223279D01*
X86875764Y-100358380D01*
X86725440Y-100497716D01*
X86586182Y-100640988D01*
X86458031Y-100787897D01*
X86341029Y-100938143D01*
X86235217Y-101091427D01*
X86140636Y-101247450D01*
X86057328Y-101405912D01*
X85985333Y-101566514D01*
X85924693Y-101728958D01*
X85875449Y-101892943D01*
X85837643Y-102058170D01*
X85811315Y-102224340D01*
X85796507Y-102391155D01*
X85793261Y-102558313D01*
X85801616Y-102725517D01*
X85821616Y-102892467D01*
X85853300Y-103058864D01*
X85896711Y-103224408D01*
X85951889Y-103388800D01*
X86018876Y-103551742D01*
X86097712Y-103712932D01*
X86188440Y-103872073D01*
X86291100Y-104028865D01*
X86405734Y-104183009D01*
X86532383Y-104334205D01*
X86671088Y-104482155D01*
X86821891Y-104626558D01*
X86984832Y-104767116D01*
X96472063Y-112522310D01*
X96665460Y-112672628D01*
X96865347Y-112813235D01*
X97071619Y-112944167D01*
X97284172Y-113065463D01*
X97502900Y-113177159D01*
X97727700Y-113279293D01*
X97958466Y-113371904D01*
X98195092Y-113455028D01*
X98437475Y-113528703D01*
X98685510Y-113592967D01*
X98939091Y-113647857D01*
X99198114Y-113693411D01*
X99462473Y-113729667D01*
X99732065Y-113756662D01*
X100006784Y-113774433D01*
X100286526Y-113783019D01*
X100523936Y-113777969D01*
X100757087Y-113766683D01*
X100986029Y-113749136D01*
X101210815Y-113725299D01*
X101431494Y-113695148D01*
X101648117Y-113658654D01*
X101860735Y-113615793D01*
X102069399Y-113566536D01*
X102274160Y-113510858D01*
X102475068Y-113448733D01*
X102672174Y-113380132D01*
X102865529Y-113305031D01*
X103055184Y-113223402D01*
X103241190Y-113135218D01*
X103423597Y-113040454D01*
X103602456Y-112939083D01*
X114740205Y-106355688D01*
X114934217Y-106235440D01*
X115117422Y-106110018D01*
X115289773Y-105979721D01*
X115451224Y-105844851D01*
X115601728Y-105705711D01*
X115741239Y-105562600D01*
X115869709Y-105415821D01*
X115987093Y-105265675D01*
X116093343Y-105112463D01*
X116188414Y-104956487D01*
X116272258Y-104798047D01*
X116344828Y-104637445D01*
X116406079Y-104474983D01*
X116455964Y-104310962D01*
X116494436Y-104145683D01*
X116521448Y-103979448D01*
X116536954Y-103812557D01*
X116540908Y-103645313D01*
X116533262Y-103478016D01*
X116513970Y-103310969D01*
X116482986Y-103144471D01*
X116440263Y-102978825D01*
X116385754Y-102814333D01*
X116319412Y-102651294D01*
X116241192Y-102490011D01*
X116151047Y-102330785D01*
X116048929Y-102173918D01*
X115934792Y-102019710D01*
X115808591Y-101868463D01*
X115670277Y-101720478D01*
X115519805Y-101576058D01*
X115357128Y-101435502D01*
X113340018Y-99786463D01*
X113583094Y-99787459D01*
X113887132Y-99787055D01*
X114191145Y-99784948D01*
X114344550Y-99781749D01*
X116870441Y-102297736D01*
X116870444Y-102297770D01*
X116989733Y-102421426D01*
X117101262Y-102546991D01*
X117205062Y-102674611D01*
X117301168Y-102804428D01*
X117389611Y-102936585D01*
X117470423Y-103071226D01*
X117543638Y-103208494D01*
X117609289Y-103348532D01*
X117667407Y-103491485D01*
X117718025Y-103637494D01*
X117761176Y-103786705D01*
X117796892Y-103939259D01*
X117825207Y-104095300D01*
X117846153Y-104254972D01*
X117859761Y-104418417D01*
X117866066Y-104585781D01*
X117847073Y-104810454D01*
X117811734Y-105031511D01*
X117759905Y-105248702D01*
X117691444Y-105461779D01*
X117606207Y-105670494D01*
X117504052Y-105874599D01*
X117384836Y-106073844D01*
X117248415Y-106267982D01*
X117094648Y-106456764D01*
X116923390Y-106639943D01*
X116734499Y-106817269D01*
X116527832Y-106988494D01*
X116303246Y-107153370D01*
X116060598Y-107311649D01*
X115799745Y-107463082D01*
X115520545Y-107607421D01*
X102290738Y-114024721D01*
X102054904Y-114132573D01*
X101814306Y-114230968D01*
X101320668Y-114399620D01*
X100813527Y-114531138D01*
X100296584Y-114625986D01*
X99773543Y-114684627D01*
X99248104Y-114707523D01*
X98723972Y-114695138D01*
X98204848Y-114647935D01*
X97694434Y-114566376D01*
X97196433Y-114450924D01*
X96714547Y-114302044D01*
X96252479Y-114120197D01*
X95813931Y-113905846D01*
X95604634Y-113786627D01*
X95402605Y-113659455D01*
X95208307Y-113524389D01*
X95022203Y-113381487D01*
X94844756Y-113230805D01*
X94676429Y-113072404D01*
X90057846Y-108481233D01*
X85453117Y-103883178D01*
X85297562Y-103718956D01*
X85155604Y-103551466D01*
X85027163Y-103381026D01*
X84912157Y-103207955D01*
X84810503Y-103032571D01*
X84722121Y-102855194D01*
X84646929Y-102676141D01*
X84584846Y-102495733D01*
X84535789Y-102314286D01*
X84499677Y-102132120D01*
X84476428Y-101949553D01*
X84465961Y-101766904D01*
X84468194Y-101584493D01*
X84483046Y-101402636D01*
X84510434Y-101221653D01*
X84550278Y-101041863D01*
X84602495Y-100863584D01*
X84667005Y-100687136D01*
X84743725Y-100512835D01*
X84832573Y-100341002D01*
X84933469Y-100171954D01*
X85046330Y-100006011D01*
X85171075Y-99843491D01*
X85307623Y-99684713D01*
X85455891Y-99529995D01*
X85615798Y-99379656D01*
X85787262Y-99234014D01*
X85970202Y-99093389D01*
X86164537Y-98958099D01*
X86370184Y-98828462D01*
X86587062Y-98704798D01*
X86815089Y-98587424D01*
X96995567Y-93646222D01*
X100004651Y-92188836D01*
X100244318Y-92079205D01*
X100488530Y-91979144D01*
X100988779Y-91807509D01*
X101501785Y-91673485D01*
X102023934Y-91576624D01*
X102551610Y-91516480D01*
X103081201Y-91492606D01*
X103609090Y-91504556D01*
G37*
%TD.AperFunction*%
%TA.AperFunction,NonConductor*%
G36*
X117180003Y-112618821D02*
G01*
X116140998Y-113303031D01*
X115672687Y-113601404D01*
X115222893Y-113873248D01*
X115001282Y-113999837D01*
X114779909Y-114120532D01*
X114557311Y-114235580D01*
X114332024Y-114345225D01*
X114102586Y-114449715D01*
X113867533Y-114549296D01*
X113625400Y-114644213D01*
X113374725Y-114734713D01*
X106921618Y-115777802D01*
X95115214Y-117678687D01*
X94998242Y-117696937D01*
X94892873Y-117711778D01*
X94797440Y-117723573D01*
X94710278Y-117732686D01*
X94629720Y-117739482D01*
X94554101Y-117744323D01*
X94411015Y-117749602D01*
X94110805Y-117752730D01*
X93927025Y-117756403D01*
X93703024Y-117765365D01*
X93645902Y-117698136D01*
X93577891Y-117630806D01*
X93500173Y-117563767D01*
X93413930Y-117497416D01*
X93320343Y-117432144D01*
X93220595Y-117368347D01*
X93115868Y-117306418D01*
X93007343Y-117246751D01*
X92896202Y-117189741D01*
X92783627Y-117135781D01*
X92670799Y-117085265D01*
X92558901Y-117038588D01*
X92449114Y-116996142D01*
X92342620Y-116958324D01*
X92240602Y-116925525D01*
X92144240Y-116898141D01*
X92098697Y-116855581D01*
X92054161Y-116816419D01*
X92010275Y-116780398D01*
X91966685Y-116747261D01*
X91923035Y-116716750D01*
X91878971Y-116688610D01*
X91834137Y-116662582D01*
X91788178Y-116638410D01*
X91740740Y-116615836D01*
X91691467Y-116594604D01*
X91640005Y-116574457D01*
X91585997Y-116555136D01*
X91529089Y-116536386D01*
X91468927Y-116517950D01*
X91337417Y-116480988D01*
X91291014Y-116419954D01*
X91238195Y-116362215D01*
X91179574Y-116307584D01*
X91133344Y-116270121D01*
X91520192Y-116438857D01*
X91993230Y-116611469D01*
X92483655Y-116758155D01*
X92989312Y-116878186D01*
X93508046Y-116970833D01*
X94037703Y-117035366D01*
X94576128Y-117071057D01*
X95121167Y-117077175D01*
X95670663Y-117052993D01*
X96222463Y-116997779D01*
X96774413Y-116910806D01*
X97324356Y-116791344D01*
X113966711Y-112635159D01*
X117780142Y-111594205D01*
X117180003Y-112618821D01*
G37*
%TD.AperFunction*%
%TA.AperFunction,NonConductor*%
G36*
X89691331Y-115368712D02*
G01*
X89782217Y-115430441D01*
X89826813Y-115462138D01*
X89870590Y-115494558D01*
X89913356Y-115527823D01*
X89954919Y-115562061D01*
X89995089Y-115597396D01*
X90033674Y-115633952D01*
X90041903Y-115642426D01*
X89845004Y-115503740D01*
X89640375Y-115335251D01*
X89691331Y-115368712D01*
G37*
%TD.AperFunction*%
%TA.AperFunction,NonConductor*%
G36*
X106690664Y-89890919D02*
G01*
X107177540Y-89939678D01*
X107653920Y-90012954D01*
X108118166Y-90110086D01*
X108568641Y-90230414D01*
X109003709Y-90373279D01*
X109421731Y-90538021D01*
X109821072Y-90723978D01*
X110200094Y-90930490D01*
X110381474Y-91041249D01*
X110557161Y-91156898D01*
X110726949Y-91277357D01*
X110890635Y-91402542D01*
X111048013Y-91532371D01*
X111198879Y-91666761D01*
X111343028Y-91805630D01*
X111480256Y-91948895D01*
X111610358Y-92096473D01*
X111733129Y-92248283D01*
X111848366Y-92404242D01*
X111955862Y-92564266D01*
X116858849Y-100253522D01*
X116858780Y-100253489D01*
X117156085Y-100726092D01*
X117442146Y-101188535D01*
X117729051Y-101650713D01*
X118028891Y-102122523D01*
X118017919Y-103281938D01*
X117916562Y-103155509D01*
X117820677Y-103029190D01*
X117728525Y-102902910D01*
X117638370Y-102776599D01*
X117457108Y-102523602D01*
X117362528Y-102396775D01*
X117262999Y-102269635D01*
X109693749Y-92869287D01*
X109539113Y-92687887D01*
X109373351Y-92513828D01*
X109010443Y-92188170D01*
X108609011Y-91893186D01*
X108173046Y-91629751D01*
X107706537Y-91398737D01*
X107213472Y-91201017D01*
X106697841Y-91037466D01*
X106163632Y-90908957D01*
X105614834Y-90816362D01*
X105055437Y-90760556D01*
X104489430Y-90742411D01*
X103920801Y-90762801D01*
X103353539Y-90822600D01*
X102791634Y-90922680D01*
X102239074Y-91063916D01*
X101699849Y-91247180D01*
X88077105Y-96538152D01*
X87557470Y-96744751D01*
X87296504Y-96846429D01*
X87164843Y-96895607D01*
X87032056Y-96943199D01*
X86710283Y-97064721D01*
X86331500Y-97222741D01*
X85917635Y-97407441D01*
X85490616Y-97609002D01*
X85072371Y-97817608D01*
X84684828Y-98023440D01*
X84349915Y-98216682D01*
X84209048Y-98305512D01*
X84089562Y-98387514D01*
X84095205Y-98356440D01*
X84098803Y-98325820D01*
X84100593Y-98295580D01*
X84100813Y-98265651D01*
X84099701Y-98235958D01*
X84097495Y-98206432D01*
X84090753Y-98147590D01*
X84074611Y-98028735D01*
X84071410Y-97998359D01*
X84069019Y-97967575D01*
X84067675Y-97936310D01*
X84067617Y-97904493D01*
X84073120Y-97619077D01*
X84083769Y-97602354D01*
X84092424Y-97585214D01*
X84099209Y-97567679D01*
X84104246Y-97549772D01*
X84107659Y-97531514D01*
X84109569Y-97512929D01*
X84110101Y-97494038D01*
X84109377Y-97474864D01*
X84107520Y-97455430D01*
X84104653Y-97435757D01*
X84096379Y-97395785D01*
X84085539Y-97355128D01*
X84073116Y-97313964D01*
X84047452Y-97230833D01*
X84036178Y-97189223D01*
X84027252Y-97147821D01*
X84023977Y-97127255D01*
X84021658Y-97106807D01*
X84020418Y-97086502D01*
X84020380Y-97066360D01*
X84021666Y-97046404D01*
X84024399Y-97026657D01*
X84028703Y-97007142D01*
X84034700Y-96987879D01*
X84060947Y-96957612D01*
X84083613Y-96928813D01*
X84102894Y-96901360D01*
X84118986Y-96875136D01*
X84132085Y-96850020D01*
X84142386Y-96825892D01*
X84150087Y-96802633D01*
X84155382Y-96780124D01*
X84158468Y-96758244D01*
X84159541Y-96736874D01*
X84158797Y-96715894D01*
X84156431Y-96695185D01*
X84152639Y-96674628D01*
X84147618Y-96654101D01*
X84134672Y-96612664D01*
X84102645Y-96524902D01*
X84086701Y-96476664D01*
X84072893Y-96424244D01*
X84067279Y-96396167D01*
X84062787Y-96366685D01*
X84059614Y-96335680D01*
X84057953Y-96303031D01*
X84058003Y-96268620D01*
X84059958Y-96232325D01*
X84064015Y-96194028D01*
X84070369Y-96153608D01*
X86019374Y-95595845D01*
X102682057Y-90461580D01*
X103044590Y-90351874D01*
X103408698Y-90247883D01*
X103775550Y-90151852D01*
X104146318Y-90066023D01*
X104522173Y-89992640D01*
X104712374Y-89961316D01*
X104904285Y-89933945D01*
X105098054Y-89910807D01*
X105293827Y-89892182D01*
X105491749Y-89878350D01*
X105691968Y-89869593D01*
X106194927Y-89867338D01*
X106690664Y-89890919D01*
G37*
%TD.AperFunction*%
%TA.AperFunction,NonConductor*%
G36*
X84848510Y-103658177D02*
G01*
X85540687Y-104509147D01*
X89077228Y-108910266D01*
X92631904Y-113304058D01*
X92871567Y-113577980D01*
X93127235Y-113832680D01*
X93398686Y-114068253D01*
X93685694Y-114284796D01*
X93988035Y-114482407D01*
X94305485Y-114661180D01*
X94637820Y-114821214D01*
X94984815Y-114962604D01*
X95346246Y-115085448D01*
X95721890Y-115189842D01*
X96111521Y-115275882D01*
X96514915Y-115343664D01*
X96931849Y-115393287D01*
X97362097Y-115424846D01*
X97805437Y-115438437D01*
X98261642Y-115434158D01*
X98425426Y-115427522D01*
X98587970Y-115417048D01*
X98749274Y-115402824D01*
X98909336Y-115384941D01*
X99068154Y-115363485D01*
X99225728Y-115338545D01*
X99382056Y-115310211D01*
X99537137Y-115278570D01*
X99690970Y-115243710D01*
X99843553Y-115205721D01*
X100144966Y-115120708D01*
X100441365Y-115024237D01*
X100732741Y-114917018D01*
X115910281Y-109014622D01*
X116128579Y-108928671D01*
X116370964Y-108826228D01*
X116498593Y-108767496D01*
X116629131Y-108703051D01*
X116761538Y-108632363D01*
X116894777Y-108554900D01*
X117027809Y-108470133D01*
X117159597Y-108377532D01*
X117289103Y-108276567D01*
X117415288Y-108166706D01*
X117537114Y-108047421D01*
X117653545Y-107918181D01*
X117709412Y-107849662D01*
X117763540Y-107778455D01*
X117815801Y-107704494D01*
X117866063Y-107627714D01*
X117985070Y-110072018D01*
X116251143Y-110619394D01*
X98952310Y-115944934D01*
X98741739Y-116006961D01*
X98529986Y-116063779D01*
X98317068Y-116115338D01*
X98103006Y-116161589D01*
X97887818Y-116202482D01*
X97671523Y-116237968D01*
X97454140Y-116267996D01*
X97235687Y-116292517D01*
X97016183Y-116311483D01*
X96795647Y-116324842D01*
X96574098Y-116332545D01*
X96351554Y-116334543D01*
X96128035Y-116330786D01*
X95903559Y-116321224D01*
X95678145Y-116305808D01*
X95451811Y-116284489D01*
X95021034Y-116230387D01*
X94604788Y-116161855D01*
X94203259Y-116078841D01*
X93816634Y-115981293D01*
X93445101Y-115869159D01*
X93088847Y-115742387D01*
X92748058Y-115600925D01*
X92422923Y-115444721D01*
X92113627Y-115273722D01*
X91820359Y-115087878D01*
X91543305Y-114887135D01*
X91410917Y-114781161D01*
X91282653Y-114671443D01*
X91158536Y-114557974D01*
X91038589Y-114440748D01*
X90922836Y-114319758D01*
X90811301Y-114194998D01*
X90704006Y-114066462D01*
X90600976Y-113934143D01*
X90502233Y-113798034D01*
X90407800Y-113658129D01*
X89142037Y-111698066D01*
X87887798Y-109734313D01*
X85387557Y-105804151D01*
X84771570Y-104843862D01*
X84152746Y-103884450D01*
X84152746Y-102808651D01*
X84848510Y-103658177D01*
G37*
%TD.AperFunction*%
%TA.AperFunction,NonConductor*%
G36*
X89640375Y-115335251D02*
G01*
X89508144Y-115248417D01*
X89505917Y-115243970D01*
X89503802Y-115239467D01*
X89499747Y-115230375D01*
X89497727Y-115225829D01*
X89495660Y-115221310D01*
X89493504Y-115216840D01*
X89491221Y-115212439D01*
X89640375Y-115335251D01*
G37*
%TD.AperFunction*%
%TA.AperFunction,NonConductor*%
G36*
X103163719Y-99857397D02*
G01*
X103238815Y-99860477D01*
X103312876Y-99865912D01*
X103385836Y-99873656D01*
X103457632Y-99883662D01*
X103528199Y-99895885D01*
X103597473Y-99910278D01*
X103665389Y-99926796D01*
X103731883Y-99945393D01*
X103796891Y-99966022D01*
X103860348Y-99988638D01*
X103922190Y-100013194D01*
X103982353Y-100039645D01*
X104040772Y-100067944D01*
X104097382Y-100098046D01*
X104152120Y-100129904D01*
X104204921Y-100163473D01*
X104255721Y-100198706D01*
X104304455Y-100235558D01*
X104351059Y-100273982D01*
X104395468Y-100313933D01*
X104437619Y-100355364D01*
X104477446Y-100398229D01*
X104514886Y-100442483D01*
X104549874Y-100488080D01*
X104582346Y-100534973D01*
X104612236Y-100583116D01*
X104639482Y-100632464D01*
X104664018Y-100682970D01*
X104685781Y-100734589D01*
X104704705Y-100787274D01*
X105365242Y-102796953D01*
X105125950Y-102799637D01*
X105006629Y-102798158D01*
X104425229Y-101753157D01*
X103837276Y-100709987D01*
X103799202Y-100647755D01*
X103757132Y-100588168D01*
X103711099Y-100531318D01*
X103661137Y-100477298D01*
X103607282Y-100426199D01*
X103549566Y-100378112D01*
X103488024Y-100333129D01*
X103422690Y-100291343D01*
X103353598Y-100252845D01*
X103280782Y-100217726D01*
X103204277Y-100186079D01*
X103124116Y-100157994D01*
X103040334Y-100133565D01*
X102952964Y-100112882D01*
X102862041Y-100096038D01*
X102767599Y-100083124D01*
X102661268Y-100073119D01*
X102552129Y-100066983D01*
X102441381Y-100064966D01*
X102330222Y-100067322D01*
X102274863Y-100070220D01*
X102219850Y-100074305D01*
X102165333Y-100079609D01*
X102111462Y-100086165D01*
X102058387Y-100094004D01*
X102006258Y-100103157D01*
X101955223Y-100113656D01*
X101905434Y-100125533D01*
X100860681Y-100397010D01*
X99818965Y-100674337D01*
X97741268Y-101239649D01*
X97668926Y-101260899D01*
X97599024Y-101284269D01*
X97531612Y-101309682D01*
X97466739Y-101337061D01*
X97404453Y-101366329D01*
X97344803Y-101397407D01*
X97287838Y-101430219D01*
X97233607Y-101464687D01*
X97182158Y-101500733D01*
X97133540Y-101538281D01*
X97087802Y-101577253D01*
X97044993Y-101617571D01*
X97005161Y-101659159D01*
X96968356Y-101701938D01*
X96934625Y-101745831D01*
X96904018Y-101790761D01*
X96876584Y-101836651D01*
X96852371Y-101883422D01*
X96831428Y-101930998D01*
X96813803Y-101979301D01*
X96799547Y-102028255D01*
X96788706Y-102077780D01*
X96781331Y-102127800D01*
X96777470Y-102178238D01*
X96777171Y-102229017D01*
X96780484Y-102280057D01*
X96787457Y-102331284D01*
X96798139Y-102382618D01*
X96812578Y-102433982D01*
X96830824Y-102485300D01*
X96852925Y-102536493D01*
X96878930Y-102587485D01*
X97683337Y-104037841D01*
X98497805Y-105485437D01*
X98544825Y-105560250D01*
X98598826Y-105631190D01*
X98659487Y-105698173D01*
X98726484Y-105761110D01*
X98799497Y-105819917D01*
X98878202Y-105874505D01*
X98962279Y-105924791D01*
X99051405Y-105970685D01*
X99145259Y-106012104D01*
X99243518Y-106048959D01*
X99345860Y-106081165D01*
X99451963Y-106108636D01*
X99561506Y-106131284D01*
X99674167Y-106149024D01*
X99789623Y-106161770D01*
X99907552Y-106169434D01*
X100073440Y-106139160D01*
X100239832Y-106109834D01*
X100322617Y-106094412D01*
X100404806Y-106077890D01*
X100486160Y-106059821D01*
X100566439Y-106039761D01*
X102570842Y-105503718D01*
X104571867Y-104961486D01*
X104645153Y-104940087D01*
X104716032Y-104916638D01*
X104784452Y-104891214D01*
X104850359Y-104863887D01*
X104913703Y-104834731D01*
X104974430Y-104803820D01*
X105032489Y-104771225D01*
X105087828Y-104737022D01*
X105140393Y-104701283D01*
X105190133Y-104664081D01*
X105236995Y-104625490D01*
X105280928Y-104585583D01*
X105321878Y-104544433D01*
X105359795Y-104502114D01*
X105394624Y-104458699D01*
X105426315Y-104414262D01*
X105454815Y-104368875D01*
X105480072Y-104322612D01*
X105502033Y-104275546D01*
X105520646Y-104227751D01*
X105535859Y-104179300D01*
X105547620Y-104130266D01*
X105555876Y-104080722D01*
X105560576Y-104030743D01*
X105561666Y-103980401D01*
X105559095Y-103929769D01*
X105552810Y-103878921D01*
X105542760Y-103827930D01*
X105528891Y-103776869D01*
X105511152Y-103725813D01*
X105489490Y-103674833D01*
X105463854Y-103624004D01*
X105362284Y-103440192D01*
X105467362Y-103440993D01*
X105576981Y-103441122D01*
X105576951Y-103441154D01*
X105788140Y-104083635D01*
X105807322Y-104148361D01*
X105822028Y-104212614D01*
X105832319Y-104276323D01*
X105838256Y-104339414D01*
X105839900Y-104401813D01*
X105837311Y-104463449D01*
X105830551Y-104524247D01*
X105819681Y-104584135D01*
X105804761Y-104643040D01*
X105785853Y-104700888D01*
X105763018Y-104757607D01*
X105736316Y-104813124D01*
X105705808Y-104867365D01*
X105671556Y-104920257D01*
X105633621Y-104971728D01*
X105592062Y-105021704D01*
X105546942Y-105070112D01*
X105498322Y-105116879D01*
X105446261Y-105161933D01*
X105390822Y-105205199D01*
X105332065Y-105246606D01*
X105270051Y-105286080D01*
X105204841Y-105323547D01*
X105136496Y-105358935D01*
X105065077Y-105392171D01*
X104990645Y-105423182D01*
X104913261Y-105451895D01*
X104832986Y-105478236D01*
X104749881Y-105502132D01*
X104664006Y-105523511D01*
X104575424Y-105542300D01*
X104484194Y-105558425D01*
X99691170Y-106313756D01*
X99641817Y-106320832D01*
X99592122Y-106326819D01*
X99542160Y-106331961D01*
X99492010Y-106336501D01*
X99291043Y-106353518D01*
X99218127Y-106351599D01*
X99145932Y-106347762D01*
X99074527Y-106342030D01*
X99003979Y-106334429D01*
X98934358Y-106324985D01*
X98865733Y-106313721D01*
X98798171Y-106300664D01*
X98731742Y-106285838D01*
X98666515Y-106269268D01*
X98602557Y-106250978D01*
X98539938Y-106230995D01*
X98478726Y-106209343D01*
X98418990Y-106186047D01*
X98360798Y-106161131D01*
X98304219Y-106134622D01*
X98249322Y-106106544D01*
X98196176Y-106076921D01*
X98144848Y-106045779D01*
X98095408Y-106013144D01*
X98047925Y-105979039D01*
X98002466Y-105943490D01*
X97959101Y-105906522D01*
X97917898Y-105868159D01*
X97878925Y-105828428D01*
X97842253Y-105787352D01*
X97807948Y-105744957D01*
X97776080Y-105701268D01*
X97746718Y-105656310D01*
X97719929Y-105610107D01*
X97695783Y-105562685D01*
X97674348Y-105514069D01*
X97655694Y-105464284D01*
X97364423Y-104604885D01*
X97079245Y-103744448D01*
X96801098Y-102882890D01*
X96530915Y-102020125D01*
X96514804Y-101960940D01*
X96502977Y-101902118D01*
X96495364Y-101843728D01*
X96491897Y-101785839D01*
X96492505Y-101728523D01*
X96497119Y-101671847D01*
X96505669Y-101615882D01*
X96518085Y-101560698D01*
X96534297Y-101506364D01*
X96554236Y-101452949D01*
X96577832Y-101400525D01*
X96605015Y-101349160D01*
X96635716Y-101298924D01*
X96669865Y-101249888D01*
X96707392Y-101202119D01*
X96748228Y-101155689D01*
X96792302Y-101110667D01*
X96839545Y-101067122D01*
X96889888Y-101025125D01*
X96943260Y-100984745D01*
X96999591Y-100946051D01*
X97058813Y-100909114D01*
X97120856Y-100874003D01*
X97185649Y-100840789D01*
X97323208Y-100780325D01*
X97470934Y-100728282D01*
X97628267Y-100685217D01*
X97794652Y-100651687D01*
X99757889Y-100333292D01*
X101724685Y-100025578D01*
X102365437Y-99923406D01*
X102526294Y-99901196D01*
X102687444Y-99882309D01*
X102848901Y-99867740D01*
X103010677Y-99858484D01*
X103087652Y-99856717D01*
X103163719Y-99857397D01*
G37*
%TD.AperFunction*%
%TA.AperFunction,NonConductor*%
G36*
X99723085Y-95057715D02*
G01*
X99914079Y-95067402D01*
X100103128Y-95084046D01*
X100290262Y-95107554D01*
X100475512Y-95137830D01*
X100658908Y-95174779D01*
X100840480Y-95218306D01*
X101020258Y-95268316D01*
X101198273Y-95324713D01*
X101374554Y-95387403D01*
X101549131Y-95456291D01*
X101722036Y-95531282D01*
X109388969Y-99003231D01*
X110739899Y-99614617D01*
X110431059Y-99920911D01*
X110349447Y-99869340D01*
X110265559Y-99818989D01*
X110179240Y-99769995D01*
X110090337Y-99722495D01*
X109998695Y-99676624D01*
X109904159Y-99632520D01*
X109806575Y-99590320D01*
X109705789Y-99550159D01*
X105207880Y-97849423D01*
X100790114Y-96185112D01*
X100629705Y-96128613D01*
X100467339Y-96078203D01*
X100303301Y-96033827D01*
X100137874Y-95995432D01*
X99803983Y-95936369D01*
X99467932Y-95900580D01*
X99131984Y-95887635D01*
X98798405Y-95897099D01*
X98469459Y-95928543D01*
X98147410Y-95981532D01*
X97834524Y-96055635D01*
X97533064Y-96150420D01*
X97387327Y-96205433D01*
X97245297Y-96265455D01*
X97107255Y-96330430D01*
X96973485Y-96400306D01*
X96844270Y-96475029D01*
X96719894Y-96554543D01*
X96600639Y-96638796D01*
X96486789Y-96727733D01*
X96378626Y-96821301D01*
X96276434Y-96919444D01*
X96180495Y-97022110D01*
X96091093Y-97129243D01*
X93644471Y-100250601D01*
X91210773Y-103376936D01*
X91130045Y-103487472D01*
X91058149Y-103599433D01*
X90995000Y-103712621D01*
X90940513Y-103826835D01*
X90894602Y-103941875D01*
X90857184Y-104057542D01*
X90828173Y-104173636D01*
X90807484Y-104289957D01*
X90795033Y-104406305D01*
X90790735Y-104522481D01*
X90794504Y-104638284D01*
X90806256Y-104753516D01*
X90825906Y-104867976D01*
X90853370Y-104981464D01*
X90888562Y-105093781D01*
X90931397Y-105204727D01*
X90981791Y-105314102D01*
X91039658Y-105421707D01*
X91104914Y-105527341D01*
X91177475Y-105630804D01*
X91257254Y-105731898D01*
X91344168Y-105830422D01*
X91438131Y-105926176D01*
X91539059Y-106018961D01*
X91646866Y-106108577D01*
X91761468Y-106194824D01*
X91882780Y-106277502D01*
X92010717Y-106356412D01*
X92145194Y-106431353D01*
X92286127Y-106502127D01*
X92433430Y-106568532D01*
X92587018Y-106630370D01*
X101565844Y-110019389D01*
X101661214Y-110054099D01*
X101757425Y-110086670D01*
X101854483Y-110117087D01*
X101952392Y-110145337D01*
X102051159Y-110171404D01*
X102150788Y-110195274D01*
X102251286Y-110216932D01*
X102352658Y-110236364D01*
X102454909Y-110253556D01*
X102558046Y-110268492D01*
X102662073Y-110281158D01*
X102766996Y-110291540D01*
X102872820Y-110299623D01*
X102979552Y-110305393D01*
X103087197Y-110308834D01*
X103195760Y-110309933D01*
X103445595Y-110299314D01*
X103688427Y-110280032D01*
X103924105Y-110251975D01*
X104152475Y-110215029D01*
X104373386Y-110169082D01*
X104586687Y-110114018D01*
X104792226Y-110049726D01*
X104989851Y-109976092D01*
X105179409Y-109893002D01*
X105360750Y-109800342D01*
X105533721Y-109698000D01*
X105698171Y-109585862D01*
X105853948Y-109463815D01*
X106000899Y-109331744D01*
X106138874Y-109189538D01*
X106267720Y-109037082D01*
X108692063Y-105945404D01*
X111103945Y-102848928D01*
X111160865Y-102772846D01*
X111213737Y-102696250D01*
X111262584Y-102619194D01*
X111307432Y-102541732D01*
X111348304Y-102463916D01*
X111385225Y-102385802D01*
X111418220Y-102307441D01*
X111447312Y-102228889D01*
X111472526Y-102150197D01*
X111493887Y-102071421D01*
X111511419Y-101992614D01*
X111525146Y-101913828D01*
X111535092Y-101835119D01*
X111541282Y-101756539D01*
X111543741Y-101678142D01*
X111542493Y-101599981D01*
X111537561Y-101522111D01*
X111528971Y-101444585D01*
X111516747Y-101367456D01*
X111500913Y-101290778D01*
X111481494Y-101214604D01*
X111458513Y-101138989D01*
X111431996Y-101063985D01*
X111401967Y-100989647D01*
X111368450Y-100916028D01*
X111331469Y-100843182D01*
X111291049Y-100771161D01*
X111247214Y-100700021D01*
X111199989Y-100629814D01*
X111149398Y-100560593D01*
X111095465Y-100492414D01*
X111038214Y-100425328D01*
X111254512Y-100207831D01*
X111470192Y-99989740D01*
X111470125Y-99989667D01*
X111597340Y-100073022D01*
X111718120Y-100159472D01*
X111832414Y-100248861D01*
X111940173Y-100341035D01*
X112041347Y-100435840D01*
X112135885Y-100533122D01*
X112223738Y-100632725D01*
X112304856Y-100734496D01*
X112379189Y-100838279D01*
X112446686Y-100943922D01*
X112507297Y-101051268D01*
X112560974Y-101160164D01*
X112607665Y-101270455D01*
X112647321Y-101381986D01*
X112679891Y-101494604D01*
X112705326Y-101608154D01*
X112723576Y-101722481D01*
X112734590Y-101837431D01*
X112738320Y-101952850D01*
X112734713Y-102068582D01*
X112723722Y-102184474D01*
X112705295Y-102300371D01*
X112679383Y-102416118D01*
X112645935Y-102531562D01*
X112604902Y-102646547D01*
X112556234Y-102760920D01*
X112499880Y-102874525D01*
X112435791Y-102987209D01*
X112363917Y-103098817D01*
X112284208Y-103209194D01*
X112196613Y-103318186D01*
X112101082Y-103425638D01*
X109060022Y-106678323D01*
X106009958Y-109926830D01*
X105864408Y-110072293D01*
X105711124Y-110207899D01*
X105550417Y-110333776D01*
X105382597Y-110450051D01*
X105207974Y-110556853D01*
X105026861Y-110654309D01*
X104839566Y-110742548D01*
X104646401Y-110821697D01*
X104447677Y-110891883D01*
X104243703Y-110953236D01*
X104034791Y-111005882D01*
X103821251Y-111049950D01*
X103603394Y-111085568D01*
X103381531Y-111112863D01*
X103155972Y-111131963D01*
X102927027Y-111142996D01*
X102755858Y-111139768D01*
X102589163Y-111132744D01*
X102426724Y-111121965D01*
X102268326Y-111107475D01*
X102113750Y-111089315D01*
X101962781Y-111067529D01*
X101815202Y-111042159D01*
X101670796Y-111013246D01*
X101529346Y-110980835D01*
X101390635Y-110944965D01*
X101254447Y-110905682D01*
X101120565Y-110863026D01*
X100988772Y-110817040D01*
X100858851Y-110767767D01*
X100730586Y-110715249D01*
X100603760Y-110659528D01*
X92535116Y-107006452D01*
X91912272Y-106725493D01*
X91601538Y-106584261D01*
X91292291Y-106441466D01*
X91133804Y-106363509D01*
X90982630Y-106281081D01*
X90838842Y-106194401D01*
X90702511Y-106103684D01*
X90573709Y-106009148D01*
X90452508Y-105911009D01*
X90338980Y-105809486D01*
X90233196Y-105704796D01*
X90135228Y-105597154D01*
X90045147Y-105486779D01*
X89963026Y-105373888D01*
X89888936Y-105258697D01*
X89822950Y-105141424D01*
X89765137Y-105022286D01*
X89715572Y-104901500D01*
X89674324Y-104779283D01*
X89641467Y-104655852D01*
X89617071Y-104531424D01*
X89601208Y-104406217D01*
X89593951Y-104280448D01*
X89595371Y-104154333D01*
X89605539Y-104028090D01*
X89624527Y-103901937D01*
X89652408Y-103776089D01*
X89689253Y-103650764D01*
X89735133Y-103526179D01*
X89790120Y-103402552D01*
X89854287Y-103280100D01*
X89927704Y-103159039D01*
X90010444Y-103039586D01*
X90102579Y-102921960D01*
X90204179Y-102806376D01*
X93267451Y-99523785D01*
X96344008Y-96247333D01*
X96453692Y-96136436D01*
X96568968Y-96030989D01*
X96689779Y-95930976D01*
X96816066Y-95836377D01*
X96947773Y-95747175D01*
X97084843Y-95663352D01*
X97227218Y-95584890D01*
X97374841Y-95511770D01*
X97527655Y-95443975D01*
X97685603Y-95381486D01*
X97848627Y-95324286D01*
X98016670Y-95272357D01*
X98189675Y-95225680D01*
X98367584Y-95184237D01*
X98550341Y-95148011D01*
X98737889Y-95116983D01*
X98939059Y-95090452D01*
X99138133Y-95071355D01*
X99335142Y-95059597D01*
X99530116Y-95055082D01*
X99723085Y-95057715D01*
G37*
%TD.AperFunction*%
%TA.AperFunction,NonConductor*%
G36*
X100510621Y-101517090D02*
G01*
X100592842Y-101523689D01*
X100676636Y-101535977D01*
X100761705Y-101554065D01*
X101839463Y-101823685D01*
X102913610Y-102100374D01*
X102976465Y-102118457D01*
X103035597Y-102138988D01*
X103090952Y-102161932D01*
X103117196Y-102174297D01*
X103142475Y-102187252D01*
X103166782Y-102200791D01*
X103190111Y-102214910D01*
X103212456Y-102229604D01*
X103233808Y-102244870D01*
X103254161Y-102260702D01*
X103273510Y-102277095D01*
X103291845Y-102294045D01*
X103309162Y-102311548D01*
X103325453Y-102329598D01*
X103340712Y-102348192D01*
X103354931Y-102367324D01*
X103368103Y-102386990D01*
X103380223Y-102407185D01*
X103391283Y-102427905D01*
X103401277Y-102449146D01*
X103410197Y-102470901D01*
X103418037Y-102493168D01*
X103424790Y-102515941D01*
X103430449Y-102539216D01*
X103435008Y-102562987D01*
X103438459Y-102587252D01*
X103440797Y-102612004D01*
X103442013Y-102637239D01*
X103442102Y-102662953D01*
X103421956Y-102718785D01*
X103408748Y-102754689D01*
X103401411Y-102773827D01*
X103393604Y-102793449D01*
X102957328Y-102795170D01*
X102979427Y-102713140D01*
X103001320Y-102632889D01*
X103001485Y-102604030D01*
X103000427Y-102575866D01*
X102998163Y-102548403D01*
X102994706Y-102521647D01*
X102990071Y-102495603D01*
X102984274Y-102470276D01*
X102977330Y-102445673D01*
X102969253Y-102421798D01*
X102960057Y-102398658D01*
X102949759Y-102376258D01*
X102938373Y-102354603D01*
X102925913Y-102333699D01*
X102912394Y-102313552D01*
X102897832Y-102294167D01*
X102882242Y-102275549D01*
X102865637Y-102257705D01*
X102848033Y-102240640D01*
X102829446Y-102224359D01*
X102809889Y-102208868D01*
X102789377Y-102194173D01*
X102767926Y-102180279D01*
X102745550Y-102167191D01*
X102722265Y-102154916D01*
X102698084Y-102143458D01*
X102673023Y-102132824D01*
X102647097Y-102123018D01*
X102592709Y-102105916D01*
X102535038Y-102092197D01*
X102474203Y-102081904D01*
X101467373Y-101948719D01*
X100962876Y-101886208D01*
X100457678Y-101826756D01*
X100424024Y-101823441D01*
X100390680Y-101821225D01*
X100357680Y-101820092D01*
X100325061Y-101820026D01*
X100292858Y-101821012D01*
X100261105Y-101823032D01*
X100229839Y-101826072D01*
X100199094Y-101830115D01*
X100168907Y-101835146D01*
X100139312Y-101841147D01*
X100110344Y-101848105D01*
X100082040Y-101856001D01*
X100054434Y-101864822D01*
X100027561Y-101874549D01*
X100001458Y-101885169D01*
X99976159Y-101896664D01*
X99951699Y-101909019D01*
X99928115Y-101922218D01*
X99905441Y-101936245D01*
X99883713Y-101951084D01*
X99862966Y-101966718D01*
X99843235Y-101983133D01*
X99824556Y-102000312D01*
X99806964Y-102018238D01*
X99790494Y-102036897D01*
X99775182Y-102056273D01*
X99761064Y-102076348D01*
X99748173Y-102097108D01*
X99736547Y-102118537D01*
X99726219Y-102140617D01*
X99717226Y-102163335D01*
X99709603Y-102186673D01*
X99609978Y-102535326D01*
X99515422Y-102884727D01*
X99426180Y-103234812D01*
X99342498Y-103585516D01*
X99337488Y-103610829D01*
X99334180Y-103635762D01*
X99332546Y-103660297D01*
X99332560Y-103684418D01*
X99334198Y-103708106D01*
X99337431Y-103731343D01*
X99342234Y-103754113D01*
X99348582Y-103776397D01*
X99356447Y-103798179D01*
X99365803Y-103819440D01*
X99376624Y-103840163D01*
X99388885Y-103860331D01*
X99402558Y-103879925D01*
X99417619Y-103898929D01*
X99434039Y-103917324D01*
X99451794Y-103935094D01*
X99470857Y-103952220D01*
X99491202Y-103968685D01*
X99512803Y-103984472D01*
X99535633Y-103999562D01*
X99584876Y-104027585D01*
X99638724Y-104052612D01*
X99696966Y-104074503D01*
X99759392Y-104093119D01*
X99825793Y-104108317D01*
X99895960Y-104119958D01*
X100528113Y-104203924D01*
X101160937Y-104285334D01*
X101524427Y-104331725D01*
X101706535Y-104353273D01*
X101889130Y-104372286D01*
X101918767Y-104374660D01*
X101948402Y-104376147D01*
X101977987Y-104376759D01*
X102007474Y-104376506D01*
X102036814Y-104375401D01*
X102065961Y-104373454D01*
X102094865Y-104370677D01*
X102123477Y-104367082D01*
X102151751Y-104362680D01*
X102179638Y-104357482D01*
X102207090Y-104351500D01*
X102234058Y-104344745D01*
X102260494Y-104337229D01*
X102286350Y-104328963D01*
X102311578Y-104319959D01*
X102336129Y-104310227D01*
X102359957Y-104299779D01*
X102383011Y-104288628D01*
X102405244Y-104276784D01*
X102426609Y-104264258D01*
X102447056Y-104251062D01*
X102466538Y-104237208D01*
X102485006Y-104222706D01*
X102502412Y-104207569D01*
X102518708Y-104191808D01*
X102533845Y-104175434D01*
X102547776Y-104158458D01*
X102560453Y-104140893D01*
X102571827Y-104122749D01*
X102581850Y-104104037D01*
X102590473Y-104084770D01*
X102597649Y-104064959D01*
X102597653Y-104065027D01*
X102649026Y-103900537D01*
X102697938Y-103736508D01*
X102744768Y-103573427D01*
X102789891Y-103411781D01*
X102934355Y-103410028D01*
X103080675Y-103407757D01*
X102858804Y-103837259D01*
X102635385Y-104266347D01*
X102597863Y-104330346D01*
X102555355Y-104389113D01*
X102508025Y-104442591D01*
X102456039Y-104490720D01*
X102399563Y-104533441D01*
X102338761Y-104570696D01*
X102273798Y-104602425D01*
X102204839Y-104628570D01*
X102132050Y-104649072D01*
X102055596Y-104663872D01*
X101975642Y-104672911D01*
X101892353Y-104676131D01*
X101805893Y-104673472D01*
X101716429Y-104664876D01*
X101624125Y-104650284D01*
X101529146Y-104629636D01*
X100506751Y-104376002D01*
X99487272Y-104116691D01*
X99438804Y-104103472D01*
X99392379Y-104089423D01*
X99348002Y-104074555D01*
X99305678Y-104058876D01*
X99265409Y-104042396D01*
X99227202Y-104025125D01*
X99191060Y-104007071D01*
X99156987Y-103988244D01*
X99124989Y-103968655D01*
X99095069Y-103948311D01*
X99067232Y-103927222D01*
X99041482Y-103905398D01*
X99017823Y-103882849D01*
X98996261Y-103859582D01*
X98976799Y-103835609D01*
X98959441Y-103810939D01*
X98944193Y-103785580D01*
X98931058Y-103759542D01*
X98920041Y-103732834D01*
X98911146Y-103705467D01*
X98904378Y-103677449D01*
X98899741Y-103648789D01*
X98897239Y-103619498D01*
X98896878Y-103589584D01*
X98898660Y-103559058D01*
X98902591Y-103527927D01*
X98908674Y-103496202D01*
X98916915Y-103463893D01*
X98927318Y-103431008D01*
X98939887Y-103397556D01*
X98954626Y-103363548D01*
X98971541Y-103328993D01*
X99343466Y-102613384D01*
X99720783Y-101899193D01*
X99737381Y-101869971D01*
X99755379Y-101841801D01*
X99795430Y-101788674D01*
X99840637Y-101739921D01*
X99890702Y-101695651D01*
X99945326Y-101655976D01*
X100004211Y-101621003D01*
X100067058Y-101590843D01*
X100133568Y-101565605D01*
X100203443Y-101545400D01*
X100276385Y-101530336D01*
X100352094Y-101520523D01*
X100430272Y-101516071D01*
X100510621Y-101517090D01*
G37*
%TD.AperFunction*%
%TA.AperFunction,NonConductor*%
G36*
X101614478Y-86984437D02*
G01*
X106497828Y-87159099D01*
X106548781Y-87200922D01*
X106607079Y-87245720D01*
X106742291Y-87341665D01*
X106896623Y-87441780D01*
X107063235Y-87540910D01*
X107149009Y-87588494D01*
X107235287Y-87633900D01*
X107321216Y-87676481D01*
X107405939Y-87715595D01*
X107488603Y-87750597D01*
X107568351Y-87780842D01*
X107644329Y-87805687D01*
X107715683Y-87824486D01*
X107751903Y-87851422D01*
X107780995Y-87874936D01*
X107804098Y-87895376D01*
X107822352Y-87913091D01*
X107869670Y-87963677D01*
X107880774Y-87972999D01*
X107893868Y-87981689D01*
X107910091Y-87990095D01*
X107930584Y-87998566D01*
X107956485Y-88007452D01*
X107988935Y-88017100D01*
X108029073Y-88027859D01*
X108078040Y-88040079D01*
X106196210Y-88149698D01*
X102433513Y-88366495D01*
X99289974Y-88547555D01*
X95479775Y-88769580D01*
X92248563Y-88983384D01*
X96272256Y-86793093D01*
X101614478Y-86984437D01*
G37*
%TD.AperFunction*%
%TA.AperFunction,NonConductor*%
G36*
X101322975Y-93202907D02*
G01*
X101547857Y-93215149D01*
X101769535Y-93234470D01*
X101987933Y-93260884D01*
X102202979Y-93294402D01*
X102414596Y-93335037D01*
X102622712Y-93382800D01*
X102827251Y-93437703D01*
X103028139Y-93499760D01*
X103225303Y-93568982D01*
X103418667Y-93645381D01*
X103608158Y-93728970D01*
X103793701Y-93819761D01*
X103975222Y-93917766D01*
X104152646Y-94022997D01*
X104325899Y-94135466D01*
X110720118Y-98476770D01*
X111415327Y-98948063D01*
X111342069Y-99018648D01*
X111305544Y-99054045D01*
X111269249Y-99089671D01*
X111204492Y-99153490D01*
X111140003Y-99217584D01*
X111011039Y-99345782D01*
X102567756Y-94811001D01*
X102396406Y-94724341D01*
X102220656Y-94644807D01*
X101857449Y-94506950D01*
X101481124Y-94397094D01*
X101094671Y-94314901D01*
X100701082Y-94260035D01*
X100303346Y-94232160D01*
X99904454Y-94230938D01*
X99507396Y-94256033D01*
X99115164Y-94307107D01*
X98730746Y-94383825D01*
X98357134Y-94485849D01*
X97997318Y-94612842D01*
X97654289Y-94764469D01*
X97331037Y-94940391D01*
X97177761Y-95037358D01*
X97030552Y-95140272D01*
X96889781Y-95249093D01*
X96755824Y-95363777D01*
X89342113Y-102030514D01*
X89209298Y-102155491D01*
X89086720Y-102282988D01*
X88974353Y-102412781D01*
X88872170Y-102544642D01*
X88780146Y-102678346D01*
X88698255Y-102813667D01*
X88626469Y-102950379D01*
X88564764Y-103088257D01*
X88513112Y-103227074D01*
X88471487Y-103366604D01*
X88439863Y-103506622D01*
X88418215Y-103646902D01*
X88406515Y-103787218D01*
X88404738Y-103927343D01*
X88412857Y-104067052D01*
X88430847Y-104206120D01*
X88458680Y-104344319D01*
X88496331Y-104481425D01*
X88543773Y-104617211D01*
X88600981Y-104751452D01*
X88667928Y-104883921D01*
X88744588Y-105014393D01*
X88830934Y-105142642D01*
X88926941Y-105268442D01*
X89032582Y-105391566D01*
X89147831Y-105511790D01*
X89272662Y-105628887D01*
X89407048Y-105742631D01*
X89550964Y-105852797D01*
X89704383Y-105959158D01*
X89867279Y-106061488D01*
X90039626Y-106159563D01*
X99757755Y-111380334D01*
X99897684Y-111452143D01*
X100040338Y-111519069D01*
X100185912Y-111581151D01*
X100334601Y-111638428D01*
X100486601Y-111690938D01*
X100642107Y-111738720D01*
X100801315Y-111781811D01*
X100964421Y-111820251D01*
X101131619Y-111854078D01*
X101303106Y-111883330D01*
X101479077Y-111908046D01*
X101659726Y-111928264D01*
X101845251Y-111944022D01*
X102035846Y-111955360D01*
X102231707Y-111962315D01*
X102433029Y-111964926D01*
X102655994Y-111956680D01*
X102876881Y-111940311D01*
X103095394Y-111915756D01*
X103311235Y-111882954D01*
X103524104Y-111841843D01*
X103733706Y-111792361D01*
X103939741Y-111734445D01*
X104141913Y-111668035D01*
X104339922Y-111593068D01*
X104533472Y-111509482D01*
X104722265Y-111417215D01*
X104906003Y-111316205D01*
X105084387Y-111206391D01*
X105257121Y-111087710D01*
X105423906Y-110960101D01*
X105584445Y-110823501D01*
X113015008Y-104144654D01*
X113145821Y-104021154D01*
X113266445Y-103895015D01*
X113376912Y-103766471D01*
X113477255Y-103635754D01*
X113567504Y-103503099D01*
X113647693Y-103368738D01*
X113717853Y-103232904D01*
X113778015Y-103095832D01*
X113828212Y-102957755D01*
X113868476Y-102818905D01*
X113898838Y-102679517D01*
X113919330Y-102539823D01*
X113929985Y-102400056D01*
X113930834Y-102260451D01*
X113921909Y-102121240D01*
X113903242Y-101982657D01*
X113874864Y-101844935D01*
X113836809Y-101708307D01*
X113789107Y-101573008D01*
X113731790Y-101439269D01*
X113664891Y-101307324D01*
X113588440Y-101177407D01*
X113502471Y-101049752D01*
X113407016Y-100924590D01*
X113302104Y-100802156D01*
X113187770Y-100682684D01*
X113064045Y-100566405D01*
X112930960Y-100453554D01*
X112788547Y-100344365D01*
X112636839Y-100239069D01*
X112475867Y-100137901D01*
X112305663Y-100041094D01*
X111788076Y-99763107D01*
X111933618Y-99765029D01*
X112079190Y-99766125D01*
X112370330Y-99766925D01*
X112497728Y-99767471D01*
X112625409Y-99768404D01*
X114005578Y-100704073D01*
X114005575Y-100704075D01*
X114171369Y-100821581D01*
X114326869Y-100943559D01*
X114472057Y-101069718D01*
X114606920Y-101199769D01*
X114731440Y-101333419D01*
X114845603Y-101470380D01*
X114949392Y-101610361D01*
X115042792Y-101753070D01*
X115125786Y-101898218D01*
X115198360Y-102045514D01*
X115260497Y-102194668D01*
X115312182Y-102345389D01*
X115353399Y-102497387D01*
X115384132Y-102650371D01*
X115404365Y-102804051D01*
X115414083Y-102958137D01*
X115413269Y-103112337D01*
X115401909Y-103266361D01*
X115379986Y-103419920D01*
X115347485Y-103572722D01*
X115304389Y-103724477D01*
X115250683Y-103874895D01*
X115186352Y-104023684D01*
X115111379Y-104170556D01*
X115025749Y-104315218D01*
X114929446Y-104457381D01*
X114822454Y-104596754D01*
X114704758Y-104733047D01*
X114576341Y-104865970D01*
X114437189Y-104995231D01*
X114287284Y-105120540D01*
X114126612Y-105241607D01*
X109339052Y-108658536D01*
X104538052Y-112066154D01*
X104368988Y-112179798D01*
X104193609Y-112286058D01*
X103825527Y-112476446D01*
X103437055Y-112637346D01*
X103031440Y-112768791D01*
X102611930Y-112870811D01*
X102181772Y-112943438D01*
X101744215Y-112986703D01*
X101302505Y-113000636D01*
X100859890Y-112985268D01*
X100419619Y-112940632D01*
X99984939Y-112866756D01*
X99559097Y-112763674D01*
X99145342Y-112631416D01*
X98746920Y-112470012D01*
X98367080Y-112279494D01*
X98009070Y-112059893D01*
X91803444Y-107847469D01*
X90120090Y-106702959D01*
X88431138Y-105562553D01*
X88250593Y-105436394D01*
X88080981Y-105306902D01*
X87922428Y-105174054D01*
X87775063Y-105037825D01*
X87639011Y-104898189D01*
X87514398Y-104755123D01*
X87401353Y-104608600D01*
X87300001Y-104458597D01*
X87210469Y-104305089D01*
X87132885Y-104148050D01*
X87067374Y-103987455D01*
X87014063Y-103823281D01*
X86973079Y-103655502D01*
X86944549Y-103484093D01*
X86928600Y-103309029D01*
X86925357Y-103130286D01*
X86933193Y-102971758D01*
X86951093Y-102815879D01*
X86979024Y-102662680D01*
X87016952Y-102512189D01*
X87064844Y-102364435D01*
X87122666Y-102219448D01*
X87190384Y-102077257D01*
X87267966Y-101937891D01*
X87355376Y-101801379D01*
X87452583Y-101667750D01*
X87559552Y-101537034D01*
X87676250Y-101409260D01*
X87802642Y-101284456D01*
X87938697Y-101162652D01*
X88084379Y-101043878D01*
X88239656Y-100928162D01*
X97021875Y-94677097D01*
X97315550Y-94467761D01*
X97612285Y-94260211D01*
X97763280Y-94158567D01*
X97916817Y-94059124D01*
X98073487Y-93962464D01*
X98233882Y-93869174D01*
X98388555Y-93786006D01*
X98546487Y-93708697D01*
X98707670Y-93637168D01*
X98872095Y-93571341D01*
X99039754Y-93511137D01*
X99210638Y-93456480D01*
X99384739Y-93407290D01*
X99562047Y-93363490D01*
X99742555Y-93325001D01*
X99926253Y-93291746D01*
X100113133Y-93263645D01*
X100303186Y-93240621D01*
X100496405Y-93222596D01*
X100692779Y-93209492D01*
X100892301Y-93201230D01*
X101094962Y-93197732D01*
X101322975Y-93202907D01*
G37*
%TD.AperFunction*%
%TA.AperFunction,NonConductor*%
G36*
X105119553Y-119366601D02*
G01*
X100648991Y-119209204D01*
X96037919Y-119043485D01*
X95981225Y-119009327D01*
X95928239Y-118973759D01*
X95878216Y-118937265D01*
X95830406Y-118900333D01*
X95738445Y-118827092D01*
X95692798Y-118791756D01*
X95646378Y-118757922D01*
X95598439Y-118726078D01*
X95548232Y-118696707D01*
X95495012Y-118670297D01*
X95467038Y-118658354D01*
X95438030Y-118647332D01*
X95407896Y-118637294D01*
X95376541Y-118628299D01*
X95343873Y-118620408D01*
X95309797Y-118613683D01*
X95274221Y-118608182D01*
X95237052Y-118603969D01*
X95198195Y-118601102D01*
X95157558Y-118599643D01*
X95117862Y-118555303D01*
X95076824Y-118514846D01*
X95034441Y-118477902D01*
X94990714Y-118444107D01*
X94945642Y-118413093D01*
X94899223Y-118384492D01*
X94851458Y-118357939D01*
X94802344Y-118333065D01*
X94751882Y-118309505D01*
X94700070Y-118286892D01*
X94592394Y-118243036D01*
X94479311Y-118198562D01*
X94360814Y-118150536D01*
X95520262Y-118084359D01*
X99354332Y-117861197D01*
X103045899Y-117648940D01*
X106808149Y-117426948D01*
X109068676Y-117298100D01*
X105119553Y-119366601D01*
G37*
%TD.AperFunction*%
D11*
%TO.P,L1,2*%
%TO.N,Net-(U1-LB)*%
X100825000Y-103155000D03*
%TD*%
D12*
%TO.N,Net-(U1-LB)*%
X113000000Y-99000000D03*
%TD*%
D13*
%TO.N,Net-(U1-LB)*%
X112000000Y-99000000D02*
X107845000Y-103155000D01*
X113000000Y-99000000D02*
X112000000Y-99000000D01*
X107845000Y-103155000D02*
X100825000Y-103155000D01*
%TD*%
%TA.AperFunction,Conductor*%
%TO.N,Net-(U1-LB)*%
G36*
X112938057Y-98736004D02*
G01*
X112946317Y-98739454D01*
X112949488Y-98745383D01*
X113000530Y-98997680D01*
X113000530Y-99002320D01*
X112944165Y-99280929D01*
X112939165Y-99288358D01*
X112930377Y-99290077D01*
X112928709Y-99289608D01*
X112413476Y-99102796D01*
X112406866Y-99096755D01*
X112405764Y-99091797D01*
X112405764Y-98908202D01*
X112409191Y-98899929D01*
X112413473Y-98897204D01*
X112856766Y-98736476D01*
X112860775Y-98735777D01*
X112938057Y-98736004D01*
G37*
%TD.AperFunction*%
%TD*%
%TA.AperFunction,Conductor*%
%TO.N,Net-(U1-LB)*%
G36*
X100896282Y-102865389D02*
G01*
X101411525Y-103052204D01*
X101418134Y-103058244D01*
X101419236Y-103063202D01*
X101419236Y-103246797D01*
X101415809Y-103255070D01*
X101411524Y-103257796D01*
X100896290Y-103444608D01*
X100887344Y-103444207D01*
X100881303Y-103437597D01*
X100880837Y-103435939D01*
X100824469Y-103157318D01*
X100824469Y-103152680D01*
X100880835Y-102874067D01*
X100885834Y-102866641D01*
X100894622Y-102864922D01*
X100896282Y-102865389D01*
G37*
%TD.AperFunction*%
%TD*%
M02*
