%TF.GenerationSoftware,KiCad,Pcbnew,9.0.6*%
%TF.CreationDate,2025-11-25T14:35:56-05:00*%
%TF.ProjectId,Badge_NFC,42616467-655f-44e4-9643-2e6b69636164,rev?*%
%TF.SameCoordinates,Original*%
%TF.FileFunction,Legend,Top*%
%TF.FilePolarity,Positive*%
%FSLAX46Y46*%
G04 Gerber Fmt 4.6, Leading zero omitted, Abs format (unit mm)*
G04 Created by KiCad (PCBNEW 9.0.6) date 2025-11-25 14:35:56*
%MOMM*%
%LPD*%
G01*
G04 APERTURE LIST*
%ADD10C,0.100000*%
%ADD11C,0.200000*%
%ADD12C,0.152400*%
G04 APERTURE END LIST*
D10*
X113268406Y-101413500D02*
X113916025Y-101413500D01*
X113916025Y-101413500D02*
X113992215Y-101375405D01*
X113992215Y-101375405D02*
X114030311Y-101337310D01*
X114030311Y-101337310D02*
X114068406Y-101261119D01*
X114068406Y-101261119D02*
X114068406Y-101108738D01*
X114068406Y-101108738D02*
X114030311Y-101032548D01*
X114030311Y-101032548D02*
X113992215Y-100994453D01*
X113992215Y-100994453D02*
X113916025Y-100956357D01*
X113916025Y-100956357D02*
X113268406Y-100956357D01*
X114068406Y-100156358D02*
X114068406Y-100613501D01*
X114068406Y-100384929D02*
X113268406Y-100384929D01*
X113268406Y-100384929D02*
X113382691Y-100461120D01*
X113382691Y-100461120D02*
X113458882Y-100537310D01*
X113458882Y-100537310D02*
X113496977Y-100613501D01*
X86366666Y-103519895D02*
X85985714Y-103519895D01*
X85985714Y-103519895D02*
X85985714Y-102719895D01*
X87052380Y-103519895D02*
X86595237Y-103519895D01*
X86823809Y-103519895D02*
X86823809Y-102719895D01*
X86823809Y-102719895D02*
X86747618Y-102834180D01*
X86747618Y-102834180D02*
X86671428Y-102910371D01*
X86671428Y-102910371D02*
X86595237Y-102948466D01*
X113035037Y-95112886D02*
X112768370Y-94731933D01*
X112577894Y-95112886D02*
X112577894Y-94312886D01*
X112577894Y-94312886D02*
X112882656Y-94312886D01*
X112882656Y-94312886D02*
X112958846Y-94350981D01*
X112958846Y-94350981D02*
X112996941Y-94389076D01*
X112996941Y-94389076D02*
X113035037Y-94465267D01*
X113035037Y-94465267D02*
X113035037Y-94579552D01*
X113035037Y-94579552D02*
X112996941Y-94655743D01*
X112996941Y-94655743D02*
X112958846Y-94693838D01*
X112958846Y-94693838D02*
X112882656Y-94731933D01*
X112882656Y-94731933D02*
X112577894Y-94731933D01*
X113796941Y-95112886D02*
X113339798Y-95112886D01*
X113568370Y-95112886D02*
X113568370Y-94312886D01*
X113568370Y-94312886D02*
X113492179Y-94427171D01*
X113492179Y-94427171D02*
X113415989Y-94503362D01*
X113415989Y-94503362D02*
X113339798Y-94541457D01*
X108001082Y-91403600D02*
X108039178Y-91441696D01*
X108039178Y-91441696D02*
X108077273Y-91555981D01*
X108077273Y-91555981D02*
X108077273Y-91632172D01*
X108077273Y-91632172D02*
X108039178Y-91746458D01*
X108039178Y-91746458D02*
X107962987Y-91822648D01*
X107962987Y-91822648D02*
X107886797Y-91860743D01*
X107886797Y-91860743D02*
X107734416Y-91898839D01*
X107734416Y-91898839D02*
X107620130Y-91898839D01*
X107620130Y-91898839D02*
X107467749Y-91860743D01*
X107467749Y-91860743D02*
X107391558Y-91822648D01*
X107391558Y-91822648D02*
X107315368Y-91746458D01*
X107315368Y-91746458D02*
X107277273Y-91632172D01*
X107277273Y-91632172D02*
X107277273Y-91555981D01*
X107277273Y-91555981D02*
X107315368Y-91441696D01*
X107315368Y-91441696D02*
X107353463Y-91403600D01*
X108077273Y-90641696D02*
X108077273Y-91098839D01*
X108077273Y-90870267D02*
X107277273Y-90870267D01*
X107277273Y-90870267D02*
X107391558Y-90946458D01*
X107391558Y-90946458D02*
X107467749Y-91022648D01*
X107467749Y-91022648D02*
X107505844Y-91098839D01*
X111882518Y-93966245D02*
X111501566Y-93966245D01*
X111501566Y-93966245D02*
X111501566Y-93166245D01*
X112149185Y-93547197D02*
X112415851Y-93547197D01*
X112530137Y-93966245D02*
X112149185Y-93966245D01*
X112149185Y-93966245D02*
X112149185Y-93166245D01*
X112149185Y-93166245D02*
X112530137Y-93166245D01*
X112872995Y-93966245D02*
X112872995Y-93166245D01*
X112872995Y-93166245D02*
X113063471Y-93166245D01*
X113063471Y-93166245D02*
X113177757Y-93204340D01*
X113177757Y-93204340D02*
X113253947Y-93280530D01*
X113253947Y-93280530D02*
X113292042Y-93356721D01*
X113292042Y-93356721D02*
X113330138Y-93509102D01*
X113330138Y-93509102D02*
X113330138Y-93623388D01*
X113330138Y-93623388D02*
X113292042Y-93775769D01*
X113292042Y-93775769D02*
X113253947Y-93851959D01*
X113253947Y-93851959D02*
X113177757Y-93928150D01*
X113177757Y-93928150D02*
X113063471Y-93966245D01*
X113063471Y-93966245D02*
X112872995Y-93966245D01*
X114092042Y-93966245D02*
X113634899Y-93966245D01*
X113863471Y-93966245D02*
X113863471Y-93166245D01*
X113863471Y-93166245D02*
X113787280Y-93280530D01*
X113787280Y-93280530D02*
X113711090Y-93356721D01*
X113711090Y-93356721D02*
X113634899Y-93394816D01*
D11*
%TO.C,U1*%
X114520000Y-100095000D02*
G75*
G02*
X114480000Y-100095000I-20000J0D01*
G01*
X114480000Y-100095000D02*
G75*
G02*
X114520000Y-100095000I20000J0D01*
G01*
D12*
%TO.C,LED1*%
X112862250Y-91792100D02*
X112486750Y-91792100D01*
X112486750Y-92858900D02*
X112862250Y-92858900D01*
%TD*%
M02*
