%TF.GenerationSoftware,KiCad,Pcbnew,9.0.6*%
%TF.CreationDate,2025-11-25T14:35:57-05:00*%
%TF.ProjectId,Badge_NFC,42616467-655f-44e4-9643-2e6b69636164,rev?*%
%TF.SameCoordinates,Original*%
%TF.FileFunction,Profile,NP*%
%FSLAX46Y46*%
G04 Gerber Fmt 4.6, Leading zero omitted, Abs format (unit mm)*
G04 Created by KiCad (PCBNEW 9.0.6) date 2025-11-25 14:35:57*
%MOMM*%
%LPD*%
G01*
G04 APERTURE LIST*
%ADD10C,0.050000*%
%TA.AperFunction,Profile*%
%ADD11C,0.050000*%
%TD*%
G04 APERTURE END LIST*
D10*
X85101240Y-113585929D02*
X85087681Y-113578371D01*
X85074164Y-113570744D01*
X85060688Y-113563049D01*
X85047255Y-113555287D01*
X85033865Y-113547456D01*
X85020517Y-113539558D01*
X85007212Y-113531592D01*
X84993950Y-113523560D01*
X84980731Y-113515459D01*
X84967557Y-113507292D01*
X84954426Y-113499059D01*
X84941340Y-113490758D01*
X84928298Y-113482391D01*
X84915301Y-113473958D01*
X84902349Y-113465459D01*
X84889443Y-113456894D01*
X84876582Y-113448263D01*
X84863766Y-113439567D01*
X84850997Y-113430805D01*
X84838275Y-113421978D01*
X84825599Y-113413086D01*
X84812969Y-113404130D01*
X84800387Y-113395109D01*
X84787853Y-113386023D01*
X84775366Y-113376874D01*
X84762928Y-113367660D01*
X84750537Y-113358383D01*
X84738195Y-113349042D01*
X84725902Y-113339638D01*
X84713659Y-113330171D01*
X84701464Y-113320641D01*
X84689319Y-113311048D01*
X84677224Y-113301393D01*
X84665180Y-113291676D01*
X84653186Y-113281896D01*
X84641242Y-113272055D01*
X84629350Y-113262153D01*
X84617509Y-113252189D01*
X84605720Y-113242164D01*
X84593983Y-113232078D01*
X84582298Y-113221932D01*
X84570665Y-113211725D01*
X84559085Y-113201458D01*
X84547559Y-113191131D01*
X84536085Y-113180745D01*
X84524665Y-113170300D01*
X84513300Y-113159795D01*
X84501988Y-113149231D01*
X84490731Y-113138609D01*
X84479528Y-113127929D01*
X84468381Y-113117191D01*
X84457288Y-113106395D01*
X84446252Y-113095541D01*
X84435271Y-113084630D01*
X84424347Y-113073663D01*
X84413479Y-113062638D01*
X84402667Y-113051558D01*
X84391913Y-113040421D01*
X84381216Y-113029228D01*
X84370576Y-113017980D01*
X84359995Y-113006677D01*
X84349471Y-112995318D01*
X84339006Y-112983905D01*
X84328600Y-112972438D01*
X84318252Y-112960917D01*
X84307964Y-112949342D01*
X84297735Y-112937713D01*
X84287566Y-112926031D01*
X84277457Y-112914297D01*
X84267409Y-112902510D01*
X84257421Y-112890671D01*
X84247494Y-112878780D01*
X84237628Y-112866837D01*
X84227824Y-112854843D01*
X84218081Y-112842799D01*
X84208400Y-112830703D01*
X84198781Y-112818558D01*
X84189225Y-112806362D01*
X84179732Y-112794117D01*
X84170302Y-112781823D01*
X84160935Y-112769480D01*
X84151631Y-112757088D01*
X84142392Y-112744648D01*
X84133216Y-112732160D01*
X84124105Y-112719624D01*
X84115058Y-112707041D01*
X84106076Y-112694412D01*
X84097159Y-112681736D01*
X84088307Y-112669013D01*
X84079521Y-112656245D01*
X84070801Y-112643431D01*
X84062147Y-112630573D01*
X84053559Y-112617669D01*
X84045038Y-112604721D01*
X84036584Y-112591730D01*
X84028196Y-112578694D01*
X84019876Y-112565615D01*
X84011624Y-112552493D01*
X84003439Y-112539329D01*
X83995322Y-112526123D01*
X83987273Y-112512874D01*
X83979293Y-112499584D01*
X83971381Y-112486254D01*
X83967451Y-112479573D01*
X83963538Y-112472882D01*
X83959643Y-112466181D01*
X83955765Y-112459470D01*
X83951904Y-112452749D01*
X83948060Y-112446018D01*
X83944234Y-112439278D01*
X83940425Y-112432527D01*
X83936634Y-112425767D01*
X83932860Y-112418996D01*
X83929104Y-112412216D01*
X83925365Y-112405427D01*
X83921644Y-112398628D01*
X83917940Y-112391819D01*
X83914254Y-112385001D01*
X83910585Y-112378173D01*
X83906935Y-112371336D01*
X83903301Y-112364489D01*
X83899686Y-112357634D01*
X83896088Y-112350769D01*
X83892508Y-112343894D01*
X83888946Y-112337011D01*
X83885402Y-112330118D01*
X83881875Y-112323217D01*
X83878366Y-112316306D01*
X83874875Y-112309386D01*
X83871402Y-112302458D01*
X83867947Y-112295520D01*
X83864510Y-112288574D01*
X83861091Y-112281618D01*
X83857690Y-112274655D01*
X83854306Y-112267682D01*
X83850941Y-112260701D01*
X83847594Y-112253711D01*
X83844265Y-112246713D01*
X83840954Y-112239706D01*
X83837662Y-112232691D01*
X83834387Y-112225667D01*
X83831131Y-112218635D01*
X83827892Y-112211594D01*
X83824672Y-112204546D01*
X83821470Y-112197489D01*
X83818287Y-112190424D01*
X83815122Y-112183351D01*
X83811975Y-112176270D01*
X83808846Y-112169180D01*
X83805736Y-112162084D01*
X83802644Y-112154978D01*
X83799571Y-112147866D01*
X83796516Y-112140745D01*
X83793479Y-112133616D01*
X83790461Y-112126480D01*
X83787461Y-112119336D01*
X83784480Y-112112185D01*
X83781517Y-112105026D01*
X83778573Y-112097859D01*
X83775648Y-112090685D01*
X83772741Y-112083503D01*
X83769852Y-112076315D01*
X83766982Y-112069118D01*
X83764131Y-112061915D01*
X83761299Y-112054704D01*
X83758485Y-112047487D01*
X83755690Y-112040262D01*
X83752914Y-112033030D01*
X83750156Y-112025790D01*
X83747417Y-112018545D01*
X83744697Y-112011291D01*
X83741995Y-112004032D01*
X83739313Y-111996765D01*
X83736649Y-111989492D01*
X83734004Y-111982211D01*
X83731378Y-111974925D01*
X83728771Y-111967631D01*
X83726183Y-111960331D01*
X83723613Y-111953024D01*
X83721063Y-111945711D01*
X83718531Y-111938391D01*
X83716018Y-111931066D01*
X83713525Y-111923733D01*
X83711050Y-111916395D01*
X83708594Y-111909049D01*
X83706158Y-111901699D01*
X83703740Y-111894341D01*
X83701342Y-111886978D01*
X83698962Y-111879608D01*
X83696602Y-111872233D01*
X83694261Y-111864851D01*
X83691939Y-111857464D01*
X83689635Y-111850071D01*
X83687352Y-111842672D01*
X83685087Y-111835267D01*
X83682841Y-111827857D01*
X83680615Y-111820440D01*
X83678408Y-111813019D01*
X83676220Y-111805591D01*
X83674051Y-111798159D01*
X83671902Y-111790720D01*
X83669772Y-111783277D01*
X83667660Y-111775827D01*
X83665569Y-111768373D01*
X83663496Y-111760913D01*
X83661443Y-111753449D01*
X83659410Y-111745978D01*
X83657395Y-111738503D01*
X83655400Y-111731022D01*
X83653425Y-111723537D01*
X83651468Y-111716046D01*
X83649531Y-111708551D01*
X83647614Y-111701050D01*
X83645716Y-111693546D01*
X83643837Y-111686035D01*
X83641978Y-111678521D01*
X83640138Y-111671001D01*
X83638317Y-111663477D01*
X83636516Y-111655948D01*
X83634735Y-111648415D01*
X83632973Y-111640876D01*
X83631230Y-111633335D01*
X83629507Y-111625787D01*
X83627804Y-111618236D01*
X83626120Y-111610680D01*
X83624456Y-111603121D01*
X83622811Y-111595556D01*
X83621186Y-111587988D01*
X83619580Y-111580415D01*
X83617994Y-111572839D01*
X83616427Y-111565258D01*
X83614880Y-111557674D01*
X83613353Y-111550084D01*
X83611845Y-111542492D01*
X83610357Y-111534895D01*
X83608889Y-111527295D01*
X83607440Y-111519690D01*
X83606011Y-111512083D01*
X83604601Y-111504471D01*
X83603212Y-111496856D01*
X83601841Y-111489236D01*
X83600491Y-111481615D01*
X83599160Y-111473988D01*
X83597849Y-111466359D01*
X83596558Y-111458725D01*
X83595286Y-111451089D01*
X83594034Y-111443449D01*
X83592802Y-111435807D01*
X83591590Y-111428159D01*
X83590397Y-111420511D01*
X83589224Y-111412857D01*
X83588071Y-111405202D01*
X83586938Y-111397542D01*
X83585824Y-111389881D01*
X83584730Y-111382215D01*
X83583656Y-111374548D01*
X83582602Y-111366876D01*
X83581568Y-111359203D01*
X83580553Y-111351526D01*
X83579558Y-111343847D01*
X83578583Y-111336164D01*
X83577628Y-111328480D01*
X83576692Y-111320792D01*
X83575777Y-111313103D01*
X83574881Y-111305409D01*
X83574006Y-111297715D01*
X83573150Y-111290016D01*
X83572314Y-111282317D01*
X83571497Y-111274613D01*
X83570701Y-111266909D01*
X83569924Y-111259201D01*
X83569168Y-111251493D01*
X83568431Y-111243780D01*
X83567714Y-111236067D01*
X83567017Y-111228350D01*
X83566341Y-111220632D01*
X83565683Y-111212911D01*
X83565046Y-111205190D01*
X83564429Y-111197464D01*
X83563832Y-111189739D01*
X83563254Y-111182010D01*
X83562697Y-111174280D01*
X83562159Y-111166548D01*
X83561641Y-111158815D01*
X83561144Y-111151078D01*
X83560666Y-111143342D01*
X83560208Y-111135602D01*
X83559770Y-111127863D01*
X83559352Y-111120119D01*
X83558954Y-111112377D01*
X83558576Y-111104630D01*
X83558218Y-111096885D01*
X83557880Y-111089136D01*
X83557562Y-111081387D01*
X83557264Y-111073635D01*
X83556986Y-111065884D01*
X83556728Y-111058129D01*
X83556489Y-111050376D01*
X83556271Y-111042619D01*
X83556073Y-111034863D01*
X83555895Y-111027103D01*
X83555736Y-111019345D01*
X83555598Y-111011583D01*
X83555480Y-111003823D01*
X83555382Y-110996060D01*
X83555303Y-110988297D01*
X83555245Y-110980532D01*
X83555207Y-110972768D01*
X83555189Y-110965001D01*
X83555187Y-110961802D01*
X99601248Y-84446310D02*
X99614840Y-84438825D01*
X99628468Y-84431411D01*
X99642133Y-84424068D01*
X99655832Y-84416798D01*
X99669567Y-84409599D01*
X99683337Y-84402472D01*
X99697142Y-84395417D01*
X99710982Y-84388434D01*
X99724855Y-84381523D01*
X99738762Y-84374685D01*
X99752703Y-84367920D01*
X99766678Y-84361227D01*
X99780685Y-84354607D01*
X99794725Y-84348060D01*
X99808797Y-84341586D01*
X99822902Y-84335185D01*
X99837038Y-84328858D01*
X99851206Y-84322604D01*
X99865405Y-84316424D01*
X99879634Y-84310318D01*
X99893895Y-84304285D01*
X99908185Y-84298327D01*
X99922506Y-84292443D01*
X99936856Y-84286633D01*
X99951235Y-84280897D01*
X99965643Y-84275236D01*
X99980080Y-84269650D01*
X99994545Y-84264139D01*
X100009038Y-84258702D01*
X100023559Y-84253341D01*
X100038106Y-84248054D01*
X100052681Y-84242843D01*
X100067282Y-84237708D01*
X100081910Y-84232648D01*
X100096563Y-84227663D01*
X100111242Y-84222755D01*
X100125946Y-84217922D01*
X100140675Y-84213165D01*
X100155429Y-84208485D01*
X100170206Y-84203881D01*
X100185007Y-84199353D01*
X100199832Y-84194901D01*
X100214680Y-84190526D01*
X100229550Y-84186228D01*
X100244443Y-84182007D01*
X100259357Y-84177862D01*
X100274293Y-84173795D01*
X100289250Y-84169805D01*
X100304228Y-84165892D01*
X100319226Y-84162056D01*
X100334245Y-84158298D01*
X100349283Y-84154617D01*
X100364340Y-84151014D01*
X100379416Y-84147488D01*
X100394511Y-84144041D01*
X100409623Y-84140671D01*
X100424754Y-84137379D01*
X100439901Y-84134166D01*
X100455066Y-84131030D01*
X100470247Y-84127973D01*
X100485444Y-84124994D01*
X100500656Y-84122094D01*
X100515885Y-84119272D01*
X100531128Y-84116528D01*
X100546385Y-84113864D01*
X100561657Y-84111278D01*
X100576942Y-84108771D01*
X100592240Y-84106342D01*
X100607551Y-84103993D01*
X100622875Y-84101723D01*
X100638211Y-84099532D01*
X100653558Y-84097419D01*
X100668917Y-84095387D01*
X100684286Y-84093433D01*
X100699666Y-84091559D01*
X100715055Y-84089764D01*
X100730454Y-84088048D01*
X100745863Y-84086412D01*
X100761279Y-84084856D01*
X100776704Y-84083379D01*
X100792137Y-84081981D01*
X100807578Y-84080664D01*
X100823025Y-84079426D01*
X100838479Y-84078267D01*
X100853938Y-84077189D01*
X100869404Y-84076190D01*
X100884875Y-84075271D01*
X100900350Y-84074432D01*
X100915830Y-84073673D01*
X100931314Y-84072994D01*
X100946802Y-84072394D01*
X100962292Y-84071875D01*
X100977785Y-84071435D01*
X100993281Y-84071076D01*
X101008778Y-84070796D01*
X101024276Y-84070597D01*
X101039776Y-84070477D01*
X101055276Y-84070438D01*
X101063026Y-84070448D01*
X101070776Y-84070478D01*
X101078525Y-84070528D01*
X101086275Y-84070598D01*
X101094025Y-84070689D01*
X101101774Y-84070799D01*
X101109523Y-84070929D01*
X101117272Y-84071079D01*
X101125020Y-84071249D01*
X101132767Y-84071440D01*
X101140515Y-84071650D01*
X101148261Y-84071880D01*
X101156007Y-84072130D01*
X101163752Y-84072400D01*
X101171497Y-84072690D01*
X101179241Y-84073001D01*
X101186983Y-84073331D01*
X101194726Y-84073681D01*
X101202466Y-84074051D01*
X101210206Y-84074441D01*
X101217945Y-84074851D01*
X101225683Y-84075281D01*
X101233420Y-84075731D01*
X101241155Y-84076201D01*
X101248889Y-84076691D01*
X101256622Y-84077201D01*
X101264353Y-84077730D01*
X101272083Y-84078280D01*
X101279812Y-84078850D01*
X101287539Y-84079439D01*
X101295264Y-84080049D01*
X101302988Y-84080679D01*
X101310709Y-84081328D01*
X101318430Y-84081997D01*
X101326148Y-84082687D01*
X101333864Y-84083396D01*
X101341579Y-84084125D01*
X101349291Y-84084874D01*
X101357002Y-84085643D01*
X101364710Y-84086432D01*
X101372416Y-84087240D01*
X101380121Y-84088069D01*
X101387822Y-84088917D01*
X101395522Y-84089786D01*
X101403219Y-84090674D01*
X101410914Y-84091582D01*
X101418606Y-84092510D01*
X101426296Y-84093458D01*
X101433983Y-84094425D01*
X101441668Y-84095413D01*
X101449350Y-84096420D01*
X101457029Y-84097447D01*
X101464705Y-84098494D01*
X101472379Y-84099560D01*
X101480050Y-84100647D01*
X101487718Y-84101753D01*
X101495382Y-84102879D01*
X101503045Y-84104025D01*
X101510703Y-84105190D01*
X101518359Y-84106376D01*
X101526011Y-84107581D01*
X101533661Y-84108806D01*
X101541306Y-84110050D01*
X101548949Y-84111315D01*
X101556588Y-84112598D01*
X101564224Y-84113902D01*
X101571856Y-84115226D01*
X101579485Y-84116569D01*
X101587109Y-84117931D01*
X101594731Y-84119314D01*
X101602348Y-84120716D01*
X101609963Y-84122138D01*
X101617573Y-84123579D01*
X101625179Y-84125040D01*
X101632781Y-84126521D01*
X101640380Y-84128021D01*
X101647974Y-84129541D01*
X101655565Y-84131080D01*
X101663151Y-84132639D01*
X101670733Y-84134218D01*
X101678311Y-84135816D01*
X101685885Y-84137434D01*
X101693454Y-84139071D01*
X101701019Y-84140728D01*
X101708580Y-84142404D01*
X101716136Y-84144100D01*
X101723687Y-84145815D01*
X101731235Y-84147550D01*
X101738777Y-84149304D01*
X101746315Y-84151078D01*
X101753848Y-84152871D01*
X101761377Y-84154683D01*
X101768900Y-84156515D01*
X101776419Y-84158367D01*
X101783933Y-84160237D01*
X101791442Y-84162128D01*
X101798946Y-84164037D01*
X101806445Y-84165966D01*
X101813938Y-84167914D01*
X101821428Y-84169882D01*
X101828911Y-84171869D01*
X101836390Y-84173875D01*
X101843862Y-84175901D01*
X101851330Y-84177946D01*
X101858792Y-84180010D01*
X101866250Y-84182093D01*
X101873700Y-84184196D01*
X101881147Y-84186318D01*
X101888587Y-84188458D01*
X101896022Y-84190619D01*
X101903451Y-84192798D01*
X101910875Y-84194997D01*
X101918292Y-84197215D01*
X101925705Y-84199452D01*
X101933110Y-84201708D01*
X101940511Y-84203983D01*
X101947905Y-84206277D01*
X101955294Y-84208591D01*
X101962675Y-84210923D01*
X101970052Y-84213275D01*
X101977422Y-84215645D01*
X101984787Y-84218035D01*
X101992144Y-84220444D01*
X101999496Y-84222872D01*
X102006841Y-84225318D01*
X102014180Y-84227784D01*
X102021512Y-84230269D01*
X102028839Y-84232773D01*
X102036158Y-84235295D01*
X102043472Y-84237837D01*
X102050778Y-84240397D01*
X102058079Y-84242976D01*
X102065372Y-84245574D01*
X102072659Y-84248191D01*
X102079938Y-84250827D01*
X102087213Y-84253482D01*
X102094478Y-84256155D01*
X102101739Y-84258848D01*
X102108991Y-84261559D01*
X102116237Y-84264289D01*
X102123475Y-84267037D01*
X102130708Y-84269805D01*
X102137932Y-84272590D01*
X102145150Y-84275396D01*
X102152360Y-84278219D01*
X102159564Y-84281061D01*
X102166760Y-84283922D01*
X102173949Y-84286801D01*
X102181130Y-84289699D01*
X102188305Y-84292616D01*
X102195471Y-84295551D01*
X102202631Y-84298505D01*
X102209782Y-84301477D01*
X102216928Y-84304469D01*
X102224064Y-84307478D01*
X102231194Y-84310506D01*
X102238314Y-84313552D01*
X102245429Y-84316618D01*
X102252535Y-84319701D01*
X102259634Y-84322803D01*
X102266724Y-84325923D01*
X102273808Y-84329062D01*
X102280882Y-84332219D01*
X102287950Y-84335395D01*
X102295008Y-84338589D01*
X102302060Y-84341801D01*
X102309102Y-84345032D01*
X102316138Y-84348281D01*
X102323164Y-84351548D01*
X102330184Y-84354834D01*
X102337194Y-84358137D01*
X102344197Y-84361459D01*
X102351190Y-84364799D01*
X102358177Y-84368158D01*
X102365154Y-84371534D01*
X102372124Y-84374930D01*
X102379084Y-84378342D01*
X102386037Y-84381774D01*
X102392980Y-84385223D01*
X102399917Y-84388691D01*
X102406843Y-84392176D01*
X102413762Y-84395680D01*
X102420671Y-84399201D01*
X102427573Y-84402741D01*
X102434464Y-84406298D01*
X102441348Y-84409875D01*
X102448222Y-84413468D01*
X102455089Y-84417080D01*
X102461946Y-84420709D01*
X102468795Y-84424358D01*
X102475633Y-84428023D01*
X102482465Y-84431707D01*
X102489286Y-84435408D01*
X102496099Y-84439127D01*
X102509140Y-84446311D01*
X117009132Y-92480308D02*
X117022691Y-92487866D01*
X117036208Y-92495493D01*
X117049684Y-92503188D01*
X117063117Y-92510950D01*
X117076508Y-92518781D01*
X117089856Y-92526679D01*
X117103161Y-92534645D01*
X117116422Y-92542678D01*
X117129641Y-92550778D01*
X117142815Y-92558945D01*
X117155946Y-92567179D01*
X117169032Y-92575479D01*
X117182074Y-92583846D01*
X117195071Y-92592279D01*
X117208023Y-92600778D01*
X117220930Y-92609343D01*
X117233791Y-92617974D01*
X117246606Y-92626671D01*
X117259375Y-92635432D01*
X117272098Y-92644259D01*
X117284774Y-92653151D01*
X117297403Y-92662108D01*
X117309985Y-92671129D01*
X117322519Y-92680214D01*
X117335006Y-92689364D01*
X117347445Y-92698577D01*
X117359835Y-92707854D01*
X117372177Y-92717195D01*
X117384470Y-92726599D01*
X117396714Y-92736067D01*
X117408908Y-92745597D01*
X117421053Y-92755189D01*
X117433148Y-92764845D01*
X117445193Y-92774562D01*
X117457187Y-92784341D01*
X117469130Y-92794182D01*
X117481022Y-92804085D01*
X117492863Y-92814049D01*
X117504652Y-92824074D01*
X117516390Y-92834160D01*
X117528075Y-92844306D01*
X117539707Y-92854513D01*
X117551287Y-92864780D01*
X117562814Y-92875107D01*
X117574287Y-92885493D01*
X117585707Y-92895938D01*
X117597073Y-92906443D01*
X117608385Y-92917006D01*
X117619642Y-92927629D01*
X117630845Y-92938309D01*
X117641992Y-92949047D01*
X117653084Y-92959843D01*
X117664121Y-92970697D01*
X117675101Y-92981608D01*
X117686026Y-92992575D01*
X117696894Y-93003600D01*
X117707705Y-93014680D01*
X117718460Y-93025817D01*
X117729157Y-93037010D01*
X117739796Y-93048258D01*
X117750378Y-93059562D01*
X117760902Y-93070920D01*
X117771367Y-93082333D01*
X117781773Y-93093800D01*
X117792121Y-93105322D01*
X117802409Y-93116897D01*
X117812637Y-93128525D01*
X117822806Y-93140207D01*
X117832915Y-93151941D01*
X117842964Y-93163728D01*
X117852952Y-93175567D01*
X117862879Y-93187458D01*
X117872745Y-93199401D01*
X117882549Y-93211395D01*
X117892292Y-93223440D01*
X117901973Y-93235535D01*
X117911591Y-93247680D01*
X117921147Y-93259876D01*
X117930641Y-93272121D01*
X117940071Y-93284415D01*
X117949438Y-93296759D01*
X117958742Y-93309150D01*
X117967981Y-93321591D01*
X117977157Y-93334079D01*
X117986268Y-93346614D01*
X117995315Y-93359197D01*
X118004297Y-93371827D01*
X118013214Y-93384503D01*
X118022065Y-93397225D01*
X118030851Y-93409993D01*
X118039571Y-93422807D01*
X118048225Y-93435666D01*
X118056813Y-93448569D01*
X118065334Y-93461517D01*
X118073789Y-93474509D01*
X118082176Y-93487544D01*
X118090496Y-93500623D01*
X118098749Y-93513745D01*
X118106934Y-93526909D01*
X118115051Y-93540116D01*
X118123100Y-93553364D01*
X118131080Y-93566654D01*
X118138992Y-93579985D01*
X118142922Y-93586666D01*
X118146834Y-93593356D01*
X118150730Y-93600057D01*
X118154608Y-93606768D01*
X118158469Y-93613489D01*
X118162312Y-93620220D01*
X118166139Y-93626961D01*
X118169947Y-93633712D01*
X118173739Y-93640472D01*
X118177512Y-93647242D01*
X118181269Y-93654022D01*
X118185008Y-93660812D01*
X118188729Y-93667611D01*
X118192433Y-93674420D01*
X118196119Y-93681238D01*
X118199787Y-93688065D01*
X118203438Y-93694902D01*
X118207071Y-93701749D01*
X118210687Y-93708605D01*
X118214284Y-93715470D01*
X118217864Y-93722344D01*
X118221427Y-93729228D01*
X118224971Y-93736120D01*
X118228498Y-93743022D01*
X118232006Y-93749933D01*
X118235497Y-93756852D01*
X118238970Y-93763781D01*
X118242426Y-93770719D01*
X118245863Y-93777665D01*
X118249282Y-93784620D01*
X118252683Y-93791584D01*
X118256066Y-93798556D01*
X118259431Y-93805538D01*
X118262779Y-93812528D01*
X118266107Y-93819526D01*
X118269418Y-93826533D01*
X118272711Y-93833548D01*
X118275986Y-93840572D01*
X118279242Y-93847604D01*
X118282480Y-93854644D01*
X118285700Y-93861693D01*
X118288902Y-93868750D01*
X118292086Y-93875814D01*
X118295251Y-93882888D01*
X118298398Y-93889969D01*
X118301526Y-93897058D01*
X118304636Y-93904155D01*
X118307728Y-93911260D01*
X118310802Y-93918373D01*
X118313857Y-93925494D01*
X118316893Y-93932622D01*
X118319912Y-93939759D01*
X118322911Y-93946902D01*
X118325893Y-93954054D01*
X118328855Y-93961213D01*
X118331799Y-93968380D01*
X118334725Y-93975553D01*
X118337632Y-93982735D01*
X118340520Y-93989923D01*
X118343390Y-93997120D01*
X118346241Y-94004323D01*
X118349074Y-94011534D01*
X118351887Y-94018752D01*
X118354683Y-94025977D01*
X118357459Y-94033209D01*
X118360217Y-94040448D01*
X118362956Y-94047694D01*
X118365676Y-94054947D01*
X118368377Y-94062206D01*
X118371060Y-94069474D01*
X118373723Y-94076747D01*
X118376369Y-94084027D01*
X118378994Y-94091314D01*
X118381602Y-94098608D01*
X118384190Y-94105907D01*
X118386760Y-94113215D01*
X118389310Y-94120527D01*
X118391842Y-94127847D01*
X118394354Y-94135173D01*
X118396848Y-94142506D01*
X118399322Y-94149844D01*
X118401778Y-94157189D01*
X118404214Y-94164540D01*
X118406632Y-94171898D01*
X118409031Y-94179261D01*
X118411410Y-94186630D01*
X118413770Y-94194005D01*
X118416112Y-94201387D01*
X118418434Y-94208774D01*
X118420737Y-94216168D01*
X118423021Y-94223566D01*
X118425286Y-94230971D01*
X118427531Y-94238381D01*
X118429757Y-94245798D01*
X118431964Y-94253219D01*
X118434153Y-94260647D01*
X118436321Y-94268079D01*
X118438471Y-94275518D01*
X118440601Y-94282961D01*
X118442712Y-94290411D01*
X118444803Y-94297865D01*
X118446876Y-94305325D01*
X118448929Y-94312790D01*
X118450963Y-94320261D01*
X118452977Y-94327735D01*
X118454972Y-94335216D01*
X118456948Y-94342701D01*
X118458904Y-94350192D01*
X118460841Y-94357687D01*
X118462759Y-94365188D01*
X118464657Y-94372693D01*
X118466536Y-94380203D01*
X118468395Y-94387718D01*
X118470235Y-94395238D01*
X118472055Y-94402761D01*
X118473856Y-94410291D01*
X118475637Y-94417823D01*
X118477400Y-94425362D01*
X118479142Y-94432904D01*
X118480865Y-94440451D01*
X118482568Y-94448002D01*
X118484252Y-94455558D01*
X118485917Y-94463117D01*
X118487562Y-94470682D01*
X118489187Y-94478250D01*
X118490792Y-94485823D01*
X118492378Y-94493399D01*
X118493945Y-94500981D01*
X118495492Y-94508565D01*
X118497019Y-94516154D01*
X118498527Y-94523746D01*
X118500015Y-94531343D01*
X118501483Y-94538943D01*
X118502932Y-94546548D01*
X118504361Y-94554155D01*
X118505771Y-94561768D01*
X118507161Y-94569382D01*
X118508531Y-94577002D01*
X118509881Y-94584624D01*
X118511212Y-94592251D01*
X118512523Y-94599879D01*
X118513814Y-94607513D01*
X118515086Y-94615149D01*
X118516338Y-94622790D01*
X118517570Y-94630432D01*
X118518783Y-94638079D01*
X118519975Y-94645728D01*
X118521148Y-94653381D01*
X118522301Y-94661036D01*
X118523435Y-94668696D01*
X118524548Y-94676357D01*
X118525642Y-94684023D01*
X118526716Y-94691690D01*
X118527770Y-94699362D01*
X118528805Y-94707035D01*
X118529819Y-94714712D01*
X118530814Y-94722391D01*
X118531789Y-94730074D01*
X118532744Y-94737758D01*
X118533680Y-94745446D01*
X118534595Y-94753135D01*
X118535491Y-94760829D01*
X118536367Y-94768523D01*
X118537223Y-94776222D01*
X118538059Y-94783921D01*
X118538875Y-94791625D01*
X118539671Y-94799329D01*
X118540448Y-94807037D01*
X118541204Y-94814746D01*
X118541941Y-94822458D01*
X118542658Y-94830171D01*
X118543355Y-94837889D01*
X118544032Y-94845606D01*
X118544689Y-94853327D01*
X118545326Y-94861049D01*
X118545943Y-94868774D01*
X118546540Y-94876499D01*
X118547118Y-94884229D01*
X118547675Y-94891958D01*
X118548213Y-94899691D01*
X118548731Y-94907424D01*
X118549228Y-94915160D01*
X118549706Y-94922896D01*
X118550164Y-94930636D01*
X118550602Y-94938376D01*
X118551020Y-94946119D01*
X118551418Y-94953862D01*
X118551796Y-94961608D01*
X118552154Y-94969354D01*
X118552492Y-94977103D01*
X118552810Y-94984851D01*
X118553108Y-94992603D01*
X118553386Y-95000354D01*
X118553644Y-95008109D01*
X118553883Y-95015863D01*
X118554101Y-95023620D01*
X118554299Y-95031376D01*
X118554477Y-95039135D01*
X118554636Y-95046893D01*
X118554774Y-95054655D01*
X118554892Y-95062415D01*
X118554990Y-95070179D01*
X118555069Y-95077941D01*
X118555127Y-95085706D01*
X118555165Y-95093470D01*
X118555183Y-95101237D01*
X118555185Y-95104435D01*
D11*
X102509140Y-84446311D02*
X117009132Y-92480308D01*
X85101248Y-92480296D02*
X99601248Y-84446310D01*
X118555185Y-95104435D02*
X118555179Y-110961815D01*
D10*
X118555179Y-110961815D02*
X118555139Y-110977338D01*
X118555019Y-110992858D01*
X118554819Y-111008375D01*
X118554539Y-111023887D01*
X118554180Y-111039395D01*
X118553740Y-111054898D01*
X118553221Y-111070397D01*
X118552622Y-111085890D01*
X118551943Y-111101378D01*
X118551184Y-111116860D01*
X118550346Y-111132336D01*
X118549427Y-111147806D01*
X118548429Y-111163268D01*
X118547352Y-111178724D01*
X118546195Y-111194172D01*
X118544958Y-111209613D01*
X118543641Y-111225046D01*
X118542246Y-111240470D01*
X118540770Y-111255886D01*
X118539215Y-111271292D01*
X118537581Y-111286689D01*
X118535867Y-111302077D01*
X118534074Y-111317455D01*
X118532202Y-111332822D01*
X118530250Y-111348178D01*
X118528220Y-111363524D01*
X118526110Y-111378858D01*
X118523921Y-111394181D01*
X118521653Y-111409491D01*
X118519306Y-111424789D01*
X118516880Y-111440075D01*
X118514375Y-111455347D01*
X118511791Y-111470606D01*
X118509128Y-111485851D01*
X118506387Y-111501082D01*
X118503567Y-111516298D01*
X118500669Y-111531500D01*
X118497692Y-111546686D01*
X118494637Y-111561857D01*
X118491503Y-111577012D01*
X118488291Y-111592150D01*
X118485001Y-111607272D01*
X118481632Y-111622377D01*
X118478186Y-111637464D01*
X118474662Y-111652534D01*
X118471059Y-111667585D01*
X118467379Y-111682618D01*
X118463622Y-111697632D01*
X118459786Y-111712627D01*
X118455873Y-111727602D01*
X118451883Y-111742557D01*
X118447815Y-111757492D01*
X118443671Y-111772406D01*
X118439449Y-111787299D01*
X118435150Y-111802170D01*
X118430774Y-111817019D01*
X118426321Y-111831846D01*
X118421792Y-111846651D01*
X118417186Y-111861432D01*
X118412503Y-111876190D01*
X118407744Y-111890924D01*
X118402909Y-111905634D01*
X118397998Y-111920319D01*
X118393011Y-111934979D01*
X118387948Y-111949614D01*
X118382809Y-111964223D01*
X118377595Y-111978806D01*
X118372305Y-111993362D01*
X118366940Y-112007892D01*
X118361500Y-112022394D01*
X118355985Y-112036868D01*
X118350395Y-112051314D01*
X118344730Y-112065732D01*
X118338991Y-112080121D01*
X118333177Y-112094481D01*
X118327289Y-112108810D01*
X118321327Y-112123110D01*
X118315290Y-112137380D01*
X118309181Y-112151618D01*
X118302997Y-112165825D01*
X118296740Y-112180001D01*
X118290410Y-112194144D01*
X118284006Y-112208255D01*
X118277530Y-112222334D01*
X118270980Y-112236379D01*
X118264359Y-112250390D01*
X118257664Y-112264368D01*
X118250898Y-112278311D01*
X118244060Y-112292220D01*
X118237149Y-112306093D01*
X118230167Y-112319930D01*
X118223114Y-112333732D01*
X118215989Y-112347498D01*
X118208793Y-112361226D01*
X118201526Y-112374918D01*
X118194189Y-112388572D01*
X118186781Y-112402189D01*
X118179303Y-112415767D01*
X118171755Y-112429306D01*
X118164137Y-112442807D01*
X118156449Y-112456268D01*
X118148692Y-112469689D01*
X118140866Y-112483070D01*
X118136927Y-112489746D01*
X118132971Y-112496411D01*
X118128997Y-112503066D01*
X118125007Y-112509711D01*
X118120999Y-112516345D01*
X118116974Y-112522969D01*
X118112932Y-112529583D01*
X118108873Y-112536186D01*
X118104797Y-112542779D01*
X118100704Y-112549361D01*
X118096595Y-112555933D01*
X118092468Y-112562494D01*
X118088324Y-112569044D01*
X118084163Y-112575583D01*
X118079986Y-112582112D01*
X118075791Y-112588630D01*
X118071580Y-112595137D01*
X118067352Y-112601633D01*
X118063108Y-112608118D01*
X118058847Y-112614592D01*
X118054569Y-112621055D01*
X118050274Y-112627507D01*
X118045963Y-112633948D01*
X118041635Y-112640378D01*
X118037291Y-112646796D01*
X118032930Y-112653204D01*
X118028553Y-112659599D01*
X118024159Y-112665984D01*
X118019749Y-112672357D01*
X118015322Y-112678718D01*
X118010879Y-112685068D01*
X118006419Y-112691407D01*
X118001944Y-112697734D01*
X117997452Y-112704049D01*
X117992944Y-112710353D01*
X117988419Y-112716645D01*
X117983879Y-112722925D01*
X117979322Y-112729194D01*
X117974750Y-112735450D01*
X117970161Y-112741695D01*
X117965556Y-112747927D01*
X117960935Y-112754148D01*
X117956298Y-112760356D01*
X117951645Y-112766553D01*
X117946976Y-112772738D01*
X117942291Y-112778910D01*
X117937591Y-112785070D01*
X117932874Y-112791218D01*
X117928142Y-112797354D01*
X117923394Y-112803477D01*
X117918631Y-112809588D01*
X117913851Y-112815687D01*
X117909056Y-112821773D01*
X117904246Y-112827846D01*
X117899420Y-112833907D01*
X117894578Y-112839956D01*
X117889720Y-112845992D01*
X117884847Y-112852015D01*
X117879959Y-112858026D01*
X117875055Y-112864024D01*
X117870137Y-112870008D01*
X117865202Y-112875981D01*
X117860252Y-112881940D01*
X117855287Y-112887887D01*
X117850307Y-112893820D01*
X117845311Y-112899741D01*
X117840301Y-112905648D01*
X117835274Y-112911543D01*
X117830234Y-112917424D01*
X117825177Y-112923293D01*
X117820106Y-112929147D01*
X117815020Y-112934990D01*
X117809919Y-112940818D01*
X117804802Y-112946634D01*
X117799672Y-112952435D01*
X117794525Y-112958224D01*
X117789365Y-112963999D01*
X117784189Y-112969762D01*
X117778999Y-112975509D01*
X117773793Y-112981245D01*
X117768574Y-112986966D01*
X117763339Y-112992674D01*
X117758090Y-112998367D01*
X117752826Y-113004048D01*
X117747548Y-113009714D01*
X117742255Y-113015368D01*
X117736948Y-113021006D01*
X117731625Y-113026632D01*
X117726289Y-113032243D01*
X117720938Y-113037841D01*
X117715574Y-113043424D01*
X117710194Y-113048994D01*
X117704801Y-113054550D01*
X117699392Y-113060092D01*
X117693970Y-113065619D01*
X117688534Y-113071133D01*
X117683084Y-113076632D01*
X117677618Y-113082117D01*
X117672140Y-113087588D01*
X117666647Y-113093045D01*
X117661141Y-113098487D01*
X117655619Y-113103915D01*
X117650085Y-113109329D01*
X117644536Y-113114728D01*
X117638974Y-113120113D01*
X117633397Y-113125484D01*
X117627808Y-113130839D01*
X117622203Y-113136181D01*
X117616586Y-113141508D01*
X117610954Y-113146821D01*
X117605310Y-113152118D01*
X117599651Y-113157401D01*
X117593979Y-113162669D01*
X117588293Y-113167923D01*
X117582594Y-113173162D01*
X117576881Y-113178386D01*
X117571156Y-113183595D01*
X117565415Y-113188790D01*
X117559663Y-113193969D01*
X117553896Y-113199134D01*
X117548117Y-113204284D01*
X117542324Y-113209419D01*
X117536518Y-113214538D01*
X117530698Y-113219643D01*
X117524867Y-113224732D01*
X117519020Y-113229808D01*
X117513162Y-113234866D01*
X117507290Y-113239911D01*
X117501406Y-113244940D01*
X117495507Y-113249954D01*
X117489597Y-113254952D01*
X117483673Y-113259936D01*
X117477737Y-113264903D01*
X117471787Y-113269857D01*
X117465826Y-113274793D01*
X117459850Y-113279716D01*
X117453863Y-113284622D01*
X117447862Y-113289513D01*
X117441850Y-113294388D01*
X117435824Y-113299249D01*
X117429786Y-113304093D01*
X117423734Y-113308922D01*
X117417672Y-113313735D01*
X117411595Y-113318533D01*
X117405508Y-113323314D01*
X117399406Y-113328081D01*
X117393294Y-113332831D01*
X117387168Y-113337567D01*
X117381031Y-113342285D01*
X117374880Y-113346989D01*
X117368718Y-113351676D01*
X117362543Y-113356348D01*
X117356357Y-113361003D01*
X117350157Y-113365644D01*
X117343947Y-113370267D01*
X117337723Y-113374876D01*
X117331489Y-113379467D01*
X117325241Y-113384044D01*
X117318983Y-113388603D01*
X117312711Y-113393147D01*
X117306429Y-113397675D01*
X117300133Y-113402187D01*
X117293827Y-113406682D01*
X117287508Y-113411162D01*
X117281179Y-113415624D01*
X117274836Y-113420072D01*
X117268483Y-113424502D01*
X117262117Y-113428917D01*
X117255741Y-113433315D01*
X117249351Y-113437697D01*
X117242952Y-113442062D01*
X117236540Y-113446412D01*
X117230117Y-113450745D01*
X117223682Y-113455061D01*
X117217237Y-113459361D01*
X117210778Y-113463645D01*
X117204310Y-113467912D01*
X117197829Y-113472163D01*
X117191339Y-113476396D01*
X117184835Y-113480614D01*
X117178322Y-113484815D01*
X117171796Y-113489000D01*
X117165261Y-113493167D01*
X117158713Y-113497318D01*
X117152155Y-113501452D01*
X117145584Y-113505571D01*
X117139005Y-113509671D01*
X117132412Y-113513756D01*
X117125811Y-113517823D01*
X117119196Y-113521875D01*
X117112573Y-113525908D01*
X117105936Y-113529926D01*
X117099291Y-113533926D01*
X117092633Y-113537910D01*
X117085966Y-113541876D01*
X117079287Y-113545826D01*
X117072599Y-113549759D01*
X117065898Y-113553675D01*
X117059189Y-113557574D01*
X117052466Y-113561456D01*
X117045736Y-113565321D01*
X117038993Y-113569169D01*
X117032241Y-113573000D01*
X117025477Y-113576814D01*
X117018704Y-113580610D01*
X117011919Y-113584391D01*
X117009124Y-113585941D01*
D11*
X117009124Y-113585941D02*
X102509125Y-121619927D01*
D10*
X102509125Y-121619927D02*
X102495533Y-121627412D01*
X102481905Y-121634826D01*
X102468240Y-121642169D01*
X102454541Y-121649439D01*
X102440805Y-121656638D01*
X102427035Y-121663765D01*
X102413230Y-121670821D01*
X102399391Y-121677803D01*
X102385518Y-121684714D01*
X102371610Y-121691552D01*
X102357669Y-121698318D01*
X102343695Y-121705010D01*
X102329688Y-121711630D01*
X102315648Y-121718177D01*
X102301575Y-121724651D01*
X102287471Y-121731052D01*
X102273334Y-121737379D01*
X102259167Y-121743633D01*
X102244968Y-121749813D01*
X102230738Y-121755919D01*
X102216478Y-121761952D01*
X102202187Y-121767910D01*
X102187867Y-121773794D01*
X102173517Y-121779604D01*
X102159137Y-121785340D01*
X102144729Y-121791001D01*
X102130292Y-121796587D01*
X102115827Y-121802098D01*
X102101334Y-121807535D01*
X102086814Y-121812896D01*
X102072266Y-121818183D01*
X102057691Y-121823394D01*
X102043090Y-121828529D01*
X102028462Y-121833589D01*
X102013809Y-121838574D01*
X101999130Y-121843482D01*
X101984426Y-121848315D01*
X101969697Y-121853072D01*
X101954943Y-121857752D01*
X101940166Y-121862357D01*
X101925364Y-121866885D01*
X101910540Y-121871336D01*
X101895692Y-121875711D01*
X101880822Y-121880009D01*
X101865929Y-121884230D01*
X101851015Y-121888375D01*
X101836079Y-121892442D01*
X101821122Y-121896433D01*
X101806144Y-121900346D01*
X101791145Y-121904181D01*
X101776127Y-121907940D01*
X101761089Y-121911620D01*
X101746032Y-121915224D01*
X101730956Y-121918749D01*
X101715861Y-121922197D01*
X101700748Y-121925566D01*
X101685618Y-121928858D01*
X101670471Y-121932072D01*
X101655306Y-121935207D01*
X101640125Y-121938264D01*
X101624928Y-121941243D01*
X101609715Y-121944144D01*
X101594487Y-121946966D01*
X101579244Y-121949709D01*
X101563987Y-121952374D01*
X101548715Y-121954960D01*
X101533430Y-121957467D01*
X101518131Y-121959895D01*
X101502820Y-121962244D01*
X101487496Y-121964515D01*
X101472161Y-121966706D01*
X101456813Y-121968818D01*
X101441455Y-121970851D01*
X101426085Y-121972804D01*
X101410706Y-121974679D01*
X101395316Y-121976474D01*
X101379917Y-121978189D01*
X101364509Y-121979825D01*
X101349092Y-121981382D01*
X101333667Y-121982859D01*
X101318234Y-121984256D01*
X101302794Y-121985574D01*
X101287347Y-121986812D01*
X101271893Y-121987970D01*
X101256433Y-121989049D01*
X101240968Y-121990047D01*
X101225497Y-121990966D01*
X101210021Y-121991805D01*
X101194541Y-121992564D01*
X101179057Y-121993244D01*
X101163570Y-121993843D01*
X101148079Y-121994363D01*
X101132586Y-121994802D01*
X101117091Y-121995162D01*
X101101594Y-121995441D01*
X101086095Y-121995641D01*
X101070596Y-121995760D01*
X101055096Y-121995800D01*
X101047346Y-121995790D01*
X101039596Y-121995759D01*
X101031846Y-121995709D01*
X101024096Y-121995639D01*
X101016347Y-121995549D01*
X101008597Y-121995439D01*
X101000849Y-121995308D01*
X100993100Y-121995158D01*
X100985352Y-121994988D01*
X100977604Y-121994798D01*
X100969857Y-121994588D01*
X100962110Y-121994357D01*
X100954364Y-121994107D01*
X100946619Y-121993837D01*
X100938875Y-121993547D01*
X100931131Y-121993237D01*
X100923388Y-121992907D01*
X100915646Y-121992557D01*
X100907905Y-121992186D01*
X100900165Y-121991796D01*
X100892426Y-121991386D01*
X100884688Y-121990956D01*
X100876952Y-121990506D01*
X100869216Y-121990037D01*
X100861482Y-121989547D01*
X100853750Y-121989037D01*
X100846018Y-121988507D01*
X100838288Y-121987957D01*
X100830560Y-121987388D01*
X100822833Y-121986798D01*
X100815108Y-121986188D01*
X100807384Y-121985559D01*
X100799662Y-121984909D01*
X100791942Y-121984240D01*
X100784224Y-121983551D01*
X100776507Y-121982842D01*
X100768793Y-121982112D01*
X100761080Y-121981363D01*
X100753370Y-121980595D01*
X100745661Y-121979806D01*
X100737955Y-121978997D01*
X100730251Y-121978168D01*
X100722549Y-121977320D01*
X100714850Y-121976452D01*
X100707153Y-121975564D01*
X100699458Y-121974655D01*
X100691766Y-121973728D01*
X100684076Y-121972780D01*
X100676389Y-121971812D01*
X100668704Y-121970825D01*
X100661022Y-121969818D01*
X100653343Y-121968791D01*
X100645666Y-121967744D01*
X100637992Y-121966677D01*
X100630322Y-121965591D01*
X100622654Y-121964484D01*
X100614989Y-121963358D01*
X100607327Y-121962212D01*
X100599669Y-121961047D01*
X100592013Y-121959862D01*
X100584361Y-121958657D01*
X100576711Y-121957432D01*
X100569066Y-121956187D01*
X100561423Y-121954923D01*
X100553784Y-121953639D01*
X100546148Y-121952335D01*
X100538516Y-121951012D01*
X100530887Y-121949669D01*
X100523262Y-121948306D01*
X100515641Y-121946924D01*
X100508023Y-121945522D01*
X100500409Y-121944100D01*
X100492799Y-121942658D01*
X100485193Y-121941197D01*
X100477591Y-121939717D01*
X100469992Y-121938216D01*
X100462398Y-121936697D01*
X100454807Y-121935157D01*
X100447221Y-121933598D01*
X100439638Y-121932020D01*
X100432061Y-121930422D01*
X100424487Y-121928804D01*
X100416918Y-121927167D01*
X100409352Y-121925510D01*
X100401792Y-121923834D01*
X100394236Y-121922138D01*
X100386685Y-121920423D01*
X100379137Y-121918688D01*
X100371595Y-121916934D01*
X100364057Y-121915160D01*
X100356524Y-121913367D01*
X100348995Y-121911554D01*
X100341472Y-121909722D01*
X100333953Y-121907871D01*
X100326439Y-121906000D01*
X100318930Y-121904110D01*
X100311426Y-121902200D01*
X100303927Y-121900271D01*
X100296434Y-121898323D01*
X100288944Y-121896355D01*
X100281461Y-121894369D01*
X100273982Y-121892362D01*
X100266510Y-121890337D01*
X100259042Y-121888292D01*
X100251580Y-121886228D01*
X100244122Y-121884144D01*
X100236672Y-121882042D01*
X100229225Y-121879920D01*
X100221785Y-121877779D01*
X100214350Y-121875619D01*
X100206921Y-121873439D01*
X100199497Y-121871240D01*
X100192080Y-121869023D01*
X100184667Y-121866786D01*
X100177262Y-121864530D01*
X100169861Y-121862254D01*
X100162468Y-121859960D01*
X100155078Y-121857647D01*
X100147697Y-121855314D01*
X100140320Y-121852962D01*
X100132950Y-121850592D01*
X100125586Y-121848202D01*
X100118229Y-121845794D01*
X100110876Y-121843366D01*
X100103532Y-121840919D01*
X100096192Y-121838453D01*
X100088860Y-121835969D01*
X100081533Y-121833465D01*
X100074214Y-121830943D01*
X100066900Y-121828401D01*
X100059594Y-121825841D01*
X100052293Y-121823261D01*
X100045001Y-121820663D01*
X100037713Y-121818046D01*
X100030434Y-121815411D01*
X100023160Y-121812756D01*
X100015894Y-121810082D01*
X100008634Y-121807390D01*
X100001382Y-121804679D01*
X99994135Y-121801949D01*
X99986897Y-121799200D01*
X99979665Y-121796433D01*
X99972441Y-121793647D01*
X99965222Y-121790842D01*
X99958012Y-121788019D01*
X99950808Y-121785176D01*
X99943613Y-121782316D01*
X99936423Y-121779436D01*
X99929243Y-121776538D01*
X99922068Y-121773621D01*
X99914902Y-121770686D01*
X99907741Y-121767732D01*
X99900590Y-121764760D01*
X99893445Y-121761769D01*
X99886309Y-121758760D01*
X99879179Y-121755731D01*
X99872058Y-121752685D01*
X99864943Y-121749620D01*
X99857838Y-121746537D01*
X99850739Y-121743434D01*
X99843649Y-121740314D01*
X99836565Y-121737175D01*
X99829491Y-121734018D01*
X99822423Y-121730842D01*
X99815365Y-121727649D01*
X99808313Y-121724436D01*
X99801270Y-121721206D01*
X99794235Y-121717957D01*
X99787208Y-121714690D01*
X99780189Y-121711404D01*
X99773179Y-121708101D01*
X99766176Y-121704778D01*
X99759182Y-121701438D01*
X99752196Y-121698079D01*
X99745219Y-121694703D01*
X99738249Y-121691308D01*
X99731289Y-121687895D01*
X99724335Y-121684464D01*
X99717392Y-121681015D01*
X99710456Y-121677547D01*
X99703530Y-121674062D01*
X99696611Y-121670558D01*
X99689702Y-121667037D01*
X99682800Y-121663496D01*
X99675909Y-121659939D01*
X99669024Y-121656363D01*
X99662150Y-121652770D01*
X99655284Y-121649157D01*
X99648427Y-121645528D01*
X99641578Y-121641880D01*
X99634739Y-121638215D01*
X99627908Y-121634531D01*
X99621087Y-121630830D01*
X99614274Y-121627110D01*
X99601232Y-121619926D01*
D11*
X99601232Y-121619926D02*
X85101240Y-113585929D01*
X83555187Y-110961802D02*
X83555193Y-95104422D01*
D10*
X83555193Y-95104422D02*
X83555233Y-95088899D01*
X83555353Y-95073379D01*
X83555553Y-95057862D01*
X83555833Y-95042350D01*
X83556192Y-95026842D01*
X83556632Y-95011339D01*
X83557151Y-94995840D01*
X83557750Y-94980347D01*
X83558429Y-94964859D01*
X83559188Y-94949377D01*
X83560026Y-94933901D01*
X83560945Y-94918431D01*
X83561943Y-94902969D01*
X83563020Y-94887513D01*
X83564177Y-94872065D01*
X83565414Y-94856624D01*
X83566731Y-94841191D01*
X83568126Y-94825767D01*
X83569602Y-94810351D01*
X83571157Y-94794945D01*
X83572791Y-94779548D01*
X83574505Y-94764160D01*
X83576298Y-94748782D01*
X83578170Y-94733415D01*
X83580122Y-94718059D01*
X83582152Y-94702713D01*
X83584262Y-94687379D01*
X83586451Y-94672056D01*
X83588719Y-94656746D01*
X83591066Y-94641448D01*
X83593492Y-94626162D01*
X83595997Y-94610890D01*
X83598581Y-94595631D01*
X83601244Y-94580386D01*
X83603985Y-94565155D01*
X83606805Y-94549939D01*
X83609703Y-94534737D01*
X83612680Y-94519551D01*
X83615735Y-94504380D01*
X83618869Y-94489225D01*
X83622081Y-94474087D01*
X83625371Y-94458965D01*
X83628740Y-94443860D01*
X83632186Y-94428773D01*
X83635710Y-94413703D01*
X83639313Y-94398652D01*
X83642993Y-94383619D01*
X83646750Y-94368605D01*
X83650586Y-94353610D01*
X83654499Y-94338635D01*
X83658489Y-94323680D01*
X83662557Y-94308745D01*
X83666701Y-94293831D01*
X83670923Y-94278938D01*
X83675222Y-94264067D01*
X83679598Y-94249218D01*
X83684051Y-94234391D01*
X83688580Y-94219586D01*
X83693186Y-94204805D01*
X83697869Y-94190047D01*
X83702628Y-94175313D01*
X83707463Y-94160603D01*
X83712374Y-94145918D01*
X83717361Y-94131258D01*
X83722424Y-94116623D01*
X83727563Y-94102014D01*
X83732777Y-94087431D01*
X83738067Y-94072875D01*
X83743432Y-94058345D01*
X83748872Y-94043843D01*
X83754387Y-94029369D01*
X83759977Y-94014923D01*
X83765642Y-94000505D01*
X83771381Y-93986116D01*
X83777195Y-93971756D01*
X83783083Y-93957427D01*
X83789045Y-93943127D01*
X83795082Y-93928857D01*
X83801191Y-93914619D01*
X83807375Y-93900412D01*
X83813632Y-93886236D01*
X83819962Y-93872093D01*
X83826366Y-93857982D01*
X83832842Y-93843903D01*
X83839392Y-93829858D01*
X83846013Y-93815847D01*
X83852708Y-93801869D01*
X83859474Y-93787926D01*
X83866312Y-93774017D01*
X83873223Y-93760144D01*
X83880205Y-93746307D01*
X83887258Y-93732505D01*
X83894383Y-93718739D01*
X83901579Y-93705011D01*
X83908846Y-93691319D01*
X83916183Y-93677665D01*
X83923591Y-93664048D01*
X83931069Y-93650470D01*
X83938617Y-93636931D01*
X83946235Y-93623430D01*
X83953923Y-93609969D01*
X83961680Y-93596548D01*
X83969506Y-93583167D01*
X83973445Y-93576491D01*
X83977401Y-93569826D01*
X83981375Y-93563171D01*
X83985365Y-93556526D01*
X83989373Y-93549892D01*
X83993398Y-93543268D01*
X83997440Y-93536654D01*
X84001499Y-93530051D01*
X84005575Y-93523458D01*
X84009668Y-93516876D01*
X84013777Y-93510304D01*
X84017904Y-93503743D01*
X84022048Y-93497193D01*
X84026209Y-93490654D01*
X84030386Y-93484125D01*
X84034581Y-93477607D01*
X84038792Y-93471100D01*
X84043020Y-93464604D01*
X84047264Y-93458119D01*
X84051525Y-93451645D01*
X84055803Y-93445182D01*
X84060098Y-93438730D01*
X84064409Y-93432289D01*
X84068737Y-93425859D01*
X84073081Y-93419441D01*
X84077442Y-93413033D01*
X84081819Y-93406638D01*
X84086213Y-93400253D01*
X84090623Y-93393880D01*
X84095050Y-93387519D01*
X84099493Y-93381169D01*
X84103953Y-93374830D01*
X84108428Y-93368503D01*
X84112920Y-93362188D01*
X84117428Y-93355884D01*
X84121953Y-93349592D01*
X84126493Y-93343312D01*
X84131050Y-93337043D01*
X84135622Y-93330787D01*
X84140211Y-93324542D01*
X84144816Y-93318310D01*
X84149437Y-93312089D01*
X84154074Y-93305881D01*
X84158727Y-93299684D01*
X84163396Y-93293499D01*
X84168081Y-93287327D01*
X84172781Y-93281167D01*
X84177498Y-93275019D01*
X84182230Y-93268883D01*
X84186978Y-93262760D01*
X84191741Y-93256649D01*
X84196521Y-93250550D01*
X84201316Y-93244464D01*
X84206126Y-93238391D01*
X84210952Y-93232330D01*
X84215794Y-93226281D01*
X84220652Y-93220245D01*
X84225525Y-93214222D01*
X84230413Y-93208211D01*
X84235317Y-93202213D01*
X84240235Y-93196229D01*
X84245170Y-93190256D01*
X84250120Y-93184297D01*
X84255085Y-93178350D01*
X84260065Y-93172417D01*
X84265061Y-93166496D01*
X84270071Y-93160589D01*
X84275098Y-93154694D01*
X84280138Y-93148813D01*
X84285195Y-93142944D01*
X84290266Y-93137090D01*
X84295352Y-93131247D01*
X84300453Y-93125419D01*
X84305570Y-93119603D01*
X84310700Y-93113802D01*
X84315847Y-93108013D01*
X84321007Y-93102238D01*
X84326183Y-93096475D01*
X84331373Y-93090728D01*
X84336579Y-93084992D01*
X84341798Y-93079271D01*
X84347033Y-93073563D01*
X84352282Y-93067870D01*
X84357546Y-93062189D01*
X84362824Y-93056523D01*
X84368117Y-93050869D01*
X84373424Y-93045231D01*
X84378747Y-93039605D01*
X84384083Y-93033994D01*
X84389434Y-93028396D01*
X84394798Y-93022813D01*
X84400178Y-93017243D01*
X84405571Y-93011687D01*
X84410980Y-93006145D01*
X84416402Y-93000618D01*
X84421838Y-92995104D01*
X84427288Y-92989605D01*
X84432754Y-92984120D01*
X84438232Y-92978649D01*
X84443725Y-92973192D01*
X84449231Y-92967750D01*
X84454753Y-92962322D01*
X84460287Y-92956908D01*
X84465836Y-92951509D01*
X84471398Y-92946124D01*
X84476975Y-92940753D01*
X84482564Y-92935398D01*
X84488169Y-92930056D01*
X84493786Y-92924729D01*
X84499418Y-92919416D01*
X84505062Y-92914119D01*
X84510721Y-92908836D01*
X84516393Y-92903568D01*
X84522079Y-92898314D01*
X84527778Y-92893075D01*
X84533491Y-92887851D01*
X84539216Y-92882642D01*
X84544957Y-92877447D01*
X84550709Y-92872268D01*
X84556476Y-92867103D01*
X84562255Y-92861953D01*
X84568048Y-92856818D01*
X84573854Y-92851699D01*
X84579674Y-92846594D01*
X84585505Y-92841505D01*
X84591352Y-92836429D01*
X84597210Y-92831371D01*
X84603082Y-92826326D01*
X84608966Y-92821297D01*
X84614865Y-92816283D01*
X84620775Y-92811285D01*
X84626699Y-92806301D01*
X84632635Y-92801334D01*
X84638585Y-92796380D01*
X84644546Y-92791444D01*
X84650522Y-92786521D01*
X84656509Y-92781615D01*
X84662510Y-92776724D01*
X84668522Y-92771849D01*
X84674548Y-92766988D01*
X84680586Y-92762144D01*
X84686638Y-92757315D01*
X84692700Y-92752502D01*
X84698777Y-92747704D01*
X84704864Y-92742923D01*
X84710966Y-92738156D01*
X84717078Y-92733406D01*
X84723204Y-92728670D01*
X84729341Y-92723952D01*
X84735492Y-92719248D01*
X84741654Y-92714561D01*
X84747829Y-92709889D01*
X84754015Y-92705234D01*
X84760215Y-92700593D01*
X84766425Y-92695970D01*
X84772649Y-92691361D01*
X84778883Y-92686770D01*
X84785131Y-92682193D01*
X84791389Y-92677634D01*
X84797661Y-92673090D01*
X84803943Y-92668562D01*
X84810239Y-92664050D01*
X84816545Y-92659555D01*
X84822864Y-92655075D01*
X84829193Y-92650613D01*
X84835536Y-92646165D01*
X84841889Y-92641735D01*
X84848255Y-92637320D01*
X84854631Y-92632922D01*
X84861021Y-92628540D01*
X84867420Y-92624175D01*
X84873832Y-92619825D01*
X84880255Y-92615492D01*
X84886690Y-92611176D01*
X84893135Y-92606876D01*
X84899594Y-92602592D01*
X84906062Y-92598325D01*
X84912543Y-92594074D01*
X84919033Y-92589841D01*
X84925537Y-92585623D01*
X84932050Y-92581422D01*
X84938576Y-92577237D01*
X84945111Y-92573070D01*
X84951659Y-92568919D01*
X84958217Y-92564785D01*
X84964788Y-92560666D01*
X84971367Y-92556566D01*
X84977960Y-92552481D01*
X84984561Y-92548414D01*
X84991176Y-92544362D01*
X84997799Y-92540329D01*
X85004436Y-92536311D01*
X85011081Y-92532311D01*
X85017739Y-92528327D01*
X85024406Y-92524361D01*
X85031085Y-92520411D01*
X85037773Y-92516478D01*
X85044474Y-92512562D01*
X85051183Y-92508663D01*
X85057906Y-92504781D01*
X85064636Y-92500916D01*
X85071379Y-92497068D01*
X85078131Y-92493237D01*
X85084895Y-92489423D01*
X85091668Y-92485627D01*
X85098453Y-92481846D01*
X85101248Y-92480296D01*
M02*
