%TF.GenerationSoftware,KiCad,Pcbnew,9.0.6*%
%TF.CreationDate,2025-11-25T14:35:56-05:00*%
%TF.ProjectId,Badge_NFC,42616467-655f-44e4-9643-2e6b69636164,rev?*%
%TF.SameCoordinates,Original*%
%TF.FileFunction,Copper,L1,Top*%
%TF.FilePolarity,Positive*%
%FSLAX46Y46*%
G04 Gerber Fmt 4.6, Leading zero omitted, Abs format (unit mm)*
G04 Created by KiCad (PCBNEW 9.0.6) date 2025-11-25 14:35:56*
%MOMM*%
%LPD*%
G01*
G04 APERTURE LIST*
G04 Aperture macros list*
%AMRoundRect*
0 Rectangle with rounded corners*
0 $1 Rounding radius*
0 $2 $3 $4 $5 $6 $7 $8 $9 X,Y pos of 4 corners*
0 Add a 4 corners polygon primitive as box body*
4,1,4,$2,$3,$4,$5,$6,$7,$8,$9,$2,$3,0*
0 Add four circle primitives for the rounded corners*
1,1,$1+$1,$2,$3*
1,1,$1+$1,$4,$5*
1,1,$1+$1,$6,$7*
1,1,$1+$1,$8,$9*
0 Add four rect primitives between the rounded corners*
20,1,$1+$1,$2,$3,$4,$5,0*
20,1,$1+$1,$4,$5,$6,$7,0*
20,1,$1+$1,$6,$7,$8,$9,0*
20,1,$1+$1,$8,$9,$2,$3,0*%
G04 Aperture macros list end*
%ADD10C,0.300000*%
%TA.AperFunction,NonConductor*%
%ADD11C,0.300000*%
%TD*%
%ADD12C,0.250000*%
%TA.AperFunction,NonConductor*%
%ADD13C,0.250000*%
%TD*%
%TA.AperFunction,NonConductor*%
%ADD14C,0.200000*%
%TD*%
%TA.AperFunction,EtchedComponent*%
%ADD15C,0.355000*%
%TD*%
%TA.AperFunction,SMDPad,CuDef*%
%ADD16RoundRect,0.059400X0.290600X-0.050600X0.290600X0.050600X-0.290600X0.050600X-0.290600X-0.050600X0*%
%TD*%
%TA.AperFunction,SMDPad,CuDef*%
%ADD17RoundRect,0.059400X0.050600X-0.290600X0.050600X0.290600X-0.050600X0.290600X-0.050600X-0.290600X0*%
%TD*%
%TA.AperFunction,SMDPad,CuDef*%
%ADD18RoundRect,0.059400X0.050600X-0.295600X0.050600X0.295600X-0.050600X0.295600X-0.050600X-0.295600X0*%
%TD*%
%TA.AperFunction,ComponentPad*%
%ADD19C,0.600000*%
%TD*%
%TA.AperFunction,SMDPad,CuDef*%
%ADD20RoundRect,0.088750X-1.331250X-0.088750X1.331250X-0.088750X1.331250X0.088750X-1.331250X0.088750X0*%
%TD*%
%TA.AperFunction,SMDPad,CuDef*%
%ADD21R,0.870000X0.930000*%
%TD*%
%TA.AperFunction,SMDPad,CuDef*%
%ADD22RoundRect,0.108750X0.356250X-0.326250X0.356250X0.326250X-0.356250X0.326250X-0.356250X-0.326250X0*%
%TD*%
%TA.AperFunction,SMDPad,CuDef*%
%ADD23R,0.660400X0.812800*%
%TD*%
%TA.AperFunction,ViaPad*%
%ADD24C,0.600000*%
%TD*%
%TA.AperFunction,Conductor*%
%ADD25C,0.200000*%
%TD*%
G04 APERTURE END LIST*
D10*
D11*
X99054510Y-118800828D02*
X99054510Y-117300828D01*
X99054510Y-117300828D02*
X99911653Y-118800828D01*
X99911653Y-118800828D02*
X99911653Y-117300828D01*
X101125939Y-118015114D02*
X100625939Y-118015114D01*
X100625939Y-118800828D02*
X100625939Y-117300828D01*
X100625939Y-117300828D02*
X101340225Y-117300828D01*
X102768796Y-118657971D02*
X102697368Y-118729400D01*
X102697368Y-118729400D02*
X102483082Y-118800828D01*
X102483082Y-118800828D02*
X102340225Y-118800828D01*
X102340225Y-118800828D02*
X102125939Y-118729400D01*
X102125939Y-118729400D02*
X101983082Y-118586542D01*
X101983082Y-118586542D02*
X101911653Y-118443685D01*
X101911653Y-118443685D02*
X101840225Y-118157971D01*
X101840225Y-118157971D02*
X101840225Y-117943685D01*
X101840225Y-117943685D02*
X101911653Y-117657971D01*
X101911653Y-117657971D02*
X101983082Y-117515114D01*
X101983082Y-117515114D02*
X102125939Y-117372257D01*
X102125939Y-117372257D02*
X102340225Y-117300828D01*
X102340225Y-117300828D02*
X102483082Y-117300828D01*
X102483082Y-117300828D02*
X102697368Y-117372257D01*
X102697368Y-117372257D02*
X102768796Y-117443685D01*
D10*
D11*
X98054510Y-88515114D02*
X98268796Y-88586542D01*
X98268796Y-88586542D02*
X98340225Y-88657971D01*
X98340225Y-88657971D02*
X98411653Y-88800828D01*
X98411653Y-88800828D02*
X98411653Y-89015114D01*
X98411653Y-89015114D02*
X98340225Y-89157971D01*
X98340225Y-89157971D02*
X98268796Y-89229400D01*
X98268796Y-89229400D02*
X98125939Y-89300828D01*
X98125939Y-89300828D02*
X97554510Y-89300828D01*
X97554510Y-89300828D02*
X97554510Y-87800828D01*
X97554510Y-87800828D02*
X98054510Y-87800828D01*
X98054510Y-87800828D02*
X98197368Y-87872257D01*
X98197368Y-87872257D02*
X98268796Y-87943685D01*
X98268796Y-87943685D02*
X98340225Y-88086542D01*
X98340225Y-88086542D02*
X98340225Y-88229400D01*
X98340225Y-88229400D02*
X98268796Y-88372257D01*
X98268796Y-88372257D02*
X98197368Y-88443685D01*
X98197368Y-88443685D02*
X98054510Y-88515114D01*
X98054510Y-88515114D02*
X97554510Y-88515114D01*
X98983082Y-88872257D02*
X99697368Y-88872257D01*
X98840225Y-89300828D02*
X99340225Y-87800828D01*
X99340225Y-87800828D02*
X99840225Y-89300828D01*
X100340224Y-89300828D02*
X100340224Y-87800828D01*
X100340224Y-87800828D02*
X100697367Y-87800828D01*
X100697367Y-87800828D02*
X100911653Y-87872257D01*
X100911653Y-87872257D02*
X101054510Y-88015114D01*
X101054510Y-88015114D02*
X101125939Y-88157971D01*
X101125939Y-88157971D02*
X101197367Y-88443685D01*
X101197367Y-88443685D02*
X101197367Y-88657971D01*
X101197367Y-88657971D02*
X101125939Y-88943685D01*
X101125939Y-88943685D02*
X101054510Y-89086542D01*
X101054510Y-89086542D02*
X100911653Y-89229400D01*
X100911653Y-89229400D02*
X100697367Y-89300828D01*
X100697367Y-89300828D02*
X100340224Y-89300828D01*
X102625939Y-87872257D02*
X102483082Y-87800828D01*
X102483082Y-87800828D02*
X102268796Y-87800828D01*
X102268796Y-87800828D02*
X102054510Y-87872257D01*
X102054510Y-87872257D02*
X101911653Y-88015114D01*
X101911653Y-88015114D02*
X101840224Y-88157971D01*
X101840224Y-88157971D02*
X101768796Y-88443685D01*
X101768796Y-88443685D02*
X101768796Y-88657971D01*
X101768796Y-88657971D02*
X101840224Y-88943685D01*
X101840224Y-88943685D02*
X101911653Y-89086542D01*
X101911653Y-89086542D02*
X102054510Y-89229400D01*
X102054510Y-89229400D02*
X102268796Y-89300828D01*
X102268796Y-89300828D02*
X102411653Y-89300828D01*
X102411653Y-89300828D02*
X102625939Y-89229400D01*
X102625939Y-89229400D02*
X102697367Y-89157971D01*
X102697367Y-89157971D02*
X102697367Y-88657971D01*
X102697367Y-88657971D02*
X102411653Y-88657971D01*
X103340224Y-88515114D02*
X103840224Y-88515114D01*
X104054510Y-89300828D02*
X103340224Y-89300828D01*
X103340224Y-89300828D02*
X103340224Y-87800828D01*
X103340224Y-87800828D02*
X104054510Y-87800828D01*
D12*
D13*
X110875832Y-92597996D02*
X110780594Y-92645615D01*
X110780594Y-92645615D02*
X110590118Y-92645615D01*
X110590118Y-92645615D02*
X110494880Y-92597996D01*
X110494880Y-92597996D02*
X110447261Y-92550376D01*
X110447261Y-92550376D02*
X110399642Y-92455138D01*
X110399642Y-92455138D02*
X110399642Y-92169424D01*
X110399642Y-92169424D02*
X110447261Y-92074186D01*
X110447261Y-92074186D02*
X110494880Y-92026567D01*
X110494880Y-92026567D02*
X110590118Y-91978948D01*
X110590118Y-91978948D02*
X110780594Y-91978948D01*
X110780594Y-91978948D02*
X110875832Y-92026567D01*
D14*
X113519456Y-99874142D02*
G75*
G02*
X113376088Y-99874142I-71684J0D01*
G01*
X113376088Y-99874142D02*
G75*
G02*
X113519456Y-99874142I71684J0D01*
G01*
D15*
%TO.C,L1*%
X113580000Y-103155000D02*
G75*
G02*
X88575000Y-103155000I-12502500J500D01*
G01*
X112865000Y-103155000D02*
G75*
G02*
X89290000Y-103155000I-11787500J500D01*
G01*
X112150000Y-103155000D02*
G75*
G02*
X90005000Y-103155000I-11072500J500D01*
G01*
X111435000Y-103155000D02*
G75*
G02*
X90720000Y-103155000I-10357500J500D01*
G01*
X110720000Y-103155000D02*
G75*
G02*
X91435000Y-103155000I-9642500J-500D01*
G01*
X110005000Y-103155000D02*
G75*
G02*
X92150000Y-103155000I-8927500J-500D01*
G01*
X109290000Y-103155000D02*
G75*
G02*
X92865000Y-103155000I-8212500J-500D01*
G01*
X108575000Y-103155000D02*
G75*
G02*
X93580000Y-103155000I-7497500J500D01*
G01*
X107860000Y-103155000D02*
G75*
G02*
X94295000Y-103155000I-6782500J500D01*
G01*
X107145000Y-103155000D02*
G75*
G02*
X95010000Y-103155000I-6067500J500D01*
G01*
X106430000Y-103155000D02*
G75*
G02*
X95725000Y-103155000I-5352500J-500D01*
G01*
X105715000Y-103155000D02*
G75*
G02*
X96440000Y-103155000I-4637500J-500D01*
G01*
X105000000Y-103155000D02*
G75*
G02*
X97155000Y-103155000I-3922500J-500D01*
G01*
X104285000Y-103155000D02*
G75*
G02*
X97870000Y-103155000I-3207500J-500D01*
G01*
X103570000Y-103155000D02*
G75*
G02*
X98585000Y-103155000I-2492500J-500D01*
G01*
X102855000Y-103155000D02*
G75*
G02*
X99300000Y-103155000I-1777500J-500D01*
G01*
X99300000Y-103155000D02*
G75*
G02*
X102140000Y-103155000I1420000J0D01*
G01*
X98585000Y-103155000D02*
G75*
G02*
X102855000Y-103155000I2135000J0D01*
G01*
X97870000Y-103155000D02*
G75*
G02*
X103570000Y-103155000I2850000J0D01*
G01*
X97155000Y-103155000D02*
G75*
G02*
X104285000Y-103155000I3565000J0D01*
G01*
X96440000Y-103155000D02*
G75*
G02*
X105000000Y-103155000I4280000J0D01*
G01*
X95725000Y-103155000D02*
G75*
G02*
X105715000Y-103155000I4995000J0D01*
G01*
X95010000Y-103155000D02*
G75*
G02*
X106430000Y-103155000I5710000J0D01*
G01*
X94295000Y-103155000D02*
G75*
G02*
X107145000Y-103155000I6425000J0D01*
G01*
X93580000Y-103155000D02*
G75*
G02*
X107860000Y-103155000I7140000J0D01*
G01*
X92865000Y-103155000D02*
G75*
G02*
X108575000Y-103155000I7855000J0D01*
G01*
X92150000Y-103155000D02*
G75*
G02*
X109290000Y-103155000I8570000J0D01*
G01*
X91435000Y-103155000D02*
G75*
G02*
X110005000Y-103155000I9285000J0D01*
G01*
X90720000Y-103155000D02*
G75*
G02*
X110720000Y-103155000I10000000J0D01*
G01*
X90005000Y-103155000D02*
G75*
G02*
X111435000Y-103155000I10715000J0D01*
G01*
X89290000Y-103155000D02*
G75*
G02*
X112150000Y-103155000I11430000J0D01*
G01*
X88575000Y-103155000D02*
G75*
G02*
X112865000Y-103155000I12145000J0D01*
G01*
X113580000Y-103155000D02*
X113580000Y-102000000D01*
X113580000Y-102000000D02*
X114435000Y-102000000D01*
X102140000Y-103155000D02*
X100825000Y-103155000D01*
%TD*%
D16*
%TO.P,U1,8,LB*%
%TO.N,Net-(U1-LB)*%
X114305000Y-98695000D03*
D17*
%TO.P,U1,7,VOUT*%
%TO.N,Net-(U1-VCC)*%
X114500000Y-98000000D03*
%TO.P,U1,6,VCC*%
X115000000Y-98000000D03*
%TO.P,U1,5,SDA*%
%TO.N,unconnected-(U1-SDA-Pad5)*%
X115500000Y-98000000D03*
D16*
%TO.P,U1,4,FD*%
%TO.N,unconnected-(U1-FD-Pad4)*%
X115695000Y-98695000D03*
D17*
%TO.P,U1,3,SCL*%
%TO.N,unconnected-(U1-SCL-Pad3)*%
X115500000Y-99390000D03*
D18*
%TO.P,U1,2,VSS*%
%TO.N,Net-(U1-VSS)*%
X115000000Y-99390000D03*
%TO.P,U1,1,LA*%
%TO.N,Net-(U1-LA)*%
X114500000Y-99390000D03*
%TD*%
D19*
%TO.P,L1,2*%
%TO.N,Net-(U1-LB)*%
X100825000Y-103155000D03*
D20*
%TO.P,L1,1*%
%TO.N,Net-(U1-LA)*%
X115500000Y-102000000D03*
%TD*%
D21*
%TO.P,R1,1*%
%TO.N,Net-(U1-VCC)*%
X112440000Y-96000000D03*
%TO.P,R1,2*%
%TO.N,Net-(LED1-Pad2)*%
X114000000Y-96000000D03*
%TD*%
D22*
%TO.P,C1,2*%
%TO.N,Net-(U1-VSS)*%
X109000000Y-90500000D03*
%TO.P,C1,1*%
%TO.N,Net-(U1-VCC)*%
X109000000Y-92060000D03*
%TD*%
D23*
%TO.P,LED1,2*%
%TO.N,Net-(LED1-Pad2)*%
X113500000Y-92325500D03*
%TO.P,LED1,1*%
%TO.N,Net-(U1-VSS)*%
X111849000Y-92325500D03*
%TD*%
D24*
%TO.N,Net-(U1-LB)*%
X113000000Y-99000000D03*
%TD*%
D25*
%TO.N,Net-(U1-VSS)*%
X116932900Y-103000000D02*
X117500000Y-102432900D01*
X105000000Y-117500000D02*
X106000000Y-116500000D01*
X104500000Y-117500000D02*
X105000000Y-117500000D01*
X104500000Y-90000000D02*
X105000000Y-89500000D01*
X108500000Y-116500000D02*
X110000000Y-115000000D01*
X87000000Y-97000000D02*
X84500000Y-99500000D01*
X87000000Y-94500000D02*
X87000000Y-97000000D01*
X109000000Y-90500000D02*
X107500000Y-90500000D01*
X85500000Y-109000000D02*
X88000000Y-111500000D01*
X106000000Y-91000000D02*
X105500000Y-91000000D01*
X94000000Y-90500000D02*
X91500000Y-93000000D01*
%TO.N,Net-(U1-VCC)*%
X115000000Y-97000000D02*
X115000000Y-98000000D01*
X114500000Y-98000000D02*
X114500000Y-97000000D01*
%TO.N,Net-(U1-VSS)*%
X103500000Y-116500000D02*
X104500000Y-117500000D01*
X106500000Y-90500000D02*
X106000000Y-91000000D01*
%TO.N,Net-(U1-VCC)*%
X110440000Y-93500000D02*
X110440000Y-94440000D01*
X114500000Y-97000000D02*
X115000000Y-97000000D01*
%TO.N,Net-(U1-VSS)*%
X111000000Y-115000000D02*
X115500000Y-110500000D01*
X105000000Y-87000000D02*
X97000000Y-87000000D01*
X96500000Y-116500000D02*
X103500000Y-116500000D01*
X115500000Y-103000000D02*
X116932900Y-103000000D01*
X86000000Y-107000000D02*
X85500000Y-107500000D01*
X105000000Y-90500000D02*
X94000000Y-90500000D01*
X105000000Y-89500000D02*
X105500000Y-89500000D01*
X105500000Y-91000000D02*
X105000000Y-90500000D01*
X96500000Y-89500000D02*
X97000000Y-90000000D01*
X105500000Y-87500000D02*
X105000000Y-87000000D01*
X84500000Y-103500000D02*
X86000000Y-105000000D01*
X94000000Y-117500000D02*
X95500000Y-117500000D01*
X117500000Y-101067100D02*
X116932900Y-100500000D01*
X107500000Y-90500000D02*
X105500000Y-88500000D01*
X115000000Y-100000000D02*
X115000000Y-99390000D01*
X115500000Y-107000000D02*
X114849000Y-106349000D01*
X106000000Y-116500000D02*
X108500000Y-116500000D01*
X116932900Y-100500000D02*
X115500000Y-100500000D01*
X85500000Y-107500000D02*
X85500000Y-109000000D01*
X88500000Y-93000000D02*
X87000000Y-94500000D01*
X92000000Y-114000000D02*
X92000000Y-115500000D01*
X117500000Y-102432900D02*
X117500000Y-101067100D01*
%TO.N,Net-(U1-VCC)*%
X110440000Y-94440000D02*
X111000000Y-95000000D01*
%TO.N,Net-(LED1-Pad2)*%
X113500000Y-92500000D02*
X114000000Y-93000000D01*
%TO.N,Net-(U1-VCC)*%
X112000000Y-95000000D02*
X112440000Y-95440000D01*
%TO.N,Net-(U1-LA)*%
X114500000Y-101000000D02*
X115500000Y-102000000D01*
%TO.N,Net-(U1-VCC)*%
X112440000Y-95440000D02*
X112440000Y-96000000D01*
X111000000Y-95000000D02*
X112000000Y-95000000D01*
%TO.N,Net-(U1-LB)*%
X114305000Y-98695000D02*
X113305000Y-98695000D01*
%TO.N,Net-(U1-VCC)*%
X109000000Y-92060000D02*
X110440000Y-93500000D01*
%TO.N,Net-(U1-LA)*%
X114500000Y-99390000D02*
X114500000Y-101000000D01*
%TO.N,Net-(LED1-Pad2)*%
X113500000Y-92325500D02*
X113500000Y-92500000D01*
X114000000Y-93000000D02*
X114000000Y-96000000D01*
%TO.N,Net-(U1-VSS)*%
X114849000Y-103651000D02*
X115500000Y-103000000D01*
X105500000Y-89500000D02*
X106500000Y-90500000D01*
X110000000Y-115000000D02*
X111000000Y-115000000D01*
X109000000Y-90500000D02*
X110023500Y-90500000D01*
X97000000Y-90000000D02*
X104500000Y-90000000D01*
X110023500Y-90500000D02*
X111849000Y-92325500D01*
X114849000Y-106349000D02*
X114849000Y-103651000D01*
X89500000Y-111500000D02*
X92000000Y-114000000D01*
X91500000Y-93000000D02*
X88500000Y-93000000D01*
X95500000Y-117500000D02*
X96500000Y-116500000D01*
X88000000Y-111500000D02*
X89500000Y-111500000D01*
X97000000Y-87000000D02*
X96500000Y-87500000D01*
X115500000Y-100500000D02*
X115000000Y-100000000D01*
X105500000Y-88500000D02*
X105500000Y-87500000D01*
X86000000Y-105000000D02*
X86000000Y-107000000D01*
X84500000Y-99500000D02*
X84500000Y-103500000D01*
X115500000Y-110500000D02*
X115500000Y-107000000D01*
X92000000Y-115500000D02*
X94000000Y-117500000D01*
X96500000Y-87500000D02*
X96500000Y-89500000D01*
%TO.N,Net-(U1-LA)*%
X115500000Y-102000000D02*
X115250000Y-101750000D01*
%TO.N,Net-(U1-VCC)*%
X113000000Y-98000000D02*
X112440000Y-97440000D01*
X112440000Y-97440000D02*
X112440000Y-96000000D01*
X114500000Y-98000000D02*
X113000000Y-98000000D01*
%TO.N,Net-(U1-LB)*%
X113000000Y-99000000D02*
X113305000Y-98695000D01*
X100825000Y-103155000D02*
X100845000Y-103155000D01*
%TD*%
%TA.AperFunction,Conductor*%
%TO.N,Net-(U1-VCC)*%
G36*
X112447984Y-96007593D02*
G01*
X112448553Y-96008162D01*
X112868225Y-96457742D01*
X112871365Y-96466128D01*
X112868942Y-96472865D01*
X112543512Y-96895439D01*
X112535749Y-96899903D01*
X112534242Y-96900000D01*
X112345758Y-96900000D01*
X112337485Y-96896573D01*
X112336488Y-96895439D01*
X112011057Y-96472865D01*
X112008724Y-96464219D01*
X112011772Y-96457744D01*
X112431447Y-96008161D01*
X112439598Y-96004453D01*
X112447984Y-96007593D01*
G37*
%TD.AperFunction*%
%TD*%
%TA.AperFunction,Conductor*%
%TO.N,Net-(U1-LB)*%
G36*
X113462592Y-98599618D02*
G01*
X113467649Y-98607008D01*
X113467900Y-98609417D01*
X113467900Y-98791815D01*
X113466287Y-98797744D01*
X113255710Y-99156005D01*
X113248563Y-99161401D01*
X113239694Y-99160163D01*
X113239141Y-99159816D01*
X113003064Y-99002704D01*
X112998075Y-98995268D01*
X112998063Y-98995209D01*
X112943686Y-98717083D01*
X112945462Y-98708306D01*
X112952759Y-98703389D01*
X113453792Y-98597968D01*
X113462592Y-98599618D01*
G37*
%TD.AperFunction*%
%TD*%
%TA.AperFunction,Conductor*%
%TO.N,Net-(U1-LA)*%
G36*
X115328455Y-101683676D02*
G01*
X115331823Y-101685584D01*
X115564564Y-101817425D01*
X115570073Y-101824484D01*
X115569628Y-101832030D01*
X115504846Y-101990575D01*
X115498544Y-101996938D01*
X115490321Y-101997250D01*
X115408912Y-101970160D01*
X115142462Y-101881492D01*
X115135694Y-101875629D01*
X115135055Y-101866697D01*
X115137881Y-101862120D01*
X115179290Y-101820712D01*
X115314418Y-101685583D01*
X115322690Y-101682157D01*
X115328455Y-101683676D01*
G37*
%TD.AperFunction*%
%TD*%
%TA.AperFunction,Conductor*%
%TO.N,Net-(U1-VSS)*%
G36*
X109406092Y-90078630D02*
G01*
X109894681Y-90396539D01*
X109899746Y-90403924D01*
X109900000Y-90406346D01*
X109900000Y-90593653D01*
X109896573Y-90601926D01*
X109894681Y-90603460D01*
X109406092Y-90921369D01*
X109397289Y-90923008D01*
X109391164Y-90919551D01*
X109095706Y-90603460D01*
X109006466Y-90507988D01*
X109003321Y-90499605D01*
X109006466Y-90492011D01*
X109391165Y-90080447D01*
X109399316Y-90076744D01*
X109406092Y-90078630D01*
G37*
%TD.AperFunction*%
%TD*%
%TA.AperFunction,Conductor*%
%TO.N,Net-(U1-VSS)*%
G36*
X108608835Y-90080448D02*
G01*
X108993532Y-90492011D01*
X108996678Y-90500395D01*
X108993532Y-90507989D01*
X108608835Y-90919551D01*
X108600683Y-90923255D01*
X108593907Y-90921369D01*
X108105319Y-90603460D01*
X108100254Y-90596075D01*
X108100000Y-90593653D01*
X108100000Y-90406346D01*
X108103427Y-90398073D01*
X108105319Y-90396539D01*
X108593907Y-90078629D01*
X108602710Y-90076991D01*
X108608835Y-90080448D01*
G37*
%TD.AperFunction*%
%TD*%
%TA.AperFunction,Conductor*%
%TO.N,Net-(U1-LA)*%
G36*
X115275627Y-101631364D02*
G01*
X115565327Y-101817241D01*
X115570440Y-101824593D01*
X115569840Y-101831514D01*
X115505157Y-101989815D01*
X115498855Y-101996177D01*
X115489900Y-101996220D01*
X115489840Y-101996195D01*
X115087635Y-101829208D01*
X115081308Y-101822870D01*
X115081315Y-101813916D01*
X115083845Y-101810132D01*
X115126278Y-101767700D01*
X115261039Y-101632938D01*
X115269311Y-101629512D01*
X115275627Y-101631364D01*
G37*
%TD.AperFunction*%
%TD*%
%TA.AperFunction,Conductor*%
%TO.N,Net-(LED1-Pad2)*%
G36*
X114102515Y-95103427D02*
G01*
X114103512Y-95104561D01*
X114428942Y-95527134D01*
X114431275Y-95535780D01*
X114428225Y-95542257D01*
X114008553Y-95991837D01*
X114000402Y-95995546D01*
X113992016Y-95992406D01*
X113991447Y-95991837D01*
X113571774Y-95542257D01*
X113568634Y-95533871D01*
X113571056Y-95527135D01*
X113896488Y-95104561D01*
X113904251Y-95100097D01*
X113905758Y-95100000D01*
X114094242Y-95100000D01*
X114102515Y-95103427D01*
G37*
%TD.AperFunction*%
%TD*%
%TA.AperFunction,Conductor*%
%TO.N,Net-(U1-VCC)*%
G36*
X112278506Y-95135757D02*
G01*
X112746737Y-95528229D01*
X112750876Y-95536170D01*
X112748921Y-95543738D01*
X112448918Y-95988532D01*
X112441451Y-95993475D01*
X112432676Y-95991690D01*
X112430674Y-95989983D01*
X112013175Y-95543738D01*
X112010407Y-95540779D01*
X112007258Y-95532399D01*
X112008354Y-95527832D01*
X112128004Y-95272152D01*
X112130324Y-95268844D01*
X112262718Y-95136450D01*
X112270990Y-95133024D01*
X112278506Y-95135757D01*
G37*
%TD.AperFunction*%
%TD*%
%TA.AperFunction,Conductor*%
%TO.N,Net-(U1-VCC)*%
G36*
X109463621Y-91913858D02*
G01*
X109469100Y-91919831D01*
X109790517Y-92704841D01*
X109790480Y-92713795D01*
X109787962Y-92717547D01*
X109657656Y-92847853D01*
X109649383Y-92851280D01*
X109644755Y-92850326D01*
X108830392Y-92499555D01*
X108824149Y-92493134D01*
X108824201Y-92484354D01*
X108997224Y-92064314D01*
X109003542Y-92057971D01*
X109004444Y-92057639D01*
X109454696Y-91913124D01*
X109463621Y-91913858D01*
G37*
%TD.AperFunction*%
%TD*%
%TA.AperFunction,Conductor*%
%TO.N,Net-(U1-VSS)*%
G36*
X111363233Y-91694072D02*
G01*
X111901124Y-91915620D01*
X111907467Y-91921938D01*
X111908243Y-91928139D01*
X111850675Y-92319620D01*
X111846080Y-92327307D01*
X111843548Y-92328739D01*
X111528991Y-92458082D01*
X111520037Y-92458059D01*
X111514007Y-92452350D01*
X111260789Y-91928139D01*
X111218217Y-91840008D01*
X111217705Y-91831069D01*
X111220478Y-91826649D01*
X111350510Y-91696617D01*
X111358782Y-91693191D01*
X111363233Y-91694072D01*
G37*
%TD.AperFunction*%
%TD*%
%TA.AperFunction,Conductor*%
%TO.N,Net-(LED1-Pad2)*%
G36*
X113827810Y-92222718D02*
G01*
X113833606Y-92229544D01*
X113833661Y-92229720D01*
X114034052Y-92887959D01*
X114033183Y-92896871D01*
X114031132Y-92899639D01*
X113901131Y-93029640D01*
X113892858Y-93033067D01*
X113886843Y-93031402D01*
X113394774Y-92736470D01*
X113389440Y-92729278D01*
X113389509Y-92723328D01*
X113497614Y-92330885D01*
X113503114Y-92323822D01*
X113505305Y-92322858D01*
X113818886Y-92221989D01*
X113827810Y-92222718D01*
G37*
%TD.AperFunction*%
%TD*%
M02*
